<svg width="645" height="244" viewBox="0 0 645 244" fill="none" xmlns="http://www.w3.org/2000/svg">
<g clip-path="url(#clip0_2359_462)">
<path d="M134.379 8C71.6269 8 71.6269 128.949 8.875 128.949V243.998H636.394V199.749C573.642 199.749 573.642 52.2497 510.89 52.2497C448.138 52.2497 448.138 193.849 385.386 193.849C322.634 193.849 322.634 199.749 259.883 199.749C197.131 199.749 197.131 8 134.379 8Z" fill="url(#paint0_linear_2359_462)"/>
<path d="M8.875 128.949C71.6269 128.949 71.6269 8 134.379 8C197.131 8 197.131 199.749 259.883 199.749C322.634 199.749 322.634 193.849 385.386 193.849C448.138 193.849 448.138 52.2497 510.89 52.2497C573.642 52.2497 573.642 199.749 636.394 199.749" stroke="#6FD195"/>
<path opacity="0.25" d="M8.875 136.949C13.2933 136.949 16.875 133.368 16.875 128.949C16.875 124.531 13.2933 120.949 8.875 120.949C4.45672 120.949 0.875 124.531 0.875 128.949C0.875 133.368 4.45672 136.949 8.875 136.949Z" fill="#6FD195"/>
<path d="M8.875 132.449C10.808 132.449 12.375 130.882 12.375 128.949C12.375 127.016 10.808 125.449 8.875 125.449C6.942 125.449 5.375 127.016 5.375 128.949C5.375 130.882 6.942 132.449 8.875 132.449Z" fill="#6FD195" stroke="white"/>
<path opacity="0.25" d="M134.379 16C138.797 16 142.379 12.4183 142.379 8C142.379 3.58172 138.797 0 134.379 0C129.961 0 126.379 3.58172 126.379 8C126.379 12.4183 129.961 16 134.379 16Z" fill="#6FD195"/>
<path d="M134.379 11.5C136.312 11.5 137.879 9.933 137.879 8C137.879 6.067 136.312 4.5 134.379 4.5C132.446 4.5 130.879 6.067 130.879 8C130.879 9.933 132.446 11.5 134.379 11.5Z" fill="#6FD195" stroke="white"/>
<path opacity="0.25" d="M259.883 207.746C264.301 207.746 267.883 204.164 267.883 199.746C267.883 195.328 264.301 191.746 259.883 191.746C255.465 191.746 251.883 195.328 251.883 199.746C251.883 204.164 255.465 207.746 259.883 207.746Z" fill="#6FD195"/>
<path d="M259.883 203.246C261.816 203.246 263.383 201.679 263.383 199.746C263.383 197.813 261.816 196.246 259.883 196.246C257.95 196.246 256.383 197.813 256.383 199.746C256.383 201.679 257.95 203.246 259.883 203.246Z" fill="#6FD195" stroke="white"/>
<path opacity="0.25" d="M385.387 201.852C389.805 201.852 393.387 198.27 393.387 193.852C393.387 189.433 389.805 185.852 385.387 185.852C380.968 185.852 377.387 189.433 377.387 193.852C377.387 198.27 380.968 201.852 385.387 201.852Z" fill="#6FD195"/>
<path d="M385.387 197.352C387.32 197.352 388.887 195.785 388.887 193.852C388.887 191.919 387.32 190.352 385.387 190.352C383.454 190.352 381.887 191.919 381.887 193.852C381.887 195.785 383.454 197.352 385.387 197.352Z" fill="#6FD195" stroke="white"/>
<path opacity="0.25" d="M510.891 60.25C515.309 60.25 518.891 56.6683 518.891 52.25C518.891 47.8317 515.309 44.25 510.891 44.25C506.472 44.25 502.891 47.8317 502.891 52.25C502.891 56.6683 506.472 60.25 510.891 60.25Z" fill="#6FD195"/>
<path d="M510.891 55.75C512.824 55.75 514.391 54.183 514.391 52.25C514.391 50.317 512.824 48.75 510.891 48.75C508.958 48.75 507.391 50.317 507.391 52.25C507.391 54.183 508.958 55.75 510.891 55.75Z" fill="#6FD195" stroke="white"/>
<path opacity="0.25" d="M636.395 207.746C640.813 207.746 644.395 204.164 644.395 199.746C644.395 195.328 640.813 191.746 636.395 191.746C631.976 191.746 628.395 195.328 628.395 199.746C628.395 204.164 631.976 207.746 636.395 207.746Z" fill="#6FD195"/>
<path d="M636.395 203.246C638.328 203.246 639.895 201.679 639.895 199.746C639.895 197.813 638.328 196.246 636.395 196.246C634.462 196.246 632.895 197.813 632.895 199.746C632.895 201.679 634.462 203.246 636.395 203.246Z" fill="#6FD195" stroke="white"/>
<path d="M134.379 55.2021C71.6269 55.2021 71.6269 78.8019 8.875 78.8019V244.001H636.394V134.852C573.642 134.852 573.642 37.5022 510.89 37.5022C448.138 37.5022 448.138 13.9023 385.386 13.9023C322.634 13.9023 322.634 19.8023 259.883 19.8023C197.131 19.8023 197.131 55.2021 134.379 55.2021Z" fill="url(#paint1_linear_2359_462)"/>
<path d="M8.875 78.8019C71.6269 78.8019 71.6269 55.2021 134.379 55.2021C197.131 55.2021 197.131 19.8023 259.883 19.8023C322.634 19.8023 322.634 13.9023 385.386 13.9023C448.138 13.9023 448.138 37.5022 510.89 37.5022C573.642 37.5022 573.642 134.852 636.394 134.852" stroke="#45C68B"/>
<path opacity="0.25" d="M8.875 86.8008C13.2933 86.8008 16.875 83.2191 16.875 78.8008C16.875 74.3825 13.2933 70.8008 8.875 70.8008C4.45672 70.8008 0.875 74.3825 0.875 78.8008C0.875 83.2191 4.45672 86.8008 8.875 86.8008Z" fill="#45C68B"/>
<path d="M8.875 82.3008C10.808 82.3008 12.375 80.7338 12.375 78.8008C12.375 76.8678 10.808 75.3008 8.875 75.3008C6.942 75.3008 5.375 76.8678 5.375 78.8008C5.375 80.7338 6.942 82.3008 8.875 82.3008Z" fill="#45C68B" stroke="white"/>
<path opacity="0.25" d="M134.379 63.2031C138.797 63.2031 142.379 59.6214 142.379 55.2031C142.379 50.7848 138.797 47.2031 134.379 47.2031C129.961 47.2031 126.379 50.7848 126.379 55.2031C126.379 59.6214 129.961 63.2031 134.379 63.2031Z" fill="#45C68B"/>
<path d="M134.379 58.7031C136.312 58.7031 137.879 57.1361 137.879 55.2031C137.879 53.2701 136.312 51.7031 134.379 51.7031C132.446 51.7031 130.879 53.2701 130.879 55.2031C130.879 57.1361 132.446 58.7031 134.379 58.7031Z" fill="#45C68B" stroke="white"/>
<path opacity="0.25" d="M259.883 27.8008C264.301 27.8008 267.883 24.2191 267.883 19.8008C267.883 15.3825 264.301 11.8008 259.883 11.8008C255.465 11.8008 251.883 15.3825 251.883 19.8008C251.883 24.2191 255.465 27.8008 259.883 27.8008Z" fill="#45C68B"/>
<path d="M259.883 23.3008C261.816 23.3008 263.383 21.7338 263.383 19.8008C263.383 17.8678 261.816 16.3008 259.883 16.3008C257.95 16.3008 256.383 17.8678 256.383 19.8008C256.383 21.7338 257.95 23.3008 259.883 23.3008Z" fill="#45C68B" stroke="white"/>
<path opacity="0.25" d="M385.387 21.9023C389.805 21.9023 393.387 18.3206 393.387 13.9023C393.387 9.48407 389.805 5.90234 385.387 5.90234C380.968 5.90234 377.387 9.48407 377.387 13.9023C377.387 18.3206 380.968 21.9023 385.387 21.9023Z" fill="#45C68B"/>
<path d="M385.387 17.4023C387.32 17.4023 388.887 15.8353 388.887 13.9023C388.887 11.9693 387.32 10.4023 385.387 10.4023C383.454 10.4023 381.887 11.9693 381.887 13.9023C381.887 15.8353 383.454 17.4023 385.387 17.4023Z" fill="#45C68B" stroke="white"/>
<path opacity="0.25" d="M510.891 45.5039C515.309 45.5039 518.891 41.9222 518.891 37.5039C518.891 33.0856 515.309 29.5039 510.891 29.5039C506.472 29.5039 502.891 33.0856 502.891 37.5039C502.891 41.9222 506.472 45.5039 510.891 45.5039Z" fill="#45C68B"/>
<path d="M510.891 41.0039C512.824 41.0039 514.391 39.4369 514.391 37.5039C514.391 35.5709 512.824 34.0039 510.891 34.0039C508.958 34.0039 507.391 35.5709 507.391 37.5039C507.391 39.4369 508.958 41.0039 510.891 41.0039Z" fill="#45C68B" stroke="white"/>
<path opacity="0.25" d="M636.395 142.852C640.813 142.852 644.395 139.27 644.395 134.852C644.395 130.433 640.813 126.852 636.395 126.852C631.976 126.852 628.395 130.433 628.395 134.852C628.395 139.27 631.976 142.852 636.395 142.852Z" fill="#45C68B"/>
<path d="M636.395 138.352C638.328 138.352 639.895 136.785 639.895 134.852C639.895 132.919 638.328 131.352 636.395 131.352C634.462 131.352 632.895 132.919 632.895 134.852C632.895 136.785 634.462 138.352 636.395 138.352Z" fill="#45C68B" stroke="white"/>
</g>
<defs>
<linearGradient id="paint0_linear_2359_462" x1="322.634" y1="8" x2="322.634" y2="243.998" gradientUnits="userSpaceOnUse">
<stop stop-color="#6FD195" stop-opacity="0.3"/>
<stop offset="1" stop-color="#6FD195" stop-opacity="0.05"/>
</linearGradient>
<linearGradient id="paint1_linear_2359_462" x1="322.634" y1="13.9023" x2="322.634" y2="244.001" gradientUnits="userSpaceOnUse">
<stop stop-color="#43B580"/>
<stop offset="1" stop-color="#0F282F" stop-opacity="0"/>
</linearGradient>
<clipPath id="clip0_2359_462">
<rect width="645" height="244" fill="white"/>
</clipPath>
</defs>
</svg>
