<svg width="360" height="194" viewBox="0 0 360 194" fill="none" xmlns="http://www.w3.org/2000/svg">
<path d="M157.284 132.47L82.7946 152.43C81.0862 152.887 79.3537 151.889 78.8964 150.182L49.8234 41.6798C49.3663 39.9738 50.3674 38.2428 52.0758 37.785L126.565 17.8259C128.274 17.368 130.006 18.3665 130.463 20.0725L159.536 128.575C159.993 130.282 158.992 132.013 157.284 132.47Z" fill="#204955"/>
<path d="M120.172 82.8016C120.263 83.1426 120.309 83.3136 120.23 83.7003C120.196 84.258 120.379 84.94 120.345 85.4977C120.266 85.8844 120.311 86.0554 120.232 86.4421C120.198 86.9999 120.165 87.5576 119.96 88.1611L120.006 88.3311C119.881 88.5478 119.972 88.8888 119.847 89.1056C119.722 89.3213 119.642 89.709 119.517 89.9248L126.048 93.1122C126.127 92.7255 126.252 92.5087 126.332 92.122C126.616 91.1317 126.9 90.1415 127.013 89.197C127.092 88.8093 127.046 88.6393 127.126 88.2525C127.239 87.3071 127.352 86.3626 127.465 85.4182C127.42 85.2482 127.499 84.8604 127.453 84.6904C127.487 84.1327 127.35 83.6208 127.383 83.063C127.338 82.893 127.417 82.5053 127.371 82.3353C127.326 82.1644 127.234 81.8234 127.359 81.6066L127.314 81.4366C127.268 81.2657 127.177 80.9247 127.131 80.7537L120.126 82.6306L120.172 82.8016ZM108.828 99.9199C100.628 102.117 92.0105 97.2951 89.8165 89.1069C87.7594 81.4297 91.7515 73.7767 98.8237 70.7854L96.9495 63.7905C86.0731 67.6191 79.9198 79.5073 82.9826 90.938C86.2282 103.051 98.7884 110.289 110.919 107.039C116.899 105.437 121.726 101.584 124.604 96.608L118.073 93.4206C115.98 96.5418 112.758 98.867 108.828 99.9199ZM100.879 62.7376L102.754 69.7325C109.816 68.7543 116.529 72.6236 119.166 79.048L126.171 77.1711C122.483 66.8231 111.7 60.7524 100.879 62.7376Z" fill="#2C313D"/>
<path d="M126.34 77.1287L119.336 79.0055C116.653 72.4102 109.769 68.5866 102.923 69.69L101.049 62.6952C111.699 60.7557 122.481 66.8264 126.34 77.1287Z" fill="#45C68B"/>
<path d="M127.347 80.8789C127.392 81.0499 127.484 81.3909 127.529 81.5609L127.575 81.7318C127.621 81.9028 127.712 82.2438 127.587 82.4596C127.633 82.6305 127.724 82.9715 127.599 83.1882C127.566 83.7459 127.703 84.2579 127.669 84.8156C127.715 84.9856 127.635 85.3724 127.681 85.5433C127.568 86.4878 127.625 87.3865 127.341 88.3767C127.262 88.7645 127.308 88.9345 127.228 89.3212C127.115 90.2657 126.831 91.2569 126.547 92.2471C126.468 92.6339 126.343 92.8506 126.263 93.2374L119.516 89.9248C119.641 89.709 119.721 89.3223 119.846 89.1055C119.971 88.8888 120.051 88.502 120.005 88.3311L119.959 88.1611C119.993 87.6033 120.197 86.9999 120.231 86.4421C120.311 86.0554 120.265 85.8844 120.344 85.4976C120.378 84.9399 120.366 84.2122 120.229 83.7003C120.137 83.3593 120.263 83.1425 120.171 82.8016L127.347 80.8789Z" fill="url(#paint0_linear_2359_491)"/>
<path d="M70.9628 51.5525L62.4205 53.8414C61.9079 53.9787 61.2582 53.6043 61.1211 53.0925L60.8468 52.0689C60.7097 51.557 61.0851 50.9079 61.5977 50.7706L70.1399 48.4817C70.6525 48.3444 71.3021 48.7188 71.4393 49.2306L71.7135 50.2542C71.8507 50.7661 71.4753 51.4151 70.9628 51.5525Z" fill="#343A4E"/>
<path d="M129.733 35.8065L79.3346 49.3109C78.822 49.4482 78.1723 49.0738 78.0351 48.5619L77.7609 47.5384C77.6237 47.0265 77.9992 46.3774 78.5117 46.2401L128.91 32.7357C129.423 32.5983 130.073 32.9726 130.211 33.4844L130.485 34.508C130.622 35.0199 130.246 35.669 129.733 35.8065Z" fill="#2C313D"/>
<path d="M73.66 61.6189L65.1178 63.9078C64.6052 64.0451 63.9555 63.6707 63.8184 63.1589L63.5441 62.1353C63.407 61.6234 63.7824 60.9744 64.295 60.837L72.8372 58.5481C73.3498 58.4108 73.9994 58.7852 74.1365 59.297L74.4108 60.3206C74.548 60.8325 74.1726 61.4815 73.66 61.6189Z" fill="#343A4E"/>
<path d="M132.431 45.8729L82.0318 59.3773C81.5193 59.5146 80.8696 59.1402 80.7324 58.6284L80.4582 57.6048C80.321 57.0929 80.6965 56.4438 81.209 56.3065L131.608 42.8021C132.121 42.6647 132.771 43.039 132.908 43.5508L133.182 44.5744C133.319 45.0863 132.943 45.7355 132.431 45.8729Z" fill="#2C313D"/>
<path d="M99.1389 121.172L93.3301 122.729L97.3985 137.912L103.207 136.355L99.1389 121.172Z" fill="url(#paint1_linear_2359_491)"/>
<path d="M108.998 115.602L103.189 117.158L108.035 135.242L113.844 133.686L108.998 115.602Z" fill="url(#paint2_linear_2359_491)"/>
<path d="M121.133 117.836L115.324 119.393L118.798 132.358L124.607 130.802L121.133 117.836Z" fill="url(#paint3_linear_2359_491)"/>
<path d="M132.869 119.262L127.061 120.818L129.392 129.518L135.201 127.962L132.869 119.262Z" fill="url(#paint4_linear_2359_491)"/>
<path d="M276.735 152.474L202.075 132.469C200.367 132.012 199.366 130.281 199.823 128.575L228.896 20.0728C229.353 18.3668 231.086 17.3681 232.794 17.8259L307.283 37.7851C308.991 38.2429 309.992 39.974 309.535 41.68L280.462 150.182C280.005 151.888 278.273 152.886 276.735 152.474Z" fill="#204955"/>
<path d="M279.143 118.191L219.518 102.214C219.006 102.077 218.63 101.428 218.767 100.916L218.858 100.575C218.996 100.063 219.646 99.6883 220.158 99.8254L279.783 115.802C280.295 115.939 280.671 116.589 280.534 117.1L280.442 117.441C280.305 117.953 279.826 118.374 279.143 118.191Z" fill="#2C313D"/>
<path d="M277.179 125.53L217.553 109.553C217.041 109.416 216.665 108.766 216.802 108.255L216.894 107.914C217.031 107.402 217.681 107.028 218.193 107.165L277.818 123.142C278.33 123.279 278.706 123.927 278.569 124.439L278.478 124.781C278.341 125.292 277.862 125.713 277.179 125.53Z" fill="#2C313D"/>
<path d="M231.181 120.883L215.805 116.763C215.122 116.58 214.746 115.93 214.929 115.248C215.112 114.566 215.762 114.191 216.445 114.374L231.821 118.494C232.504 118.677 232.88 119.327 232.697 120.009C232.514 120.691 231.864 121.066 231.181 120.883Z" fill="#2C313D"/>
<path d="M237.259 98.1918L221.883 94.0716C221.2 93.8886 220.824 93.2393 221.007 92.5573C221.19 91.8744 221.84 91.4999 222.523 91.6829L237.9 95.803C238.582 95.986 238.958 96.6354 238.775 97.3183C238.592 98.0003 237.942 98.3748 237.259 98.1918Z" fill="#2C313D"/>
<path d="M293.005 52.7911C291.979 52.5162 290.817 52.7534 289.906 53.4234L282.424 49.2246C282.128 48.9624 281.57 48.9956 281.136 49.2452L264.245 58.9814C263.779 58.6736 263.311 58.3656 262.799 58.2284C262.287 58.091 261.728 58.1241 261.17 58.1575L253.662 45.1747C253.924 44.8793 254.015 44.5381 254.153 44.0263C254.655 42.1497 253.483 40.3728 251.776 39.9152C250.067 39.4574 248.118 40.5808 247.661 42.2868C247.569 42.628 247.432 43.1398 247.512 43.5268L236.9 49.643C236.605 49.3811 236.092 49.2436 235.75 49.152C233.871 48.6486 232.093 49.8177 231.635 51.5237C231.178 53.2297 232.304 55.177 234.013 55.6348C235.722 56.0927 237.671 54.9694 238.128 53.2633C238.265 52.7515 238.185 52.3645 238.152 51.8069L248.763 45.6906C249.229 45.9984 249.526 46.2606 250.039 46.398C250.55 46.5352 251.109 46.5021 251.497 46.4231L259.004 59.4057C258.742 59.7011 258.651 60.0423 258.559 60.3835C258.056 62.2602 259.228 64.037 260.937 64.4948C262.816 64.9982 264.594 63.829 265.051 62.123C265.143 61.7818 265.234 61.4407 265.154 61.0536L281.614 51.5673L288.457 55.4122C288.216 56.9934 289.217 58.7244 290.926 59.1823C292.805 59.6857 294.583 58.5165 295.04 56.8106C295.885 55.0255 294.713 53.2487 293.005 52.7911ZM234.595 54.1453C233.741 53.9165 233.24 53.0508 233.469 52.1978C233.697 51.3448 234.564 50.8456 235.418 51.0744C236.272 51.3032 236.773 52.1689 236.544 53.0219C236.361 53.7043 235.449 54.3741 234.595 54.1453ZM250.667 44.7378C249.812 44.5088 249.312 43.6435 249.54 42.7904C249.769 41.9374 250.635 41.438 251.489 41.6671C252.343 41.8958 252.843 42.7613 252.615 43.6143C252.386 44.4673 251.691 45.0124 250.667 44.7378ZM261.689 63.0508C260.836 62.822 260.336 61.9566 260.564 61.1036C260.793 60.2506 261.658 59.7512 262.512 59.98C263.367 60.209 263.867 61.0744 263.639 61.9275C263.581 62.8263 262.715 63.3256 261.689 63.0508ZM291.725 57.5679C290.87 57.3388 290.37 56.4735 290.599 55.6205C290.827 54.7675 291.693 54.2681 292.548 54.4971C293.402 54.7259 293.902 55.5913 293.673 56.4443C293.445 57.2973 292.579 57.7967 291.725 57.5679Z" fill="#45C68B"/>
<path d="M228.718 82.9208L225.3 82.0051C224.958 81.9135 224.709 81.481 224.8 81.1397L229.28 64.4209C229.371 64.0796 229.804 63.8298 230.146 63.9215L233.563 64.8372C233.904 64.9285 234.155 65.3613 234.063 65.7026L229.584 82.4214C229.492 82.7627 229.059 83.0122 228.718 82.9208Z" fill="url(#paint5_linear_2359_491)"/>
<path d="M230.765 83.4701L226.836 82.4172C226.494 82.3256 226.369 82.1092 226.46 81.768L228.517 74.0909C228.609 73.7498 228.825 73.625 229.167 73.7166L233.097 74.7695C233.439 74.8611 233.564 75.0775 233.472 75.4187L231.415 83.0957C231.324 83.4369 230.936 83.5159 230.765 83.4701Z" fill="#45C68B"/>
<path d="M237.601 85.3028L234.183 84.3871C233.842 84.2957 233.592 83.8628 233.683 83.5217L236.792 71.9208C236.883 71.5796 237.317 71.33 237.658 71.4214L241.075 72.3371C241.416 72.4284 241.666 72.8613 241.575 73.2025L238.467 84.8033C238.375 85.1445 237.942 85.3942 237.601 85.3028Z" fill="url(#paint6_linear_2359_491)"/>
<path d="M246.484 87.682L243.067 86.7665C242.725 86.6749 242.475 86.2421 242.566 85.901L244.532 78.565C244.623 78.2239 245.057 77.9743 245.399 78.066L248.815 78.9814C249.157 79.073 249.408 79.5058 249.316 79.847L247.351 87.1829C247.259 87.5241 246.826 87.7736 246.484 87.682Z" fill="url(#paint7_linear_2359_491)"/>
<path d="M255.368 90.0634L251.951 89.1479C251.609 89.0563 251.36 88.6238 251.451 88.2825L255.154 74.4639C255.245 74.1227 255.678 73.8728 256.02 73.9644L259.436 74.8799C259.778 74.9715 260.029 75.4044 259.937 75.7455L256.235 89.5642C256.143 89.9054 255.881 90.2008 255.368 90.0634Z" fill="url(#paint8_linear_2359_491)"/>
<path d="M264.422 92.4909L261.006 91.5754C260.664 91.4838 260.414 91.0509 260.505 90.7098L262.745 82.3503C262.836 82.0091 263.27 81.7595 263.612 81.8512L267.028 82.7666C267.37 82.8582 267.62 83.2908 267.528 83.632L265.288 91.9914C265.197 92.3326 264.764 92.5825 264.422 92.4909Z" fill="url(#paint9_linear_2359_491)"/>
<path d="M273.308 94.8692L269.89 93.9535C269.548 93.8619 269.299 93.4292 269.39 93.0881L272.499 81.4872C272.59 81.1461 273.023 80.8962 273.365 80.9878L276.782 81.9035C277.123 81.9948 277.373 82.4277 277.282 82.7689L274.174 94.3698C274.082 94.7109 273.649 94.9606 273.308 94.8692Z" fill="url(#paint10_linear_2359_491)"/>
<path d="M282.193 97.2486L278.775 96.3329C278.434 96.2413 278.184 95.8088 278.275 95.4676L280.241 88.1317C280.332 87.7905 280.765 87.5407 281.107 87.6324L284.524 88.5481C284.865 88.6394 285.116 89.0722 285.024 89.4134L283.059 96.7493C282.967 97.0905 282.534 97.34 282.193 97.2486Z" fill="url(#paint11_linear_2359_491)"/>
<path d="M239.65 85.8499L235.55 84.7512C235.38 84.7057 235.255 84.4893 235.3 84.3186L236.535 79.7124C236.58 79.5418 236.797 79.4171 236.967 79.4626L241.067 80.5613C241.238 80.6071 241.364 80.8235 241.318 80.9941L240.084 85.6003C240.038 85.771 239.821 85.8957 239.65 85.8499Z" fill="#45C68B"/>
<path d="M248.705 88.2808L244.434 87.1363C244.263 87.0905 244.138 86.8741 244.183 86.7035L244.778 84.4857C244.823 84.3151 245.04 84.1903 245.211 84.2361L249.482 85.3806C249.653 85.4264 249.779 85.6428 249.733 85.8135L249.139 88.0312C248.922 88.156 248.876 88.3266 248.705 88.2808Z" fill="#45C68B"/>
<path d="M257.59 90.657L253.49 89.5583C253.32 89.5127 253.195 89.2963 253.24 89.1257L254.109 85.8843C254.154 85.7137 254.371 85.5889 254.541 85.6345L258.642 86.7332C258.812 86.779 258.938 86.9954 258.892 87.166L258.023 90.4074C257.978 90.578 257.932 90.7486 257.59 90.657Z" fill="#45C68B"/>
<path d="M266.475 93.04L262.545 91.9872C262.375 91.9413 262.249 91.7249 262.295 91.5544L263.895 85.5833C263.941 85.4127 264.157 85.2879 264.328 85.3338L268.258 86.3866C268.429 86.4324 268.554 86.6488 268.508 86.8194L266.908 92.7905C267.033 93.0069 266.817 93.1317 266.475 93.04Z" fill="#45C68B"/>
<path d="M275.87 95.5573L271.428 94.3672C271.257 94.3214 271.257 94.3214 271.303 94.1509L271.577 93.1273C271.623 92.9567 271.623 92.9567 271.794 93.0025L276.235 94.1925C276.406 94.2383 276.406 94.2384 276.361 94.4089L276.132 95.2619C276.086 95.4325 276.041 95.6031 275.87 95.5573Z" fill="#45C68B"/>
<path d="M284.755 97.9387L280.313 96.7486C280.313 96.7486 280.142 96.7028 280.188 96.5319L280.325 96.0194C280.325 96.0194 280.371 95.8487 280.542 95.8945L284.983 97.0845C284.983 97.0845 285.154 97.1303 285.109 97.3011L284.755 97.9387Z" fill="#45C68B"/>
<path d="M225.609 173.882C212.742 174.245 197.157 173.882 186.283 173.7C175.41 173.882 159.824 174.245 146.957 173.882C159.643 166.615 164.173 152.991 164.898 144.09H207.668C208.574 152.991 212.924 166.615 225.609 173.882Z" fill="url(#paint12_linear_2359_491)"/>
<path d="M267.291 30.7337V142.635C267.291 145.359 265.117 147.358 262.58 147.358H110.712C107.993 147.358 106 145.178 106 142.635V30.7337C106 28.0089 108.175 26.0106 110.712 26.0106H262.58C265.117 25.829 267.291 28.0089 267.291 30.7337Z" fill="#353B4A"/>
<path d="M267.291 30.7337V127.012H106V30.7337C106 28.0089 108.175 26.0106 110.712 26.0106H262.58C265.117 25.829 267.291 28.0089 267.291 30.7337Z" fill="#262A31"/>
<path d="M261.13 32.0078H111.438V121.747H261.13V32.0078Z" fill="#204955"/>
<path d="M120.319 42.1801C121.62 42.1801 122.675 41.1228 122.675 39.8185C122.675 38.5143 121.62 37.457 120.319 37.457C119.018 37.457 117.963 38.5143 117.963 39.8185C117.963 41.1228 119.018 42.1801 120.319 42.1801Z" fill="#2A2E39"/>
<path d="M127.928 42.1801C129.229 42.1801 130.284 41.1228 130.284 39.8185C130.284 38.5143 129.229 37.457 127.928 37.457C126.627 37.457 125.572 38.5143 125.572 39.8185C125.572 41.1228 126.627 42.1801 127.928 42.1801Z" fill="#2A2E39"/>
<path d="M135.542 42.1801C136.843 42.1801 137.897 41.1228 137.897 39.8185C137.897 38.5143 136.843 37.457 135.542 37.457C134.24 37.457 133.186 38.5143 133.186 39.8185C133.186 41.1228 134.24 42.1801 135.542 42.1801Z" fill="#2A2E39"/>
<path d="M261.13 47.6289H143.695H119.773H111.438V121.745H143.695V48.7188H261.13V47.6289Z" fill="#2B2F3A"/>
<path d="M127.928 63.614C130.13 63.614 131.915 61.8247 131.915 59.6175C131.915 57.4103 130.13 55.6211 127.928 55.6211C125.727 55.6211 123.941 57.4103 123.941 59.6175C123.941 61.8247 125.727 63.614 127.928 63.614Z" fill="#204955"/>
<path d="M138.803 69.6095H116.875C116.331 69.6095 115.969 69.2462 115.969 68.7012C115.969 68.1563 116.331 67.793 116.875 67.793H138.803C139.347 67.793 139.709 68.1563 139.709 68.7012C139.891 69.0646 139.347 69.6095 138.803 69.6095Z" fill="#204955"/>
<path d="M138.803 75.2385H116.875C116.331 75.2385 115.969 74.8752 115.969 74.3302C115.969 73.7852 116.331 73.4219 116.875 73.4219H138.803C139.347 73.4219 139.709 73.7852 139.709 74.3302C139.891 74.6935 139.347 75.2385 138.803 75.2385Z" fill="#204955"/>
<path d="M138.803 80.8713H116.875C116.331 80.8713 115.969 80.5079 115.969 79.963C115.969 79.418 116.331 79.0547 116.875 79.0547H138.803C139.347 79.0547 139.709 79.418 139.709 79.963C139.891 80.3263 139.347 80.8713 138.803 80.8713Z" fill="#204955"/>
<path d="M138.803 86.5041H116.875C116.331 86.5041 115.969 86.1407 115.969 85.5958C115.969 85.0508 116.331 84.6875 116.875 84.6875H138.803C139.347 84.6875 139.709 85.0508 139.709 85.5958C139.891 85.9591 139.347 86.5041 138.803 86.5041Z" fill="#204955"/>
<path d="M138.803 92.1369H116.875C116.331 92.1369 115.969 91.7736 115.969 91.2286C115.969 90.6837 116.331 90.3203 116.875 90.3203H138.803C139.347 90.3203 139.709 90.6837 139.709 91.2286C139.891 91.5919 139.347 92.1369 138.803 92.1369Z" fill="#204955"/>
<path d="M128.292 97.7646H116.694C116.331 97.7646 115.969 97.4006 115.969 97.0376V96.4926C115.969 96.1296 116.331 95.7656 116.694 95.7656H128.292C128.655 95.7656 129.017 96.1296 129.017 96.4926V97.0376C128.836 97.4006 128.655 97.7646 128.292 97.7646Z" fill="#204955"/>
<path d="M186.284 141.727C188.486 141.727 190.271 139.937 190.271 137.73C190.271 135.523 188.486 133.734 186.284 133.734C184.082 133.734 182.297 135.523 182.297 137.73C182.297 139.937 184.082 141.727 186.284 141.727Z" fill="#262A31"/>
<path d="M161.998 89.2266H153.662V109.391H161.998V89.2266Z" fill="#2B2F3A"/>
<path d="M182.478 79.9648H174.141V109.394H182.478V79.9648Z" fill="#2B2F3A"/>
<path d="M202.955 89.2266H194.619V109.391H202.955V89.2266Z" fill="#2B2F3A"/>
<path d="M223.435 65.793H215.098V109.391H223.435V65.793Z" fill="#2B2F3A"/>
<path d="M243.912 79.418H235.576V109.391H243.912V79.418Z" fill="#2B2F3A"/>
<path d="M161.998 104.852H153.662V109.394H161.998V104.852Z" fill="#43B580"/>
<path d="M182.478 102.852H174.141V109.392H182.478V102.852Z" fill="#43B580"/>
<path d="M202.955 104.852H194.619V109.394H202.955V104.852Z" fill="#43B580"/>
<path d="M223.435 99.582H215.098V109.391H223.435V99.582Z" fill="#43B580"/>
<path d="M243.912 102.672H235.576V109.393H243.912V102.672Z" fill="#43B580"/>
<g filter="url(#filter0_d_2359_491)">
<path d="M158.557 106.305C154.933 106.305 151.852 105.215 150.039 104.67C148.59 104.125 147.865 102.672 148.227 101.219C148.771 99.7652 150.221 99.0392 151.67 99.4022C156.564 101.037 162.363 102.309 167.437 96.6772L168.887 95.0422C175.412 87.9579 179.217 83.7797 191.178 90.3194C200.783 95.7692 204.227 93.7712 208.032 87.5946C209.482 85.0513 210.569 82.3265 211.657 79.7833C213.65 74.6969 215.644 69.4288 221.081 70.1554H221.443C226.699 70.7004 233.041 71.427 241.015 60.3459C242.103 58.711 243.19 57.621 244.096 56.7128C245.184 55.6228 246.996 55.8045 247.902 56.8944C248.989 57.9844 248.808 59.8009 247.721 60.7092C246.996 61.2542 246.271 62.3441 245.365 63.6157C235.76 77.0584 226.517 76.1501 220.899 75.6051H220.537C219.268 75.4235 218.181 77.785 216.731 81.7815C215.644 84.5064 214.556 87.5946 212.744 90.5011C206.945 100.129 199.877 101.4 188.641 95.2242C180.486 90.6827 179.399 91.9543 173.056 98.8572L171.425 100.674C167.256 105.215 162.544 106.305 158.557 106.305Z" fill="url(#paint13_linear_2359_491)"/>
</g>
<path d="M164.899 61.7971H153.844C152.938 61.7971 152.395 61.0705 152.395 60.3439C152.395 59.4356 153.119 58.8906 153.844 58.8906H164.899C165.805 58.8906 166.349 59.6172 166.349 60.3439C166.349 61.2522 165.624 61.7971 164.899 61.7971Z" fill="#2B2F3A"/>
<path d="M174.866 68.8832H153.844C152.938 68.8832 152.395 68.1565 152.395 67.4299C152.395 66.5216 153.119 65.9766 153.844 65.9766H174.685C175.591 65.9766 176.135 66.7033 176.135 67.4299C176.316 68.1565 175.591 68.8832 174.866 68.8832Z" fill="#2B2F3A"/>
<path d="M148.226 176.06H224.522C225.61 176.06 226.516 175.151 226.516 174.062C226.516 172.972 225.61 172.062 224.522 172.062H148.226C147.139 172.062 146.232 172.972 146.232 174.062C146.232 175.151 147.139 176.06 148.226 176.06Z" fill="#353B4A"/>
<defs>
<filter id="filter0_d_2359_491" x="140.135" y="52.9805" width="116.498" height="66.3242" filterUnits="userSpaceOnUse" color-interpolation-filters="sRGB">
<feFlood flood-opacity="0" result="BackgroundImageFix"/>
<feColorMatrix in="SourceAlpha" type="matrix" values="0 0 0 0 0 0 0 0 0 0 0 0 0 0 0 0 0 0 127 0" result="hardAlpha"/>
<feOffset dy="5"/>
<feGaussianBlur stdDeviation="4"/>
<feColorMatrix type="matrix" values="0 0 0 0 0.270588 0 0 0 0 0.776471 0 0 0 0 0.545098 0 0 0 0.25 0"/>
<feBlend mode="normal" in2="BackgroundImageFix" result="effect1_dropShadow_2359_491"/>
<feBlend mode="normal" in="SourceGraphic" in2="effect1_dropShadow_2359_491" result="shape"/>
</filter>
<linearGradient id="paint0_linear_2359_491" x1="119.331" y1="89.0219" x2="128.779" y2="86.4904" gradientUnits="userSpaceOnUse">
<stop stop-color="#56DC9E"/>
<stop offset="1" stop-color="#3DAB79"/>
</linearGradient>
<linearGradient id="paint1_linear_2359_491" x1="95.3224" y1="130.416" x2="101.082" y2="128.873" gradientUnits="userSpaceOnUse">
<stop stop-color="#56DC9E"/>
<stop offset="1" stop-color="#3DAB79"/>
</linearGradient>
<linearGradient id="paint2_linear_2359_491" x1="105.648" y1="126.169" x2="111.408" y2="124.626" gradientUnits="userSpaceOnUse">
<stop stop-color="#56DC9E"/>
<stop offset="1" stop-color="#3DAB79"/>
</linearGradient>
<linearGradient id="paint3_linear_2359_491" x1="117.029" y1="125.856" x2="122.788" y2="124.312" gradientUnits="userSpaceOnUse">
<stop stop-color="#56DC9E"/>
<stop offset="1" stop-color="#3DAB79"/>
</linearGradient>
<linearGradient id="paint4_linear_2359_491" x1="128.292" y1="125.101" x2="134.052" y2="123.557" gradientUnits="userSpaceOnUse">
<stop stop-color="#56DC9E"/>
<stop offset="1" stop-color="#3DAB79"/>
</linearGradient>
<linearGradient id="paint5_linear_2359_491" x1="226.954" y1="72.7683" x2="231.77" y2="74.0588" gradientUnits="userSpaceOnUse">
<stop stop-color="white"/>
<stop offset="1" stop-color="#56DC9E"/>
</linearGradient>
<linearGradient id="paint6_linear_2359_491" x1="235.191" y1="77.7132" x2="240.007" y2="79.0037" gradientUnits="userSpaceOnUse">
<stop stop-color="#43B580"/>
<stop offset="1" stop-color="#45C68B"/>
</linearGradient>
<linearGradient id="paint7_linear_2359_491" x1="243.548" y1="82.2158" x2="248.364" y2="83.5062" gradientUnits="userSpaceOnUse">
<stop stop-color="#43B580"/>
<stop offset="1" stop-color="#0BA05E"/>
</linearGradient>
<linearGradient id="paint8_linear_2359_491" x1="253.351" y1="81.321" x2="258.166" y2="82.6112" gradientUnits="userSpaceOnUse">
<stop stop-color="#45C68B"/>
<stop offset="1" stop-color="#0BA05E"/>
</linearGradient>
<linearGradient id="paint9_linear_2359_491" x1="261.535" y1="86.4623" x2="266.352" y2="87.7528" gradientUnits="userSpaceOnUse">
<stop stop-color="#43B580"/>
<stop offset="1" stop-color="#0BA05E"/>
</linearGradient>
<linearGradient id="paint10_linear_2359_491" x1="270.881" y1="87.2749" x2="275.697" y2="88.5654" gradientUnits="userSpaceOnUse">
<stop stop-color="#43B580"/>
<stop offset="1" stop-color="#0BA05E"/>
</linearGradient>
<linearGradient id="paint11_linear_2359_491" x1="279.238" y1="91.7775" x2="284.054" y2="93.068" gradientUnits="userSpaceOnUse">
<stop stop-color="#43B580"/>
<stop offset="1" stop-color="#0BA05E"/>
</linearGradient>
<linearGradient id="paint12_linear_2359_491" x1="186.115" y1="173.266" x2="186.115" y2="146.502" gradientUnits="userSpaceOnUse">
<stop stop-color="#474755"/>
<stop offset="0.9913" stop-color="#2F3338"/>
</linearGradient>
<linearGradient id="paint13_linear_2359_491" x1="148.114" y1="81.335" x2="248.48" y2="81.335" gradientUnits="userSpaceOnUse">
<stop stop-color="#56DC9E"/>
<stop offset="1" stop-color="#3DAB79"/>
</linearGradient>
</defs>
</svg>
