<svg width="631" height="201" viewBox="0 0 631 201" fill="none" xmlns="http://www.w3.org/2000/svg">
<path d="M135.813 0H10.6099C4.75022 0 0 4.75022 0 10.6099V171.642C0 177.502 4.75022 182.252 10.6099 182.252H135.813C141.673 182.252 146.423 177.502 146.423 171.642V10.6099C146.423 4.75022 141.673 0 135.813 0Z" fill="#204955"/>
<path d="M115.795 76.3722L19.5907 76.3697C18.5961 76.4505 17.9346 75.7034 17.8537 74.709C17.7727 73.7146 18.5199 73.0534 19.5144 72.9726L115.513 72.8927C116.506 72.8119 117.169 73.5591 117.25 74.5535C117.33 75.5473 116.584 76.2088 115.795 76.3722Z" fill="#2C313D"/>
<path d="M115.653 85.6915L19.6532 85.7723C18.6586 85.8531 17.9972 85.1061 17.9162 84.1116C17.8353 83.1172 18.5823 82.456 19.5769 82.3752L115.576 82.2951C116.57 82.2141 117.232 82.9615 117.313 83.9552C117.394 84.9496 116.647 85.6106 115.653 85.6915Z" fill="#2C313D"/>
<path d="M115.802 94.8868L19.7196 95.1744C18.725 95.2552 18.0636 94.5081 17.9826 93.5137C17.9017 92.5193 18.6487 91.8581 19.6433 91.7773L115.643 91.6974C116.637 91.6165 117.299 92.3637 117.379 93.3575C117.543 94.145 116.713 95.0129 115.802 94.8868Z" fill="#2C313D"/>
<path d="M55.9134 104.445L19.784 104.574C18.7894 104.655 18.1279 103.908 18.047 102.914C17.9661 101.919 18.7132 101.258 19.7078 101.177L55.8367 101.049C56.8313 100.969 57.4928 101.716 57.5737 102.71C57.4477 103.621 56.9075 104.366 55.9134 104.445Z" fill="#2C313D"/>
<path opacity="0.3" d="M118.323 119.703L118.266 127.613C118.18 129.021 117.183 130.303 115.775 130.217L20.6876 130.424C19.2796 130.337 17.9966 129.341 18.0822 127.933L18.2218 119.815C18.3075 118.407 19.3041 117.125 20.7126 117.211H115.717C117.125 117.297 118.118 118.417 118.323 119.703Z" fill="url(#paint0_linear_2359_285)"/>
<path opacity="0.3" d="M118.413 138.008L118.357 145.919C118.272 147.327 117.275 148.609 115.867 148.523L20.7784 148.73C19.3699 148.644 18.0873 147.647 18.1729 146.239L18.1055 138.038C18.1911 136.629 19.1878 135.348 20.5964 135.434H115.6C117.009 135.52 118.208 136.724 118.413 138.008Z" fill="url(#paint1_linear_2359_285)"/>
<path opacity="0.3" d="M118.297 156.235L118.241 164.145C118.156 165.554 117.159 166.835 115.75 166.749L20.6622 166.957C19.2541 166.87 17.9711 165.874 18.0568 164.466L18.1134 156.554C18.1985 155.147 19.1956 153.864 20.6042 153.95H115.609C117.1 153.83 118.3 155.033 118.297 156.235Z" fill="url(#paint2_linear_2359_285)"/>
<path d="M30.5321 117.311L30.5071 130.524L20.688 130.419C19.2795 130.333 17.9969 129.336 18.0821 127.929L18.2217 119.811C18.3073 118.403 19.3039 117.122 20.7125 117.207L30.5321 117.311Z" fill="url(#paint3_linear_2359_285)"/>
<path d="M20.8033 135.519L49.7233 135.375L49.6984 148.588L20.7783 148.733C19.3698 148.647 18.0873 147.65 18.1728 146.241L18.1055 138.04C18.1075 136.839 19.3111 135.641 20.8033 135.519Z" fill="url(#paint4_linear_2359_285)"/>
<path d="M20.6852 153.743L24.787 153.711L24.762 166.924L20.6602 166.956C19.2517 166.87 17.9691 165.873 18.0548 164.465L18.1109 156.554C18.1965 155.146 19.1931 153.864 20.6852 153.743Z" fill="url(#paint5_linear_2359_285)"/>
<path d="M64.8041 47.6827C69.1759 36.2192 63.607 23.1601 52.0147 18.4958L51.8077 18.4125C40.2154 13.7483 27.0706 19.5183 22.4085 31.1054C17.9532 42.7758 23.7291 55.9182 35.3214 60.5824C41.7386 63.1644 48.4933 62.5165 54.1747 59.7538C58.9853 57.362 62.7632 53.3526 64.9277 47.9729C64.7208 47.8896 64.7208 47.8896 64.8041 47.6827ZM37.9855 53.9612C30.1193 50.7963 26.283 41.7999 29.4466 33.9372C32.6101 26.0745 41.6082 22.2423 49.4743 25.4073L49.6814 25.4906C57.5475 28.6555 61.2601 37.3617 58.3868 45.1007C58.3036 45.3076 58.3036 45.3076 58.2203 45.5145C56.805 49.0321 54.231 51.8429 50.9549 53.4097C46.808 55.3473 42.3326 55.7103 37.9855 53.9612Z" fill="#2C313D"/>
<path d="M64.8042 47.6791L57.9731 44.9305C61.0534 37.2748 57.1339 28.4854 49.4746 25.4037L49.2676 25.3204L52.0149 18.4922L52.222 18.5755C63.6072 23.1565 69.1761 36.2156 64.8042 47.6791Z" fill="#45C68B"/>
<path d="M129.258 122.419L120.539 132.134L107.344 120.093C106.269 119.18 106.231 117.482 107.145 116.407L112.459 110.371C113.373 109.296 115.071 109.258 116.147 110.172L129.258 122.419Z" fill="#2C313D"/>
<path d="M221.663 0H167.034C161.174 0 156.424 4.75022 156.424 10.6099V171.642C156.424 177.502 161.174 182.252 167.034 182.252H221.663C227.523 182.252 232.273 177.502 232.273 171.642V10.6099C232.273 4.75022 227.523 0 221.663 0Z" fill="#204955"/>
<path d="M194.347 22.5314C198.499 22.5314 201.866 19.1499 201.866 14.9786C201.866 10.8073 198.499 7.42578 194.347 7.42578C190.196 7.42578 186.83 10.8073 186.83 14.9786C186.83 19.1499 190.196 22.5314 194.347 22.5314Z" fill="#0F282F"/>
<path d="M218.046 37.8926H170.328C169.673 37.8926 169.02 37.2358 169.02 36.5791C169.02 35.9223 169.673 35.2656 170.328 35.2656H218.046C218.7 35.2656 219.353 35.9223 219.353 36.5791C219.353 37.2358 218.7 37.8926 218.046 37.8926Z" fill="#0F282F"/>
<path d="M218.046 47.9473H170.328C169.673 47.9473 169.02 47.2905 169.02 46.6338C169.02 45.977 169.673 45.3203 170.328 45.3203H218.046C218.7 45.3203 219.353 45.977 219.353 46.6338C219.353 47.2905 218.7 47.9473 218.046 47.9473Z" fill="#0F282F"/>
<path d="M218.046 63.6312H170.328C169.673 63.6312 169.02 62.9745 169.02 62.3177C169.02 61.3326 169.347 60.6758 170.328 60.6758H218.046C218.7 60.6758 219.353 61.3326 219.353 61.9893C219.353 62.9745 218.7 63.6312 218.046 63.6312Z" fill="#0F282F"/>
<path d="M187.977 74.014H170C169.673 74.014 169.02 73.6856 169.02 73.0289V72.0437C169.02 71.7154 169.347 71.0586 170 71.0586H187.65C187.977 71.0586 188.63 71.387 188.63 72.0437V73.0289C188.63 73.6856 188.303 74.014 187.977 74.014Z" fill="#0F282F"/>
<path d="M218.046 89.3731H170.328C169.673 89.3731 169.02 88.7164 169.02 88.0596C169.02 87.4028 169.673 86.7461 170.328 86.7461H218.046C218.7 86.7461 219.353 87.4028 219.353 88.0596C219.353 88.7164 218.7 89.3731 218.046 89.3731Z" fill="#0F282F"/>
<path d="M187.977 99.7567H170C169.673 99.7567 169.02 99.4278 169.02 98.771V97.7864C169.02 97.4575 169.347 96.8008 170 96.8008H187.65C187.977 96.8008 188.63 97.1297 188.63 97.7864V98.771C188.63 99.4278 188.303 99.7567 187.977 99.7567Z" fill="#0F282F"/>
<path d="M218.046 115.115H170.328C169.673 115.115 169.02 114.459 169.02 113.802C169.02 113.145 169.673 112.488 170.328 112.488H218.046C218.7 112.488 219.353 113.145 219.353 113.802C219.353 114.786 218.7 115.115 218.046 115.115Z" fill="#0F282F"/>
<path d="M193.919 124.982H169.841C169.294 124.982 169.02 124.372 169.02 123.762C169.02 122.949 169.43 122.543 169.841 122.543H193.782C194.33 122.543 194.602 123.153 194.602 123.762C194.739 124.372 194.33 124.982 193.919 124.982Z" fill="#45C68B"/>
<path d="M378.084 0.125H252.881C247.021 0.125 242.271 4.87522 242.271 10.7349V171.767C242.271 177.626 247.021 182.377 252.881 182.377H378.084C383.944 182.377 388.694 177.626 388.694 171.767V10.7349C388.694 4.87522 383.944 0.125 378.084 0.125Z" fill="#204955"/>
<path opacity="0.4" d="M315.341 54.404L305.513 54.2438L305.391 32.0026L315.14 31.9414L315.341 54.404Z" fill="#43B580"/>
<path d="M328.584 54.3127L318.534 54.2337L318.371 20.2383L328.199 20.3983L328.584 54.3127Z" fill="#43B580"/>
<path d="M275.311 54.2815L265.261 54.2024L265.098 20.207L274.926 20.3671L275.311 54.2815Z" fill="#43B580"/>
<path d="M354.772 53.9961L345.025 54.0566L344.701 9.35278L354.67 9.21094L354.772 53.9961Z" fill="#43B580"/>
<path d="M301.5 53.9648L291.752 54.0254L291.428 9.32153L301.397 9.17969L301.5 53.9648Z" fill="#43B580"/>
<path opacity="0.4" d="M367.273 53.9277L357.524 53.9888L357.322 41.793L367.372 41.8721L367.273 53.9277Z" fill="#43B580"/>
<path opacity="0.4" d="M341.98 53.9277L332.231 53.9888L332.029 41.793L342.079 41.8721L341.98 53.9277Z" fill="#43B580"/>
<path opacity="0.4" d="M287.707 53.9198L277.958 53.981L277.756 41.7852L287.806 41.8642L287.707 53.9198Z" fill="#43B580"/>
<path d="M365.986 72.3454L264.606 71.8771C263.641 71.98 262.796 71.037 262.693 70.0731C262.591 69.109 263.534 68.2631 264.499 68.1602L365.879 68.6285C366.844 68.5258 367.689 69.4686 367.792 70.4327C367.673 71.4778 366.951 72.2427 365.986 72.3454Z" fill="#2C313D"/>
<path d="M365.824 82.1697L264.442 81.7012C263.478 81.8036 262.632 80.8611 262.529 79.8971C262.428 78.9326 263.371 78.0867 264.335 77.9844L365.715 78.4532C366.68 78.3498 367.526 79.2918 367.628 80.2565C367.731 81.2207 366.868 82.287 365.824 82.1697Z" fill="#2C313D"/>
<path d="M365.882 91.9071L264.501 91.4396C263.537 91.542 262.691 90.5995 262.588 89.6355C262.486 88.671 263.43 87.8251 264.394 87.7227L365.773 88.1907C366.739 88.0887 367.585 89.0307 367.686 89.9953C367.649 91.2604 366.927 92.0258 365.882 91.9071Z" fill="#2C313D"/>
<path d="M302.749 101.484L264.641 101.404C263.677 101.506 262.831 100.564 262.728 99.6003C262.627 98.6357 263.57 97.7898 264.534 97.6875L302.642 97.7675C303.607 97.6647 304.452 98.6076 304.555 99.5717C304.436 100.617 303.714 101.382 302.749 101.484Z" fill="#2C313D"/>
<path opacity="0.3" d="M368.42 118.024L368.517 126.502C368.559 127.99 367.254 129.218 365.767 129.261L344.18 129.146L265.352 128.691C263.865 128.734 262.636 127.431 262.594 125.944L262.497 117.465C262.454 115.978 263.758 114.75 265.246 114.707L343.552 115.103L365.36 115.138C367.23 115.454 368.377 116.537 368.42 118.024Z" fill="#45C68B"/>
<path opacity="0.3" d="M368.238 137.373L368.334 145.851C368.377 147.338 367.072 148.566 365.585 148.611L358.29 148.524L265.472 148.18C263.985 148.223 262.755 146.919 262.713 145.433L262.618 136.954C262.574 135.468 263.879 134.24 265.365 134.195L358.485 134.682L365.561 134.847C367.048 134.804 368.195 135.887 368.238 137.373Z" fill="#45C68B"/>
<path opacity="0.3" d="M368.271 156.647L368.367 165.126C368.409 166.611 367.106 167.84 365.618 167.884L328.475 167.701L265.505 167.453C264.018 167.496 262.789 166.193 262.745 164.706L262.65 156.227C262.606 154.741 263.911 153.513 265.398 153.469L329.856 153.674L365.513 153.9C367 153.857 368.228 155.16 368.271 156.647Z" fill="#45C68B"/>
<path d="M265.397 153.465L329.855 153.671L328.393 167.476L265.422 167.228C263.935 167.271 262.707 165.968 262.663 164.482L262.568 156.003C262.605 154.738 263.91 153.509 265.397 153.465Z" fill="#45C68B"/>
<path d="M262.678 126.171L262.581 117.693C262.538 116.205 263.842 114.977 265.33 114.934L343.636 115.331L343.661 129.093L265.355 128.697C263.868 128.74 262.72 127.657 262.678 126.171Z" fill="#45C68B"/>
<path d="M358.485 134.682L358.29 148.524L265.472 148.18C263.985 148.223 262.755 146.919 262.713 145.433L262.618 136.954C262.574 135.468 263.879 134.24 265.365 134.195L358.485 134.682Z" fill="#45C68B"/>
<path d="M265.365 134.195L284.198 134.315L284.224 148.079L265.391 147.958C263.904 148.001 262.674 146.699 262.632 145.212L262.537 136.732C262.795 135.386 263.878 134.238 265.365 134.195Z" fill="#2C313D"/>
<path d="M265.397 153.465L284.23 153.587L284.256 167.349L265.422 167.228C263.935 167.271 262.707 165.968 262.663 164.482L262.568 156.003C262.605 154.738 263.91 153.509 265.397 153.465Z" fill="#2C313D"/>
<path d="M463.51 0H408.881C403.021 0 398.271 4.75022 398.271 10.6099V171.642C398.271 177.502 403.021 182.252 408.881 182.252H463.51C469.37 182.252 474.12 177.502 474.12 171.642V10.6099C474.12 4.75022 469.37 0 463.51 0Z" fill="#204955"/>
<path d="M436.198 22.5314C440.349 22.5314 443.716 19.1499 443.716 14.9786C443.716 10.8073 440.349 7.42578 436.198 7.42578C432.046 7.42578 428.68 10.8073 428.68 14.9786C428.68 19.1499 432.046 22.5314 436.198 22.5314Z" fill="#0F282F"/>
<path d="M459.893 37.8926H412.175C411.52 37.8926 410.867 37.2358 410.867 36.5791C410.867 35.9223 411.52 35.2656 412.175 35.2656H459.893C460.547 35.2656 461.2 35.9223 461.2 36.5791C461.2 37.2358 460.547 37.8926 459.893 37.8926Z" fill="#0F282F"/>
<path d="M459.893 47.9473H412.175C411.52 47.9473 410.867 47.2905 410.867 46.6338C410.867 45.977 411.52 45.3203 412.175 45.3203H459.893C460.547 45.3203 461.2 45.977 461.2 46.6338C461.2 47.2905 460.547 47.9473 459.893 47.9473Z" fill="#0F282F"/>
<path d="M459.893 63.6312H412.175C411.52 63.6312 410.867 62.9745 410.867 62.3177C410.867 61.3326 411.194 60.6758 412.175 60.6758H459.893C460.547 60.6758 461.2 61.3326 461.2 61.9893C461.2 62.9745 460.547 63.6312 459.893 63.6312Z" fill="#0F282F"/>
<path d="M429.824 74.014H411.847C411.52 74.014 410.867 73.6856 410.867 73.0289V72.0437C410.867 71.7154 411.194 71.0586 411.847 71.0586H429.497C429.824 71.0586 430.477 71.387 430.477 72.0437V73.0289C430.477 73.6856 430.15 74.014 429.824 74.014Z" fill="#0F282F"/>
<path d="M459.893 89.3731H412.175C411.52 89.3731 410.867 88.7164 410.867 88.0596C410.867 87.4028 411.52 86.7461 412.175 86.7461H459.893C460.547 86.7461 461.2 87.4028 461.2 88.0596C461.2 88.7164 460.547 89.3731 459.893 89.3731Z" fill="#0F282F"/>
<path d="M429.824 99.7567H411.847C411.52 99.7567 410.867 99.4278 410.867 98.771V97.7864C410.867 97.4575 411.194 96.8008 411.847 96.8008H429.497C429.824 96.8008 430.477 97.1297 430.477 97.7864V98.771C430.477 99.4278 430.15 99.7567 429.824 99.7567Z" fill="#0F282F"/>
<path d="M459.893 115.115H412.175C411.52 115.115 410.867 114.459 410.867 113.802C410.867 113.145 411.52 112.488 412.175 112.488H459.893C460.547 112.488 461.2 113.145 461.2 113.802C461.2 114.786 460.547 115.115 459.893 115.115Z" fill="#0F282F"/>
<path d="M435.766 124.982H411.688C411.141 124.982 410.867 124.372 410.867 123.762C410.867 122.949 411.278 122.543 411.688 122.543H435.629C436.177 122.543 436.45 123.153 436.45 123.762C436.586 124.372 436.177 124.982 435.766 124.982Z" fill="#45C68B"/>
<path d="M619.935 0H494.731C488.872 0 484.121 4.75022 484.121 10.6099V171.642C484.121 177.502 488.872 182.252 494.731 182.252H619.935C625.794 182.252 630.545 177.502 630.545 171.642V10.6099C630.545 4.75022 625.794 0 619.935 0Z" fill="#204955"/>
<path d="M613.941 18.55H499.875C498.568 18.55 497.914 17.5648 497.914 16.5797C497.914 15.2662 498.895 14.6094 499.875 14.6094H613.615C614.923 14.6094 615.576 15.5946 615.576 16.5797C615.903 17.5648 614.923 18.55 613.941 18.55Z" fill="#0F282F"/>
<path d="M613.941 30.9796H499.875C498.568 30.9796 497.914 29.9945 497.914 29.0093C497.914 27.6958 498.895 27.0391 499.875 27.0391H613.615C614.923 27.0391 615.576 28.0242 615.576 29.0093C615.903 29.9945 614.923 30.9796 613.941 30.9796Z" fill="#0F282F"/>
<path d="M557.399 43.4094H499.875C498.568 43.4094 497.914 42.4241 497.914 41.4389C497.914 40.1254 498.895 39.4688 499.875 39.4688H557.072C558.379 39.4688 559.033 40.4538 559.033 41.4389C559.36 42.4241 558.379 43.4094 557.399 43.4094Z" fill="#45C68B"/>
<path d="M610.347 136.42H502.49C499.875 136.42 497.914 134.45 497.914 131.823V62.8628C497.914 60.2358 499.875 58.2656 502.49 58.2656H610.02C612.634 58.2656 614.596 60.2358 614.596 62.8628V131.823C614.923 134.45 612.961 136.42 610.347 136.42Z" fill="#0F282F"/>
<path d="M581.912 155.21H499.875C498.568 155.21 497.914 154.225 497.914 153.24C497.914 151.926 498.895 151.27 499.875 151.27H581.912C583.219 151.27 583.873 152.255 583.873 153.24C583.873 154.225 582.893 155.21 581.912 155.21Z" fill="#0F282F"/>
<path d="M614.076 155.068H589.999C589.452 155.068 589.178 154.154 589.178 153.239C589.178 152.02 589.589 151.41 589.999 151.41H613.939C614.487 151.41 614.761 152.325 614.761 153.239C614.897 154.154 614.487 155.068 614.076 155.068Z" fill="#45C68B"/>
<path d="M613.941 167.64H499.875C498.568 167.64 497.914 166.655 497.914 165.669C497.914 164.356 498.895 163.699 499.875 163.699H613.615C614.923 163.699 615.576 164.685 615.576 165.669C615.903 166.655 614.923 167.64 613.941 167.64Z" fill="#0F282F"/>
<defs>
<linearGradient id="paint0_linear_2359_285" x1="23.5408" y1="105.864" x2="112.824" y2="141.787" gradientUnits="userSpaceOnUse">
<stop stop-color="#0F282F"/>
<stop offset="1" stop-color="#43B580"/>
</linearGradient>
<linearGradient id="paint1_linear_2359_285" x1="23.5649" y1="124.139" x2="112.849" y2="160.062" gradientUnits="userSpaceOnUse">
<stop stop-color="#0F282F" stop-opacity="0.46"/>
<stop offset="1" stop-color="#43B580"/>
</linearGradient>
<linearGradient id="paint2_linear_2359_285" x1="23.5894" y1="142.416" x2="112.874" y2="178.34" gradientUnits="userSpaceOnUse">
<stop stop-color="#0F282F"/>
<stop offset="1" stop-color="#43B580"/>
</linearGradient>
<linearGradient id="paint3_linear_2359_285" x1="18.2794" y1="124.044" x2="30.3849" y2="124.044" gradientUnits="userSpaceOnUse">
<stop stop-color="#56DC9E"/>
<stop offset="1" stop-color="#3DAB79"/>
</linearGradient>
<linearGradient id="paint4_linear_2359_285" x1="18.6165" y1="142.235" x2="49.3495" y2="142.235" gradientUnits="userSpaceOnUse">
<stop stop-color="#56DC9E"/>
<stop offset="1" stop-color="#3DAB79"/>
</linearGradient>
<linearGradient id="paint5_linear_2359_285" x1="18.1597" y1="160.513" x2="24.7074" y2="160.513" gradientUnits="userSpaceOnUse">
<stop stop-color="#56DC9E"/>
<stop offset="1" stop-color="#3DAB79"/>
</linearGradient>
</defs>
</svg>
