<svg width="360" height="197" viewBox="0 0 360 197" fill="none" xmlns="http://www.w3.org/2000/svg">
<g clip-path="url(#clip0_2359_683)">
<path d="M179.258 175.399C221.317 175.399 255.411 141.686 255.411 100.1C255.411 58.5131 221.317 24.8008 179.258 24.8008C137.2 24.8008 103.105 58.5131 103.105 100.1C103.105 141.686 137.2 175.399 179.258 175.399Z" fill="#45C68B"/>
<path d="M206.439 19.2224C207.127 18.6011 207.174 17.5465 206.546 16.8667C205.917 16.1869 204.851 16.1396 204.164 16.7607C203.476 17.3819 203.429 18.4365 204.057 19.1163C204.685 19.796 205.752 19.8436 206.439 19.2224Z" fill="#2A2E37"/>
<path fill-rule="evenodd" clip-rule="evenodd" d="M175.63 174.95C175.734 173.639 176.213 172.387 177.37 171.255C178.502 170.149 179.634 169.043 180.765 167.57C183.45 164.618 186.434 165.459 189.981 166.459C190.422 166.583 190.871 166.71 191.329 166.831C196.63 168.051 198.321 163.729 200.88 157.195C201.417 155.825 201.992 154.357 202.646 152.822C204.936 148.344 201.547 146.364 197.9 144.233C197.343 143.907 196.782 143.579 196.233 143.237C193.014 141.351 193.09 138.39 193.183 134.815C193.198 134.199 193.215 133.565 193.215 132.915C192.862 129.121 195.728 127.424 198.493 125.788C201.639 123.925 204.653 122.14 202.646 117.431C202.154 116.277 201.701 115.168 201.271 114.114C198.397 107.08 196.528 102.507 190.951 103.79C190.457 103.921 189.975 104.058 189.503 104.192C186 105.184 183.047 106.02 180.388 103.421C179.651 102.61 178.89 101.91 178.174 101.249C175.958 99.2065 174.159 97.5476 174.729 94.2047C177.074 84.3839 176.445 84.1555 165.974 80.356C164.652 79.8766 163.174 79.3403 161.526 78.7206C156.709 76.9554 154.989 79.8854 153.184 82.9589C151.596 85.6632 149.943 88.4785 146.058 88.306C145.175 88.306 144.321 88.348 143.501 88.3883C140.117 88.555 137.317 88.6929 135.495 85.7254C130.109 77.1714 129.529 77.4254 119.011 82.033C117.743 82.5886 116.33 83.2075 114.747 83.882C109.564 86.0525 110.92 90.353 112.398 95.0419C112.427 95.1314 112.455 95.2209 112.483 95.3106C113.379 98.8113 111.44 100.696 109.096 102.974C108.478 103.575 107.832 104.203 107.202 104.896C106.085 106.143 104.8 106.665 103.436 106.796C106.925 143.898 137.637 173.19 175.63 174.95ZM136.25 155.773C147.19 159.828 159.639 154.667 163.789 143.974C167.939 133.283 162.657 121.117 151.717 117.062C140.777 113.006 128.328 118.168 124.178 128.859C120.028 139.551 125.31 151.716 136.25 155.773Z" fill="url(#paint0_linear_2359_683)"/>
<path d="M231.87 75.2149C231.574 70.8099 232.167 67.8733 229.204 67.5796C227.13 67.2859 225.65 67.5796 224.761 65.8176C223.872 64.0555 222.687 62.5872 223.872 61.1189C226.834 56.7137 225.946 57.0074 220.911 52.3088C217.653 49.3721 216.171 55.5391 212.913 54.0708C211.136 53.1899 209.358 53.1899 208.766 51.1341C207.581 46.1418 207.581 46.7291 200.472 47.0227C197.807 47.0227 197.807 49.3721 197.807 51.7214C197.51 53.7771 196.029 54.0708 193.956 54.9517C190.697 56.7137 188.624 50.8404 185.662 54.0708C184.181 55.5391 182.996 57.0074 181.811 58.7695C180.923 61.1189 182.996 61.7061 184.181 63.7618C184.181 63.7618 184.181 63.7618 184.181 64.0555C184.477 64.6429 184.181 65.2302 184.181 65.8176C184.181 66.1113 183.885 66.6985 183.885 66.9922C183.292 68.4605 183.292 69.6353 181.515 69.9288C176.479 70.8099 177.072 71.1036 177.368 78.1516C177.664 82.5567 182.996 79.3264 184.477 82.5567C185.07 83.7313 186.254 85.4934 185.662 86.668C185.366 87.8426 184.181 88.7237 183.885 89.8983C182.404 92.5415 185.07 94.0098 187.736 96.359C190.994 99.2957 192.474 93.1287 195.732 94.597C199.584 96.0653 199.287 95.1844 200.175 99.5894C200.769 102.526 204.323 101.645 208.173 101.351C212.616 101.058 209.358 95.7718 212.616 94.3033C213.209 94.0098 214.098 93.7161 214.69 93.4224C216.468 92.5415 217.653 93.7161 219.429 94.597C222.096 96.359 223.576 93.7161 226.539 90.192C228.315 88.1363 226.539 86.668 225.057 84.906C223.872 83.4376 224.761 81.9693 225.354 79.9136C226.539 76.9769 232.167 79.6199 231.87 75.2149ZM211.431 80.7947C207.878 84.6123 201.953 85.1997 197.807 81.6756C193.956 78.1516 193.364 72.2783 196.917 68.1668C200.472 64.3492 206.397 63.7618 210.543 67.2859C214.394 70.8099 214.986 76.6832 211.431 80.7947Z" fill="url(#paint1_linear_2359_683)"/>
<path d="M86.8462 98.6417C83.9537 100.043 82.751 103.491 84.1598 106.344C85.5687 109.196 89.0556 110.373 91.9481 108.971C94.8406 107.57 96.0433 104.122 94.6345 101.269C93.2257 98.4168 89.7387 97.2403 86.8462 98.6417Z" fill="#0F282F"/>
<path d="M200.072 182.306C197.956 182.371 196.287 184.116 196.345 186.206C196.401 188.295 198.164 189.938 200.28 189.875C202.396 189.811 204.065 188.065 204.007 185.976C203.949 183.886 202.188 182.244 200.072 182.306Z" fill="#0F282F"/>
<path d="M188.508 191.853C187.069 191.896 185.935 193.083 185.974 194.504C186.013 195.926 187.21 197.042 188.649 196.999C190.088 196.955 191.223 195.769 191.183 194.347C191.145 192.926 189.947 191.809 188.508 191.853Z" fill="#0F282F"/>
<path d="M79.0981 123.085C77.8801 123.675 77.3738 125.127 77.967 126.328C78.5601 127.529 80.0284 128.024 81.2462 127.434C82.4641 126.844 82.9705 125.392 82.3772 124.191C81.7842 122.99 80.3159 122.495 79.0981 123.085Z" fill="#0F282F"/>
<path d="M128.292 174.191C127.455 174.596 127.107 175.596 127.514 176.421C127.922 177.248 128.932 177.588 129.77 177.182C130.608 176.777 130.956 175.778 130.548 174.952C130.14 174.125 129.13 173.785 128.292 174.191Z" fill="#2A2E37"/>
<g filter="url(#filter0_d_2359_683)">
<path d="M189.106 21.5623L172.175 39.3002C166.917 44.7381 158.516 45.3733 153.276 40.6103C148.036 35.8475 147.953 27.691 153.211 22.2531L170.142 4.5151C175.4 -0.92285 183.8 -1.55792 189.04 3.20491C194.332 7.82318 194.364 16.1242 189.106 21.5623Z" fill="#5E6882"/>
</g>
<path d="M185.441 19.5031C188.659 16.0514 188.391 10.6054 184.844 7.33921C181.296 4.07281 175.811 4.22303 172.593 7.6746C169.375 11.1263 169.642 16.5723 173.19 19.8387C176.737 23.1049 182.222 22.9547 185.441 19.5031Z" fill="#2A2E37"/>
<g filter="url(#filter1_d_2359_683)">
<path d="M130.811 46.0257L125.847 50.612C125.256 51.1446 124.333 51.3292 123.539 51.0734L117.64 49.2677C116.846 49.0118 116.182 48.3155 116.093 47.5317L114.682 41.6773C114.479 40.8888 114.737 40.0078 115.328 39.475L120.292 34.8889C120.647 34.5692 120.669 33.9014 120.336 33.5533C120.225 33.4371 120 33.3164 119.771 33.3068C115.323 32.6762 110.923 34.0537 107.734 36.9304C103.715 40.6641 102.154 46.2835 103.701 51.4747L70.272 81.7383C67.4337 84.4067 67.1759 88.7427 69.945 91.6441C72.6033 94.4295 77.0663 94.6152 79.7866 92.0532L113.57 61.47C118.561 63.0149 123.988 61.7915 127.771 58.2709C131.078 55.2876 132.709 51.0086 132.391 46.7601C132.409 46.2037 131.848 45.8459 131.39 45.8269C131.162 45.8173 131.043 45.9239 130.811 46.0257ZM73.9681 87.799C72.9712 86.7544 73.0264 85.0849 74.0894 84.1261C75.1524 83.1672 76.7546 83.2338 77.7514 84.2783C78.7483 85.3229 78.6931 86.9924 77.6301 87.9512C76.5671 88.9101 74.965 88.8436 73.9681 87.799C73.9645 87.9104 73.9645 87.9104 73.9681 87.799Z" fill="#204955"/>
</g>
<path opacity="0.4" d="M103.519 57.6992L78.8359 79.6969" stroke="#2A2E37" stroke-miterlimit="10"/>
<path opacity="0.4" d="M107.473 61.7656L82.6758 83.7569" stroke="#2A2E37" stroke-miterlimit="10"/>
<path d="M269.581 49.9272C269.062 49.6021 268.286 49.6164 267.549 49.9091C266.273 50.7415 264.653 50.3532 263.855 49.2246C263.467 48.7298 263.359 48.0345 263.576 47.4169C263.794 46.7993 263.534 46.1348 262.865 45.8403L261.482 44.9735L259.274 47.8592L233.016 31.3892C232.671 31.1725 232.454 30.7859 232.411 30.5079L232.305 29.8127C232.218 29.2565 231.853 28.9006 231.357 28.7147L224.573 26.2188L221.062 30.8019L226.027 35.6743C226.394 36.03 226.89 36.216 227.495 36.0932L228.254 35.9397C228.707 35.8477 229.032 35.9254 229.378 36.1421L255.635 52.612L253.426 55.4977L254.809 56.3647C255.326 56.6897 256.104 56.6754 256.688 56.4135C257.964 55.581 259.586 55.9692 260.383 57.098C260.772 57.5927 260.879 58.2881 260.662 58.9057C260.444 59.5233 260.855 60.1571 261.372 60.4822L280.202 72.2929C283.139 74.135 287.529 73.2449 289.739 70.3591C289.739 70.3591 289.868 70.1894 289.847 70.0504C291.884 67.0564 291.154 63.3326 288.218 61.4907L269.581 49.9272Z" fill="#204955"/>
<path opacity="0.4" d="M265.299 58.4688L279.466 67.7082" stroke="#2A2E37" stroke-miterlimit="10"/>
<path opacity="0.4" d="M267.717 55.0742L281.883 64.3136" stroke="#2A2E37" stroke-miterlimit="10"/>
<g filter="url(#filter2_d_2359_683)">
<path d="M253.519 100.324L220.314 120.569C218.508 121.67 217.961 123.968 219.08 125.742L239.685 158.37C240.805 160.144 243.144 160.682 244.948 159.582L278.155 139.336C279.959 138.236 280.506 135.937 279.387 134.164L258.784 101.536C257.664 99.7624 255.325 99.2241 253.519 100.324Z" fill="#5E6882"/>
</g>
<path d="M255.943 113.459L245.926 119.565C244.153 117.945 241.611 117.284 239.29 117.962C235.718 119.035 233.736 122.822 234.918 126.277L231.759 128.202C230.948 128.697 230.673 129.847 231.178 130.645C231.738 131.532 232.907 131.801 233.72 131.306L236.877 129.38C238.538 130.823 240.822 131.273 242.872 130.76C246.466 129.92 248.651 126.254 247.796 122.723L257.902 116.562C258.714 116.067 258.988 114.917 258.485 114.119C258.014 113.178 256.845 112.908 255.943 113.459ZM244.323 124.349C244.367 124.814 244.264 125.245 244.014 125.642C243.891 125.841 243.856 125.985 243.675 126.095C243.461 126.348 243.336 126.547 243.065 126.712C241.678 127.681 239.833 127.332 238.847 125.969C238.791 125.88 238.791 125.88 238.735 125.791C237.839 124.373 238.341 122.594 239.695 121.768C241.048 120.943 242.802 121.347 243.733 122.622C244.068 123.154 244.314 123.741 244.323 124.349ZM265.853 129.152L262.785 131.023C261.011 129.402 258.469 128.741 256.148 129.42C252.577 130.492 250.684 134.225 251.775 137.734L241.669 143.896C240.767 144.446 240.493 145.596 241.053 146.482C241.613 147.368 242.782 147.637 243.684 147.087L253.79 140.926C255.453 142.369 257.645 142.874 259.787 142.306C263.379 141.466 265.564 137.801 264.709 134.27L267.868 132.344C268.77 131.794 269.044 130.644 268.484 129.758C267.924 128.871 266.755 128.602 265.853 129.152ZM260.667 134.4C261.116 135.11 261.09 135.862 260.92 136.58C260.885 136.724 260.762 136.923 260.727 137.066C260.602 137.265 260.568 137.409 260.444 137.607C260.319 137.806 260.229 137.861 260.104 138.06C260.013 138.115 259.923 138.17 259.834 138.225C259.744 138.28 259.653 138.335 259.563 138.39C259.382 138.5 259.202 138.61 258.965 138.631C258.875 138.686 258.786 138.741 258.638 138.707C257.478 139.047 256.051 138.566 255.322 137.414C254.65 136.35 254.723 135.078 255.401 134.173C255.616 133.92 255.74 133.721 256.011 133.556C256.101 133.501 256.191 133.446 256.282 133.391C257.725 132.511 259.536 133.003 260.375 134.333C260.702 134.257 260.759 134.345 260.667 134.4Z" fill="#2A2E37"/>
</g>
<defs>
<filter id="filter0_d_2359_683" x="145.307" y="0" width="51.7227" height="51.8164" filterUnits="userSpaceOnUse" color-interpolation-filters="sRGB">
<feFlood flood-opacity="0" result="BackgroundImageFix"/>
<feColorMatrix in="SourceAlpha" type="matrix" values="0 0 0 0 0 0 0 0 0 0 0 0 0 0 0 0 0 0 127 0" result="hardAlpha"/>
<feOffset dy="4"/>
<feGaussianBlur stdDeviation="2"/>
<feComposite in2="hardAlpha" operator="out"/>
<feColorMatrix type="matrix" values="0 0 0 0 0 0 0 0 0 0 0 0 0 0 0 0 0 0 0.25 0"/>
<feBlend mode="normal" in2="BackgroundImageFix" result="effect1_dropShadow_2359_683"/>
<feBlend mode="normal" in="SourceGraphic" in2="effect1_dropShadow_2359_683" result="shape"/>
</filter>
<filter id="filter1_d_2359_683" x="46" y="22.1562" width="108.43" height="104.703" filterUnits="userSpaceOnUse" color-interpolation-filters="sRGB">
<feFlood flood-opacity="0" result="BackgroundImageFix"/>
<feColorMatrix in="SourceAlpha" type="matrix" values="0 0 0 0 0 0 0 0 0 0 0 0 0 0 0 0 0 0 127 0" result="hardAlpha"/>
<feOffset dy="11"/>
<feGaussianBlur stdDeviation="11"/>
<feColorMatrix type="matrix" values="0 0 0 0 0 0 0 0 0 0 0 0 0 0 0 0 0 0 0.27 0"/>
<feBlend mode="normal" in2="BackgroundImageFix" result="effect1_dropShadow_2359_683"/>
<feBlend mode="normal" in="SourceGraphic" in2="effect1_dropShadow_2359_683" result="shape"/>
</filter>
<filter id="filter2_d_2359_683" x="214.5" y="99.7539" width="69.4668" height="68.3984" filterUnits="userSpaceOnUse" color-interpolation-filters="sRGB">
<feFlood flood-opacity="0" result="BackgroundImageFix"/>
<feColorMatrix in="SourceAlpha" type="matrix" values="0 0 0 0 0 0 0 0 0 0 0 0 0 0 0 0 0 0 127 0" result="hardAlpha"/>
<feOffset dy="4"/>
<feGaussianBlur stdDeviation="2"/>
<feComposite in2="hardAlpha" operator="out"/>
<feColorMatrix type="matrix" values="0 0 0 0 0 0 0 0 0 0 0 0 0 0 0 0 0 0 0.25 0"/>
<feBlend mode="normal" in2="BackgroundImageFix" result="effect1_dropShadow_2359_683"/>
<feBlend mode="normal" in="SourceGraphic" in2="effect1_dropShadow_2359_683" result="shape"/>
</filter>
<linearGradient id="paint0_linear_2359_683" x1="153.413" y1="78.1876" x2="153.413" y2="174.95" gradientUnits="userSpaceOnUse">
<stop stop-color="#0F282F"/>
<stop offset="1" stop-color="#43B580"/>
</linearGradient>
<linearGradient id="paint1_linear_2359_683" x1="204.531" y1="46.8359" x2="204.531" y2="101.706" gradientUnits="userSpaceOnUse">
<stop stop-color="#112E32"/>
<stop offset="1" stop-color="#3EA778"/>
</linearGradient>
<clipPath id="clip0_2359_683">
<rect width="360" height="197" fill="white"/>
</clipPath>
</defs>
</svg>
