<svg width="360" height="196" viewBox="0 0 360 196" fill="none" xmlns="http://www.w3.org/2000/svg">
<path d="M121.253 88.6228C120.193 88.6228 119.557 87.9902 119.557 86.9346C119.557 85.8792 120.193 85.2461 121.253 85.2461C122.313 85.2461 122.949 85.8792 122.949 86.9346C122.949 87.9902 122.101 88.6228 121.253 88.6228Z" fill="#43B580"/>
<path d="M121.253 124.502C120.193 124.502 119.557 123.869 119.557 122.814C119.557 121.759 120.193 121.125 121.253 121.125C122.313 121.125 122.949 121.759 122.949 122.814C122.949 123.869 122.101 124.502 121.253 124.502Z" fill="#43B580"/>
<path d="M61.0251 33.3242H60.6009C59.7526 33.3242 58.9043 33.9574 58.9043 35.0127C58.9043 36.0681 59.5406 36.7012 60.6009 36.7012H61.0251C61.8733 36.7012 62.7216 36.0681 62.7216 35.0127C62.7216 33.9574 61.8733 33.3242 61.0251 33.3242Z" fill="url(#paint0_linear_2359_555)"/>
<path d="M54.2397 33.3242H53.8156C52.9673 33.3242 52.1191 33.9574 52.1191 35.0127C52.1191 36.0681 52.7552 36.7012 53.8156 36.7012H54.2397C55.0881 36.7012 55.9364 36.0681 55.9364 35.0127C55.9364 33.9574 55.0881 33.3242 54.2397 33.3242Z" fill="url(#paint1_linear_2359_555)"/>
<path d="M67.8103 33.3242H67.3862C66.5379 33.3242 65.6895 33.9574 65.6895 34.8016C65.6895 35.6459 66.3258 36.4902 67.174 36.4902H67.5982C67.5982 36.4902 67.5982 36.4902 67.8103 36.4902C68.6585 36.4902 69.2948 35.857 69.2948 35.0127C69.2948 34.1685 68.6585 33.5352 67.8103 33.3242Z" fill="url(#paint2_linear_2359_555)"/>
<path d="M82.6568 54.0088C82.6568 53.1646 82.0206 52.3203 80.9603 52.3203C79.8999 52.3203 79.2637 52.9535 79.2637 54.0088V54.4309C79.2637 55.2752 79.8999 56.1194 80.9603 56.1194C82.0206 56.1194 82.6568 55.4863 82.6568 54.4309V54.0088Z" fill="url(#paint3_linear_2359_555)"/>
<path d="M79.8995 40.7123L79.6874 40.2902C79.2632 39.657 78.2029 39.4459 77.5666 39.868C76.9305 40.2902 76.7184 41.3455 77.1425 41.9787L77.3546 42.4008C77.5666 42.8229 78.2029 43.034 78.627 43.034C78.8391 43.034 79.2632 43.034 79.4754 42.8229C80.3236 42.4008 80.5357 41.5566 79.8995 40.7123Z" fill="url(#paint4_linear_2359_555)"/>
<path d="M80.9603 59.0742C80.1119 59.0742 79.2637 59.7075 79.2637 60.7628V61.1849C79.2637 62.0292 79.8999 62.8734 80.9603 62.8734C82.0206 62.8734 82.6568 62.0292 82.6568 61.1849V60.7628C82.6568 59.7075 81.8086 59.0742 80.9603 59.0742Z" fill="url(#paint5_linear_2359_555)"/>
<path d="M47.6638 33.3242H47.2397C46.3914 33.3242 45.543 33.9574 45.543 35.0127C45.543 36.0681 46.1793 36.7012 47.2397 36.7012H47.6638C48.5121 36.7012 49.3604 36.0681 49.3604 35.0127C49.3604 33.9574 48.5121 33.3242 47.6638 33.3242Z" fill="url(#paint6_linear_2359_555)"/>
<path d="M74.8097 35.641L74.3856 35.4299C73.5372 35.0077 72.689 35.2188 72.2648 36.0631C71.8407 36.9073 72.0527 37.7516 72.9011 38.1737L73.1131 38.3848C73.3252 38.5959 73.7493 38.5959 73.9614 38.5959C74.5976 38.5959 75.0217 38.3848 75.2338 37.7516C75.658 37.1184 75.4459 36.0631 74.8097 35.641Z" fill="url(#paint7_linear_2359_555)"/>
<path d="M84.5644 79.337C84.1402 78.7038 83.0799 78.4928 82.4437 78.9149C81.8074 79.337 81.5954 80.3924 82.0195 81.0255L82.2316 81.4476C82.4437 81.8698 83.0799 82.0809 83.504 82.0809C83.7161 82.0809 84.1402 82.0809 84.3523 81.8698C84.9885 81.4476 85.2006 80.3924 84.7764 79.7591L84.5644 79.337Z" fill="url(#paint8_linear_2359_555)"/>
<path d="M89.2292 83.5558L89.0171 83.3447C88.1689 82.9225 87.3205 83.1336 86.8964 83.7668C86.4723 84.611 86.6843 85.4554 87.3205 85.8775L87.7446 86.0885C87.9568 86.2996 88.1689 86.2996 88.593 86.2996C89.2292 86.2996 89.6534 86.0885 90.0775 85.4554C90.2895 85.0332 89.8654 83.9779 89.2292 83.5558Z" fill="url(#paint9_linear_2359_555)"/>
<path d="M94.7437 85.2461H94.3196C93.4713 85.2461 92.623 85.8793 92.623 86.7236C92.623 87.568 93.2592 88.4121 94.1075 88.4121H94.5316C94.5316 88.4121 94.5316 88.4121 94.7437 88.4121C95.592 88.4121 96.2282 87.7786 96.2282 86.9346C96.4403 86.0903 95.8041 85.4572 94.7437 85.2461Z" fill="url(#paint10_linear_2359_555)"/>
<path d="M80.9603 49.3633C82.0207 49.1522 82.6569 48.519 82.4448 47.6747V47.2526C82.2328 46.4084 81.5966 45.7751 80.5362 45.9862C79.6879 46.1973 79.0517 46.8305 79.2638 47.8858V48.308C79.4758 48.7301 80.1121 49.3633 80.9603 49.3633Z" fill="url(#paint11_linear_2359_555)"/>
<path d="M82.6557 74.0598V73.6376C82.6557 72.7933 81.8074 72.1602 80.9591 72.1602C80.1108 72.1602 79.4746 73.0044 79.4746 73.8487C79.4746 74.0598 79.4746 74.2708 79.4746 74.2708C79.6867 75.115 80.3228 75.5372 80.9591 75.5372H81.1712C82.2315 75.7483 82.8677 74.904 82.6557 74.0598Z" fill="url(#paint12_linear_2359_555)"/>
<path d="M80.9603 69.4163C81.8086 69.4163 82.6568 68.7832 82.6568 67.7278V67.3057C82.6568 66.4614 82.0206 65.6172 80.9603 65.6172C79.8999 65.6172 79.2637 66.2503 79.2637 67.3057V67.7278C79.4758 68.5721 80.1119 69.4163 80.9603 69.4163Z" fill="url(#paint13_linear_2359_555)"/>
<path d="M40.6652 33.3242C39.8169 33.3242 38.9688 33.9574 38.9688 35.0127C38.9688 36.0681 39.6049 36.7012 40.6652 36.7012H40.8773C41.7256 36.7012 42.3619 36.0681 42.3619 35.0127C42.3619 33.9574 41.5135 33.3242 40.6652 33.3242Z" fill="url(#paint14_linear_2359_555)"/>
<path d="M121.253 85.457H114.679H114.254H107.892H107.468H101.318H100.894C100.046 85.457 99.1973 86.0902 99.1973 87.1455C99.1973 88.2005 99.8335 88.834 100.894 88.834H101.318H107.468H108.104H114.466H114.891H121.465C122.313 88.834 123.162 88.2005 123.162 87.1455C123.162 86.0902 122.101 85.457 121.253 85.457Z" fill="url(#paint15_linear_2359_555)"/>
<path d="M121.253 105.932C120.193 105.932 119.557 105.3 119.557 104.244C119.557 103.188 120.193 102.555 121.253 102.555C122.313 102.555 122.949 103.188 122.949 104.244C122.949 105.3 122.101 105.932 121.253 105.932Z" fill="#35966F"/>
<path d="M65.6892 102.766H65.265C64.4168 102.766 63.5684 103.398 63.5684 104.454C63.5684 105.509 64.2047 106.142 65.265 106.142H65.6892C66.5374 106.142 67.3858 105.509 67.3858 104.454C67.3858 103.398 66.5374 102.766 65.6892 102.766Z" fill="url(#paint16_linear_2359_555)"/>
<path d="M72.689 102.766H72.2649C71.4167 102.766 70.5684 103.398 70.5684 104.454C70.5684 105.509 71.2045 106.142 72.2649 106.142H72.689C73.5374 106.142 74.3857 105.509 74.3857 104.454C74.3857 103.398 73.5374 102.766 72.689 102.766Z" fill="url(#paint17_linear_2359_555)"/>
<path d="M58.6911 102.766H58.2669C57.4186 102.766 56.5703 103.398 56.5703 104.454C56.5703 105.509 57.2066 106.142 58.2669 106.142H58.6911C59.5393 106.142 60.3876 105.509 60.3876 104.454C60.3876 103.398 59.5393 102.766 58.6911 102.766Z" fill="url(#paint18_linear_2359_555)"/>
<path d="M51.6931 102.766H51.269C50.4207 102.766 49.5723 103.398 49.5723 104.454C49.5723 105.509 50.2086 106.142 51.269 106.142H51.6931C52.5413 106.142 53.3897 105.509 53.3897 104.454C53.3897 103.398 52.5413 102.766 51.6931 102.766Z" fill="url(#paint19_linear_2359_555)"/>
<path d="M44.6949 102.766H44.2708C43.4225 102.766 42.5742 103.398 42.5742 104.454C42.5742 105.509 43.2104 106.142 44.2708 106.142H44.6949C45.5433 106.142 46.3915 105.509 46.3915 104.454C46.3915 103.398 45.7553 102.766 44.6949 102.766Z" fill="url(#paint20_linear_2359_555)"/>
<path d="M93.6852 102.766H93.2611C92.4128 102.766 91.5645 103.398 91.5645 104.454C91.5645 105.509 92.2007 106.142 93.2611 106.142H93.6852C94.5335 106.142 95.3818 105.509 95.3818 104.454C95.3818 103.398 94.5335 102.766 93.6852 102.766Z" fill="url(#paint21_linear_2359_555)"/>
<path d="M79.6871 102.766H79.263C78.4146 102.766 77.5664 103.398 77.5664 104.454C77.5664 105.509 78.2026 106.142 79.263 106.142H79.6871C80.5354 106.142 81.3837 105.509 81.3837 104.454C81.3837 103.398 80.5354 102.766 79.6871 102.766Z" fill="url(#paint22_linear_2359_555)"/>
<path d="M86.6851 102.766H86.261C85.4127 102.766 84.5645 103.398 84.5645 104.454C84.5645 105.509 85.2006 106.142 86.261 106.142H86.6851C87.5335 106.142 88.3817 105.509 88.3817 104.454C88.3817 103.398 87.5335 102.766 86.6851 102.766Z" fill="url(#paint23_linear_2359_555)"/>
<path d="M37.9086 102.766H37.6966C36.8483 102.766 36 103.398 36 104.454C36 105.509 36.6362 106.142 37.6966 106.142H37.9086C38.7569 106.142 39.6052 105.509 39.6052 104.454C39.6052 103.398 38.7569 102.766 37.9086 102.766Z" fill="url(#paint24_linear_2359_555)"/>
<path d="M121.252 102.766H114.466H114.042H107.468H107.043H101.105H100.893H100.681H100.257C99.4088 102.766 98.5605 103.398 98.5605 104.454C98.5605 105.509 99.1968 106.142 100.257 106.142H100.681H100.893H101.105H107.043H107.468H114.042H114.466H121.252C122.101 106.142 122.949 105.509 122.949 104.454C122.949 103.398 122.101 102.766 121.252 102.766Z" fill="url(#paint25_linear_2359_555)"/>
<path d="M73.1131 171.57L72.9011 171.782C72.0527 172.204 71.8407 173.259 72.2648 173.893C72.4769 174.315 73.1131 174.737 73.7493 174.737C73.9614 174.737 74.1735 174.737 74.5976 174.525L75.0217 174.315C75.8701 173.893 76.0821 172.837 75.4459 172.204C74.8097 171.36 73.7493 170.937 73.1131 171.57Z" fill="url(#paint26_linear_2359_555)"/>
<path d="M67.3871 173.262H66.963C66.1147 173.262 65.4785 174.106 65.4785 174.951C65.4785 175.795 66.3268 176.428 66.963 176.428H67.3871C68.2355 176.428 68.8716 175.583 68.8716 174.739C69.0837 173.895 68.2355 173.262 67.3871 173.262Z" fill="url(#paint27_linear_2359_555)"/>
<path d="M81.1713 160.384C80.3229 160.173 79.4747 160.806 79.4747 161.862V162.284C79.2626 163.128 79.8988 163.972 80.7471 164.184H80.9592C81.8074 164.184 82.4437 163.55 82.4437 162.917V162.495C82.6558 161.44 82.0196 160.595 81.1713 160.384Z" fill="url(#paint28_linear_2359_555)"/>
<path d="M61.0251 173.469H60.6009C59.7526 173.469 58.9043 174.102 58.9043 175.158C58.9043 176.212 59.5406 176.846 60.6009 176.846H61.0251C61.8733 176.846 62.7216 176.212 62.7216 175.158C62.7216 174.102 61.8733 173.469 61.0251 173.469Z" fill="url(#paint29_linear_2359_555)"/>
<path d="M80.9603 153.844C80.1119 153.844 79.2637 154.477 79.2637 155.532V155.955C79.2637 156.799 79.8999 157.643 80.9603 157.643C82.0206 157.643 82.6568 157.01 82.6568 155.955V155.532C82.6568 154.477 81.8086 153.844 80.9603 153.844Z" fill="url(#paint30_linear_2359_555)"/>
<path d="M47.6638 173.469H47.2397C46.3914 173.469 45.543 174.102 45.543 175.158C45.543 176.212 46.1793 176.846 47.2397 176.846H47.6638C48.5121 176.846 49.3604 176.212 49.3604 175.158C49.3604 174.102 48.5121 173.469 47.6638 173.469Z" fill="url(#paint31_linear_2359_555)"/>
<path d="M54.2397 173.469H53.8156C52.9673 173.469 52.1191 174.102 52.1191 175.158C52.1191 176.212 52.7552 176.846 53.8156 176.846H54.2397C55.0881 176.846 55.9364 176.212 55.9364 175.158C55.9364 174.102 55.0881 173.469 54.2397 173.469Z" fill="url(#paint32_linear_2359_555)"/>
<path d="M79.4753 166.927C78.8391 166.505 77.7787 166.715 77.3546 167.349L77.1425 167.771C76.7184 168.404 76.9305 169.459 77.5666 169.882C77.7787 170.092 78.2029 170.092 78.415 170.092C78.8391 170.092 79.4753 169.882 79.6874 169.459L79.8995 169.037C80.5357 168.404 80.3236 167.349 79.4753 166.927Z" fill="url(#paint33_linear_2359_555)"/>
<path d="M87.5326 123.447L87.1085 123.658C86.2602 124.081 86.0481 125.135 86.6844 125.769C86.8965 126.191 87.5326 126.613 87.9568 126.613C88.1689 126.613 88.593 126.613 88.8051 126.402L89.0171 126.191C89.8655 125.769 90.0775 124.713 89.6534 124.081C89.2292 123.447 88.381 123.025 87.5326 123.447Z" fill="url(#paint34_linear_2359_555)"/>
<path d="M94.5316 121.336H94.1075C93.2592 121.336 92.623 122.18 92.623 123.024C92.623 123.868 93.4713 124.502 94.1075 124.502H94.3196H94.7437C95.592 124.502 96.2282 123.658 96.2282 122.813C96.2282 121.969 95.38 121.336 94.5316 121.336Z" fill="url(#paint35_linear_2359_555)"/>
<path d="M82.2336 128.514L82.0215 128.936C81.5973 129.57 81.8094 130.625 82.4456 131.047C82.6577 131.258 83.0818 131.258 83.2939 131.258C83.7181 131.258 84.3543 131.047 84.5663 130.625L84.7784 130.414C85.2026 129.78 84.9905 128.726 84.3543 128.304C83.7181 127.459 82.6577 127.67 82.2336 128.514Z" fill="url(#paint36_linear_2359_555)"/>
<path d="M80.9603 147.086C80.1119 147.086 79.2637 147.719 79.2637 148.774V149.196C79.2637 150.041 79.8999 150.885 80.9603 150.885C82.0206 150.885 82.6568 150.252 82.6568 149.196V148.774C82.6568 147.93 81.8086 147.086 80.9603 147.086Z" fill="url(#paint37_linear_2359_555)"/>
<path d="M80.9603 140.543C80.1119 140.543 79.2637 141.176 79.2637 142.232V142.654C79.2637 143.498 79.8999 144.342 80.9603 144.342C82.0206 144.342 82.6568 143.71 82.6568 142.654V142.232C82.6568 141.176 81.8086 140.543 80.9603 140.543Z" fill="url(#paint38_linear_2359_555)"/>
<path d="M81.3833 134.002C80.535 133.791 79.6868 134.424 79.4746 135.268C79.4746 135.48 79.4746 135.69 79.4746 135.69C79.4746 136.535 80.1109 137.379 80.9591 137.379H81.1713C82.0195 137.379 82.6558 136.746 82.6558 135.902V135.48C82.8678 134.846 82.2316 134.002 81.3833 134.002Z" fill="url(#paint39_linear_2359_555)"/>
<path d="M40.6654 173.469C39.8171 173.469 38.9688 174.102 38.9688 175.158C38.9688 176.212 39.605 176.846 40.6654 176.846H40.8774C41.7257 176.846 42.3619 176.212 42.3619 175.158C42.3619 174.102 41.5137 173.469 40.6654 173.469Z" fill="url(#paint40_linear_2359_555)"/>
<path d="M121.254 121.336H114.68H114.255H107.893H107.469H101.107H100.895H100.683C99.8345 121.336 98.9863 121.969 98.9863 123.024C98.9863 124.08 99.6224 124.712 100.683 124.712H100.895H101.107H107.469H108.105H114.468H114.892H121.466C122.314 124.712 123.163 124.08 123.163 123.024C123.163 121.969 122.102 121.336 121.254 121.336Z" fill="url(#paint41_linear_2359_555)"/>
<path d="M239.65 88.6228C238.801 88.6228 237.953 87.9902 237.953 86.9346C237.953 85.8792 238.589 85.2461 239.437 85.2461H239.65C240.498 85.2461 241.346 85.8792 241.346 86.9346C241.346 87.9902 240.498 88.6228 239.65 88.6228Z" fill="#35966F"/>
<path d="M239.65 124.502C238.801 124.502 237.953 123.869 237.953 122.814C237.953 121.759 238.589 121.125 239.437 121.125H239.65C240.498 121.125 241.346 121.759 241.346 122.814C241.346 123.869 240.498 124.502 239.65 124.502Z" fill="#43B580"/>
<path d="M279.731 52.5312C278.883 52.5312 278.035 53.1644 278.035 54.2198V54.6419C278.035 55.4862 278.671 56.3304 279.731 56.3304C280.792 56.3304 281.428 55.6972 281.428 54.6419V54.2198C281.428 53.1644 280.579 52.5312 279.731 52.5312Z" fill="url(#paint42_linear_2359_555)"/>
<path d="M279.731 59.0742C278.883 59.0742 278.035 59.7075 278.035 60.7628V61.1849C278.035 62.0292 278.671 62.8734 279.731 62.8734C280.792 62.8734 281.428 62.2403 281.428 61.1849V60.7628C281.428 59.7075 280.579 59.0742 279.731 59.0742Z" fill="url(#paint43_linear_2359_555)"/>
<path d="M279.731 72.3672C278.883 72.3672 278.035 73.0005 278.035 73.8447V74.2668C277.823 75.1111 278.46 75.9554 279.308 76.1664H279.519C280.368 76.1664 281.004 75.5333 281.004 74.9001C281.004 74.689 281.004 74.4779 281.004 74.4779C281.428 73.2116 280.792 72.3672 279.731 72.3672Z" fill="url(#paint44_linear_2359_555)"/>
<path d="M278.247 78.9149C277.611 78.4928 276.55 78.7038 276.126 79.337L275.914 79.548C275.49 80.1813 275.702 81.2366 276.338 81.6587C276.55 81.8697 276.974 81.8698 277.186 81.8698C277.611 81.8698 278.247 81.6587 278.459 81.2366L278.671 80.8145C279.307 80.1813 279.095 79.337 278.247 78.9149Z" fill="url(#paint45_linear_2359_555)"/>
<path d="M266.158 85.2422H265.734C264.886 85.2422 264.25 86.0865 264.25 86.9307C264.25 87.7747 265.098 88.4082 265.734 88.4082C265.734 88.4082 265.734 88.4082 265.946 88.4082H266.371C267.219 88.4082 267.855 87.5641 267.855 86.7197C267.855 85.8755 267.219 85.2422 266.158 85.2422Z" fill="url(#paint46_linear_2359_555)"/>
<path d="M271.884 83.3439L271.673 83.555C270.825 83.9771 270.612 85.0324 271.036 85.6657C271.248 86.0878 271.884 86.5099 272.521 86.5099C272.733 86.5099 273.157 86.5099 273.37 86.2988L273.793 86.0878C274.641 85.6657 274.854 84.6103 274.218 83.9771C273.581 83.1328 272.521 82.9218 271.884 83.3439Z" fill="url(#paint47_linear_2359_555)"/>
<path d="M259.796 85.457H259.372H253.222H252.797H246.435H246.011H239.436C238.588 85.457 237.74 86.0902 237.74 87.1455C237.74 88.2005 238.376 88.834 239.436 88.834H246.011H246.435H252.797H253.222H259.372H259.796C260.644 88.834 261.492 88.2005 261.492 87.1455C261.492 86.0902 260.644 85.457 259.796 85.457Z" fill="url(#paint48_linear_2359_555)"/>
<path d="M279.731 65.8281C278.883 65.8281 278.035 66.4613 278.035 67.5167V67.9388C278.035 68.7831 278.671 69.6273 279.731 69.6273C280.792 69.6273 281.428 68.9941 281.428 67.9388V67.5167C281.428 66.4613 280.579 65.8281 279.731 65.8281Z" fill="url(#paint49_linear_2359_555)"/>
<path d="M306.876 33.3242H306.453C305.604 33.3242 304.756 33.9574 304.756 35.0127C304.756 36.0681 305.392 36.7012 306.453 36.7012H306.876C307.725 36.7012 308.573 36.0681 308.573 35.0127C308.573 33.9574 307.725 33.3242 306.876 33.3242Z" fill="url(#paint50_linear_2359_555)"/>
<path d="M313.664 33.3242H313.24C312.391 33.3242 311.543 33.9574 311.543 35.0127C311.543 36.0681 312.179 36.7012 313.24 36.7012H313.664C314.512 36.7012 315.361 36.0681 315.361 35.0127C315.361 33.9574 314.512 33.3242 313.664 33.3242Z" fill="url(#paint51_linear_2359_555)"/>
<path d="M300.302 33.3242H299.878C299.03 33.3242 298.182 33.9574 298.182 35.0127C298.182 36.0681 298.818 36.7012 299.878 36.7012H300.302C301.15 36.7012 301.999 36.0681 301.999 35.0127C301.999 33.9574 301.15 33.3242 300.302 33.3242Z" fill="url(#paint52_linear_2359_555)"/>
<path d="M280.155 45.7753C279.306 45.5643 278.458 46.1974 278.246 47.0417V47.4639C278.246 48.3082 278.671 49.1524 279.73 49.1524H279.942C280.791 49.1524 281.427 48.5192 281.427 47.6749V47.2528C281.639 46.8307 281.003 45.9864 280.155 45.7753Z" fill="url(#paint53_linear_2359_555)"/>
<path d="M281.005 40.2902L280.793 40.7123C280.369 41.3455 280.581 42.4008 281.217 42.8229C281.429 43.034 281.853 43.034 282.066 43.034C282.489 43.034 283.125 42.8229 283.338 42.4008L283.55 41.9787C283.974 41.3455 283.762 40.2902 283.125 39.868C282.489 39.4459 281.641 39.657 281.005 40.2902Z" fill="url(#paint54_linear_2359_555)"/>
<path d="M286.517 35.4299L286.093 35.641C285.244 36.0631 285.033 37.1184 285.669 37.7516C285.881 38.1737 286.517 38.5959 286.941 38.5959C287.153 38.5959 287.578 38.5959 287.789 38.3848L288.001 38.1737C288.85 37.7516 289.062 36.6963 288.638 36.0631C288.214 35.2188 287.153 35.0077 286.517 35.4299Z" fill="url(#paint55_linear_2359_555)"/>
<path d="M293.515 33.3242H293.092C292.244 33.3242 291.607 34.1685 291.607 35.0127C291.607 35.857 292.455 36.4902 293.092 36.4902C293.092 36.4902 293.092 36.4902 293.304 36.4902H293.728C294.576 36.4902 295.212 35.6459 295.212 34.8016C295.001 33.9574 294.364 33.3242 293.515 33.3242Z" fill="url(#paint56_linear_2359_555)"/>
<path d="M320.237 33.3242C319.177 33.3242 318.541 33.9574 318.541 35.0127C318.541 36.0681 319.389 36.7012 320.237 36.7012C321.085 36.7012 321.934 36.0681 321.934 35.0127C321.934 33.9574 321.085 33.3242 320.237 33.3242Z" fill="url(#paint57_linear_2359_555)"/>
<path d="M239.65 105.932C238.801 105.932 237.953 105.3 237.953 104.244C237.953 103.188 238.589 102.555 239.437 102.555H239.65C240.498 102.555 241.346 103.188 241.346 104.244C241.346 105.3 240.498 105.932 239.65 105.932Z" fill="#43B580"/>
<path d="M274.642 102.766H274.218C273.37 102.766 272.521 103.398 272.521 104.454C272.521 105.509 273.158 106.142 274.218 106.142H274.642C275.49 106.142 276.339 105.509 276.339 104.454C276.339 103.398 275.49 102.766 274.642 102.766Z" fill="url(#paint58_linear_2359_555)"/>
<path d="M281.64 102.766H281.217C280.368 102.766 279.52 103.398 279.52 104.454C279.52 105.509 280.156 106.142 281.217 106.142H281.64C282.489 106.142 283.337 105.509 283.337 104.454C283.337 103.398 282.489 102.766 281.64 102.766Z" fill="url(#paint59_linear_2359_555)"/>
<path d="M267.642 102.766H267.218C266.37 102.766 265.521 103.398 265.521 104.454C265.521 105.509 266.158 106.142 267.218 106.142H267.642C268.491 106.142 269.339 105.509 269.339 104.454C269.339 103.398 268.491 102.766 267.642 102.766Z" fill="url(#paint60_linear_2359_555)"/>
<path d="M260.645 102.766H260.221H260.009H259.797H253.859H253.434H246.86H246.436H239.65C238.801 102.766 237.953 103.398 237.953 104.454C237.953 105.509 238.589 106.142 239.65 106.142H246.436H246.86H253.434H253.859H259.797H260.009H260.221H260.645C261.493 106.142 262.341 105.509 262.341 104.454C262.341 103.398 261.493 102.766 260.645 102.766Z" fill="url(#paint61_linear_2359_555)"/>
<path d="M288.427 102.766H288.004C287.156 102.766 286.307 103.398 286.307 104.454C286.307 105.509 286.943 106.142 288.004 106.142H288.427C289.276 106.142 290.124 105.509 290.124 104.454C290.124 103.398 289.488 102.766 288.427 102.766Z" fill="url(#paint62_linear_2359_555)"/>
<path d="M309.421 102.766H308.997C308.149 102.766 307.301 103.398 307.301 104.454C307.301 105.509 307.937 106.142 308.997 106.142H309.421C310.269 106.142 311.118 105.509 311.118 104.454C311.118 103.398 310.269 102.766 309.421 102.766Z" fill="url(#paint63_linear_2359_555)"/>
<path d="M316.42 102.766H315.996C315.148 102.766 314.299 103.398 314.299 104.454C314.299 105.509 314.935 106.142 315.996 106.142H316.42C317.268 106.142 318.116 105.509 318.116 104.454C318.116 103.398 317.268 102.766 316.42 102.766Z" fill="url(#paint64_linear_2359_555)"/>
<path d="M302.423 102.766H302C301.151 102.766 300.303 103.398 300.303 104.454C300.303 105.509 300.939 106.142 302 106.142H302.423C303.272 106.142 304.12 105.509 304.12 104.454C304.12 103.398 303.272 102.766 302.423 102.766Z" fill="url(#paint65_linear_2359_555)"/>
<path d="M295.425 102.766H295.001C294.153 102.766 293.305 103.398 293.305 104.454C293.305 105.509 293.94 106.142 295.001 106.142H295.425C296.273 106.142 297.121 105.509 297.121 104.454C297.121 103.398 296.273 102.766 295.425 102.766Z" fill="url(#paint66_linear_2359_555)"/>
<path d="M323.207 102.766C322.146 102.766 321.51 103.398 321.51 104.454C321.51 105.509 322.358 106.142 323.207 106.142C324.055 106.142 324.903 105.509 324.903 104.454C324.903 103.398 324.055 102.766 323.207 102.766Z" fill="url(#paint67_linear_2359_555)"/>
<path d="M273.581 123.657L273.157 123.445C272.308 123.023 271.46 123.235 271.037 124.079C270.612 124.923 270.824 125.767 271.673 126.189L271.885 126.4C272.096 126.612 272.521 126.612 272.733 126.612C273.369 126.612 273.793 126.4 274.005 125.767C274.43 125.134 274.217 124.289 273.581 123.657Z" fill="url(#paint68_linear_2359_555)"/>
<path d="M278.673 128.935L278.461 128.513C278.037 127.88 276.977 127.668 276.341 128.091C275.704 128.513 275.492 129.568 275.916 130.201L276.128 130.413C276.341 130.835 276.977 131.045 277.4 131.045C277.612 131.045 278.037 131.045 278.248 130.835C279.097 130.623 279.309 129.568 278.673 128.935Z" fill="url(#paint69_linear_2359_555)"/>
<path d="M279.732 137.379C280.792 137.379 281.428 136.535 281.216 135.69C281.216 135.48 281.216 135.268 281.216 135.268C281.005 134.424 280.157 133.791 279.308 134.002C278.46 134.213 277.823 134.846 278.035 135.902V136.324C278.248 136.957 278.884 137.379 279.732 137.379Z" fill="url(#paint70_linear_2359_555)"/>
<path d="M259.798 121.336H259.585H259.373H253.011H252.587H246.224H245.801H239.226C238.378 121.336 237.529 121.969 237.529 123.024C237.529 124.08 238.166 124.712 239.226 124.712H245.801H246.224H252.587H253.011H259.373H259.585H259.798C260.646 124.712 261.494 124.08 261.494 123.024C261.494 121.969 260.646 121.336 259.798 121.336Z" fill="url(#paint71_linear_2359_555)"/>
<path d="M279.73 147.086C278.882 147.086 278.033 147.719 278.033 148.774V149.196C278.033 150.041 278.669 150.885 279.73 150.885C280.791 150.885 281.426 150.252 281.426 149.196V148.774C281.426 147.93 280.578 147.086 279.73 147.086Z" fill="url(#paint72_linear_2359_555)"/>
<path d="M281.426 142.025C281.426 141.18 280.791 140.336 279.73 140.336C278.669 140.336 278.033 140.969 278.033 142.025V142.447C278.033 143.291 278.669 144.135 279.73 144.135C280.791 144.135 281.426 143.503 281.426 142.447V142.025Z" fill="url(#paint73_linear_2359_555)"/>
<path d="M279.73 157.428C280.578 157.428 281.426 156.795 281.426 155.739V155.317C281.426 154.473 280.791 153.629 279.73 153.629C278.669 153.629 278.033 154.262 278.033 155.317V155.739C278.246 156.795 278.882 157.428 279.73 157.428Z" fill="url(#paint74_linear_2359_555)"/>
<path d="M266.584 121.336H266.159C265.311 121.336 264.463 121.969 264.463 122.813C264.463 123.658 265.099 124.502 265.947 124.502H266.371H266.584C267.432 124.502 268.068 123.868 268.068 123.024C268.068 122.18 267.432 121.547 266.584 121.336Z" fill="url(#paint75_linear_2359_555)"/>
<path d="M283.549 167.349C283.124 166.715 282.064 166.505 281.428 166.927C280.792 167.349 280.58 168.404 281.004 169.037L281.215 169.459C281.428 169.882 282.064 170.092 282.488 170.092C282.701 170.092 283.124 170.092 283.337 169.882C283.973 169.459 284.185 168.404 283.76 167.771L283.549 167.349Z" fill="url(#paint76_linear_2359_555)"/>
<path d="M281.427 162.286V161.864C281.427 161.02 280.578 160.387 279.73 160.387C278.882 160.387 278.246 161.231 278.246 162.075V162.498C278.458 163.342 279.094 163.764 279.73 163.764H279.942C281.003 163.975 281.639 163.13 281.427 162.286Z" fill="url(#paint77_linear_2359_555)"/>
<path d="M313.664 173.469H313.24C312.391 173.469 311.543 174.102 311.543 175.158C311.543 176.212 312.179 176.846 313.24 176.846H313.664C314.512 176.846 315.361 176.212 315.361 175.158C315.361 174.102 314.512 173.469 313.664 173.469Z" fill="url(#paint78_linear_2359_555)"/>
<path d="M300.304 173.469H299.88C299.032 173.469 298.184 174.102 298.184 175.158C298.184 176.212 298.82 176.846 299.88 176.846H300.304C301.152 176.846 302 176.212 302 175.158C302 174.102 301.152 173.469 300.304 173.469Z" fill="url(#paint79_linear_2359_555)"/>
<path d="M306.876 173.469H306.452C305.604 173.469 304.756 174.102 304.756 175.158C304.756 176.212 305.392 176.846 306.452 176.846H306.876C307.725 176.846 308.573 176.212 308.573 175.158C308.573 174.102 307.725 173.469 306.876 173.469Z" fill="url(#paint80_linear_2359_555)"/>
<path d="M293.728 173.262H293.304C292.455 173.262 291.607 173.895 291.607 174.739C291.607 175.583 292.243 176.428 293.092 176.428H293.515C294.364 176.428 295.001 175.795 295.001 174.951C295.212 174.106 294.576 173.473 293.728 173.262Z" fill="url(#paint81_linear_2359_555)"/>
<path d="M288.003 171.572L287.791 171.36C286.943 170.938 286.094 171.149 285.67 171.782C285.246 172.626 285.458 173.471 286.094 173.893L286.518 174.104C286.73 174.315 286.943 174.315 287.366 174.315C288.003 174.315 288.427 174.104 288.851 173.471C289.063 173.048 288.851 171.994 288.003 171.572Z" fill="url(#paint82_linear_2359_555)"/>
<path d="M320.236 173.469C319.175 173.469 318.539 174.102 318.539 175.158C318.539 176.212 319.388 176.846 320.236 176.846C321.084 176.846 321.933 176.212 321.933 175.158C321.933 174.102 321.084 173.469 320.236 173.469Z" fill="url(#paint83_linear_2359_555)"/>
<path d="M234.909 23.4314L233.424 36.7285L223.881 38.206L217.307 28.2859L233.001 20.6875L234.909 23.4314Z" fill="url(#paint84_linear_2359_555)"/>
<path d="M233.421 36.7296L227.271 27.2316L231.724 19.2111L232.149 19L238.299 28.498L233.421 36.7296Z" fill="url(#paint85_linear_2359_555)"/>
<path d="M232.152 19L227.699 26.8095L227.274 27.2316V27.4427L221.761 27.8648H221.549L217.307 28.2869L220.276 23.2213L220.488 22.7992L222.185 20.0553L224.729 19.8443L224.942 19.6332H225.365H226.638L229.395 19.2111H230.031L232.152 19Z" fill="#0F282F"/>
<g opacity="0.3">
<path opacity="0.3" d="M223.243 22.3762C223.456 22.3762 223.456 22.3762 223.456 22.1651V20.6877C223.456 20.4766 223.456 20.4766 223.243 20.4766C223.031 20.4766 223.031 20.4766 223.031 20.6877V22.1651C223.031 22.3762 223.031 22.3762 223.243 22.3762Z" fill="white"/>
<path opacity="0.3" d="M227.273 20.2658L226 21.11C226 21.11 225.789 21.3211 226 21.3211H226.213C226.213 21.3211 226.213 21.3211 226.425 21.3211L227.697 20.2658C227.697 20.2658 227.909 20.0547 227.697 20.0547C227.485 20.2658 227.485 20.0547 227.273 20.2658Z" fill="white"/>
<path opacity="0.3" d="M224.092 23.8516L222.396 24.6959C222.184 24.6959 222.184 24.907 222.184 24.907L222.396 25.118L224.092 24.2737C224.304 24.2737 224.304 24.0627 224.304 24.0627C224.304 23.8516 224.092 23.8516 224.092 23.8516Z" fill="white"/>
<path opacity="0.3" d="M226.637 24.0646C226.637 23.8535 226.424 23.8535 226.424 24.0646C226.213 24.0646 226.213 24.2756 226.424 24.2756L226.849 25.1199L227.061 25.331C227.061 25.331 227.061 25.331 227.273 25.331C227.485 25.331 227.485 25.1199 227.273 25.1199L226.637 24.0646Z" fill="white"/>
<path opacity="0.3" d="M220.274 25.7554C220.062 25.7554 220.063 25.9664 220.063 25.9664V27.0218C220.063 27.2328 220.274 27.2328 220.274 27.2328C220.486 27.2328 220.486 27.0218 220.486 27.0218V25.9664C220.486 25.7554 220.274 25.5443 220.274 25.7554Z" fill="white"/>
<path opacity="0.3" d="M229.393 20.2658C229.393 20.0547 229.181 20.0547 229.181 20.0547C228.969 20.0547 228.969 20.2658 228.969 20.2658L229.181 21.7432C229.181 21.9543 229.393 21.9543 229.393 21.9543C229.605 21.9543 229.605 21.7432 229.605 21.7432L229.393 20.2658Z" fill="white"/>
</g>
<path d="M116.8 44.72L111.498 35.433L117.012 29.9453L125.919 33.5334L119.133 45.5643L116.8 44.72Z" fill="url(#paint86_linear_2359_555)"/>
<path d="M111.498 35.4336L119.981 38.8107L120.617 45.987L120.405 46.4091L112.134 43.0321L111.498 35.4336Z" fill="url(#paint87_linear_2359_555)"/>
<path d="M120.406 46.4103L119.77 39.234V38.6008L123.163 35.8569L123.374 35.6459L125.919 33.5352L126.344 38.1787V38.3898L126.556 41.1336L125.071 42.4L124.86 42.6111L124.647 42.8221L123.799 43.4553L122.103 44.9328L121.89 45.1438L120.406 46.4103Z" fill="#45C68B"/>
<g opacity="0.3">
<path opacity="0.3" d="M124.857 39.8672V40.0782L125.494 41.1335H125.705V40.9225L125.069 39.8672H124.857Z" fill="white"/>
<path opacity="0.3" d="M123.163 43.2431L123.586 41.9766C123.586 41.9766 123.586 41.7656 123.375 41.7656H123.163L122.738 43.032C122.738 43.032 122.738 43.2431 122.95 43.2431C122.95 43.4541 123.163 43.4541 123.163 43.2431Z" fill="white"/>
<path opacity="0.3" d="M123.585 39.4501L124.221 38.1837V37.9727H124.009L123.373 39.239V39.4501H123.585Z" fill="white"/>
<path opacity="0.3" d="M121.89 40.5023H122.102V40.2906L121.254 39.8672H121.041V40.0789L121.89 40.5023Z" fill="white"/>
<path opacity="0.3" d="M125.283 36.4953V36.2836L124.858 35.6484H124.646V35.8601L125.07 36.4953C125.07 36.4953 125.07 36.4953 125.283 36.4953Z" fill="white"/>
<path opacity="0.3" d="M121.89 44.0905H122.102V43.8795L121.254 43.0352H121.041V43.2462L121.89 44.0905Z" fill="white"/>
</g>
<path d="M249.018 48.2697H249.039L249.06 48.268C250.841 48.1196 252.39 49.6045 252.39 51.6419V152.144C252.39 153.98 250.855 155.517 249.018 155.517H111.04C109.204 155.517 107.668 153.98 107.668 152.144V51.6419C107.668 49.8059 109.204 48.2697 111.04 48.2697H249.018Z" fill="#23293A" stroke="#2E3446"/>
<path d="M252.043 51.4791V56.2155H107.168V51.4791C107.168 49.4493 108.916 47.7578 111.013 47.7578H248.024C250.296 47.7578 252.043 49.4493 252.043 51.4791Z" fill="url(#paint88_linear_2359_555)"/>
<path d="M111.034 53.8921C111.713 53.8921 112.263 53.3408 112.263 52.6609C112.263 51.981 111.713 51.4297 111.034 51.4297C110.355 51.4297 109.805 51.981 109.805 52.6609C109.805 53.3408 110.355 53.8921 111.034 53.8921Z" fill="white"/>
<path d="M114.545 53.8921C115.224 53.8921 115.775 53.3408 115.775 52.6609C115.775 51.981 115.224 51.4297 114.545 51.4297C113.867 51.4297 113.316 51.981 113.316 52.6609C113.316 53.3408 113.867 53.8921 114.545 53.8921Z" fill="white"/>
<path d="M118.055 53.8921C118.734 53.8921 119.284 53.3408 119.284 52.6609C119.284 51.981 118.734 51.4297 118.055 51.4297C117.376 51.4297 116.826 51.981 116.826 52.6609C116.826 53.3408 117.376 53.8921 118.055 53.8921Z" fill="white"/>
<path d="M206.168 79.8744C204.684 79.8744 201.502 78.6081 200.443 78.1859C194.716 75.6531 185.173 68.0547 180.083 68.0547C174.994 68.0547 165.451 75.6531 159.724 78.1859C158.664 78.6081 155.483 79.8744 153.999 79.8744C151.878 79.8744 150.181 81.774 150.393 84.0958C151.029 89.1613 152.302 98.2372 155.907 109.846C160.36 124.198 173.297 132.852 178.175 135.596C179.448 136.229 180.932 136.229 181.992 135.596C186.87 132.852 199.806 124.198 204.259 109.846C207.865 98.2372 209.349 89.1613 209.773 84.0958C209.986 81.774 208.289 79.8744 206.168 79.8744Z" fill="#2D3344"/>
<path d="M185.35 98.3236V93.469C185.35 91.1473 183.441 88.8255 181.32 88.4034C179.624 88.1924 177.927 88.6145 176.867 89.8809C176.019 90.7252 175.382 91.9916 175.382 93.469V98.5347C174.11 99.3789 172.838 100.645 171.989 101.912C171.141 103.178 170.717 104.655 170.717 106.344C170.505 111.621 174.746 116.053 180.048 116.264C185.562 116.476 190.015 112.043 190.015 106.766C190.015 103.178 188.107 100.012 185.35 98.3236ZM181.532 107.61V110.143C181.532 110.565 181.32 110.777 180.896 110.777H179.836C179.412 110.777 179.2 110.565 179.2 110.143V108.454V107.4C178.139 107.188 177.716 106.133 177.927 105.078C178.139 104.233 178.775 103.389 179.836 103.178C181.32 102.756 182.805 104.022 182.805 105.5C182.593 106.344 182.169 107.188 181.532 107.61ZM183.229 97.4793C182.381 97.2682 181.32 97.0572 180.261 97.0572C179.412 97.0572 178.352 97.2682 177.503 97.4793V93.6801C177.503 92.8359 177.927 92.2026 178.352 91.7805C178.988 91.1473 180.261 90.7252 181.532 91.1473C182.593 91.5694 183.229 92.6248 183.229 93.8911V97.4793Z" fill="url(#paint89_linear_2359_555)"/>
<path d="M230.228 156.01L241.257 153.477L245.073 160.442L238.923 168.251L228.744 157.909L230.228 156.01Z" fill="url(#paint90_linear_2359_555)"/>
<path d="M241.258 153.474L235.32 160.861L227.897 159.384L227.686 159.173L233.411 151.785L241.258 153.474Z" fill="url(#paint91_linear_2359_555)"/>
<path d="M227.473 159.176L234.895 160.653H235.531L237.44 164.875V165.086L238.925 168.252L234.259 167.408L233.835 167.196L231.078 166.774L230.23 164.875L230.018 164.663V164.241L229.593 163.397L228.533 161.075L228.321 160.653L227.473 159.176Z" fill="#0F282F"/>
<g opacity="0.3">
<path opacity="0.3" d="M232.774 165.297L232.562 165.086L231.29 165.51L231.078 165.721L231.29 165.933L232.562 165.51C232.774 165.51 232.774 165.297 232.774 165.297Z" fill="white"/>
<path opacity="0.3" d="M229.807 162.555L230.867 163.19H231.079V162.979L230.019 162.344H229.807C229.807 162.555 229.807 162.555 229.807 162.555Z" fill="white"/>
<path opacity="0.3" d="M233.621 164.239L234.681 165.294H234.894V165.083L233.833 164.027H233.621C233.621 164.027 233.621 164.027 233.621 164.239Z" fill="white"/>
<path opacity="0.3" d="M232.986 162.131V162.343H233.199L233.835 161.707V161.496H233.623L232.986 162.131Z" fill="white"/>
<path opacity="0.3" d="M236.167 166.771C236.167 166.771 236.379 166.983 236.379 166.771L237.015 166.56C237.015 166.56 237.227 166.348 237.015 166.348C237.015 166.348 236.803 166.136 236.803 166.348L236.167 166.56C236.167 166.56 235.954 166.56 236.167 166.771Z" fill="white"/>
<path opacity="0.3" d="M229.382 161.075C229.382 161.075 229.169 161.286 229.382 161.286C229.382 161.286 229.593 161.497 229.593 161.286L230.654 160.653C230.654 160.653 230.866 160.441 230.654 160.441C230.654 160.441 230.441 160.231 230.441 160.441L229.382 161.075Z" fill="white"/>
</g>
<defs>
<linearGradient id="paint0_linear_2359_555" x1="35.3505" y1="34.8747" x2="121.336" y2="34.8747" gradientUnits="userSpaceOnUse">
<stop stop-color="#83A6FF" stop-opacity="0"/>
<stop offset="1" stop-color="#5A78FF"/>
</linearGradient>
<linearGradient id="paint1_linear_2359_555" x1="35.3516" y1="34.8747" x2="121.336" y2="34.8747" gradientUnits="userSpaceOnUse">
<stop stop-color="#83A6FF" stop-opacity="0"/>
<stop offset="1" stop-color="#5A78FF"/>
</linearGradient>
<linearGradient id="paint2_linear_2359_555" x1="35.3494" y1="34.9232" x2="121.334" y2="34.9232" gradientUnits="userSpaceOnUse">
<stop stop-color="#83A6FF" stop-opacity="0"/>
<stop offset="1" stop-color="#5A78FF"/>
</linearGradient>
<linearGradient id="paint3_linear_2359_555" x1="35.351" y1="54.2319" x2="121.335" y2="54.2319" gradientUnits="userSpaceOnUse">
<stop stop-color="#83A6FF" stop-opacity="0"/>
<stop offset="1" stop-color="#5A78FF"/>
</linearGradient>
<linearGradient id="paint4_linear_2359_555" x1="35.3505" y1="41.4328" x2="121.335" y2="41.4328" gradientUnits="userSpaceOnUse">
<stop stop-color="#83A6FF" stop-opacity="0"/>
<stop offset="1" stop-color="#5A78FF"/>
</linearGradient>
<linearGradient id="paint5_linear_2359_555" x1="35.351" y1="60.8772" x2="121.335" y2="60.8772" gradientUnits="userSpaceOnUse">
<stop stop-color="#83A6FF" stop-opacity="0"/>
<stop offset="1" stop-color="#5A78FF"/>
</linearGradient>
<linearGradient id="paint6_linear_2359_555" x1="35.3498" y1="34.8747" x2="121.335" y2="34.8747" gradientUnits="userSpaceOnUse">
<stop stop-color="#83A6FF" stop-opacity="0"/>
<stop offset="1" stop-color="#5A78FF"/>
</linearGradient>
<linearGradient id="paint7_linear_2359_555" x1="35.3505" y1="36.9018" x2="121.335" y2="36.9018" gradientUnits="userSpaceOnUse">
<stop stop-color="#83A6FF" stop-opacity="0"/>
<stop offset="1" stop-color="#5A78FF"/>
</linearGradient>
<linearGradient id="paint8_linear_2359_555" x1="35.3499" y1="80.3321" x2="121.334" y2="80.3321" gradientUnits="userSpaceOnUse">
<stop stop-color="#83A6FF" stop-opacity="0"/>
<stop offset="1" stop-color="#5A78FF"/>
</linearGradient>
<linearGradient id="paint9_linear_2359_555" x1="35.3492" y1="84.8753" x2="121.334" y2="84.8753" gradientUnits="userSpaceOnUse">
<stop stop-color="#83A6FF" stop-opacity="0"/>
<stop offset="1" stop-color="#5A78FF"/>
</linearGradient>
<linearGradient id="paint10_linear_2359_555" x1="35.3499" y1="86.8856" x2="121.335" y2="86.8856" gradientUnits="userSpaceOnUse">
<stop stop-color="#83A6FF" stop-opacity="0"/>
<stop offset="1" stop-color="#5A78FF"/>
</linearGradient>
<linearGradient id="paint11_linear_2359_555" x1="35.3511" y1="47.5912" x2="121.336" y2="47.5912" gradientUnits="userSpaceOnUse">
<stop stop-color="#83A6FF" stop-opacity="0"/>
<stop offset="1" stop-color="#5A78FF"/>
</linearGradient>
<linearGradient id="paint12_linear_2359_555" x1="35.3498" y1="74.1632" x2="121.335" y2="74.1632" gradientUnits="userSpaceOnUse">
<stop stop-color="#83A6FF" stop-opacity="0"/>
<stop offset="1" stop-color="#5A78FF"/>
</linearGradient>
<linearGradient id="paint13_linear_2359_555" x1="35.351" y1="67.5233" x2="121.335" y2="67.5233" gradientUnits="userSpaceOnUse">
<stop stop-color="#83A6FF" stop-opacity="0"/>
<stop offset="1" stop-color="#5A78FF"/>
</linearGradient>
<linearGradient id="paint14_linear_2359_555" x1="35.3496" y1="34.8747" x2="121.335" y2="34.8747" gradientUnits="userSpaceOnUse">
<stop stop-color="#83A6FF" stop-opacity="0"/>
<stop offset="1" stop-color="#5A78FF"/>
</linearGradient>
<linearGradient id="paint15_linear_2359_555" x1="35.3499" y1="86.9379" x2="121.334" y2="86.9379" gradientUnits="userSpaceOnUse">
<stop stop-color="#83A6FF" stop-opacity="0"/>
<stop offset="1" stop-color="#5A78FF"/>
</linearGradient>
<linearGradient id="paint16_linear_2359_555" x1="36.8363" y1="104.449" x2="121.986" y2="104.449" gradientUnits="userSpaceOnUse">
<stop stop-color="#FF66A9" stop-opacity="0"/>
<stop offset="1" stop-color="#F53689"/>
</linearGradient>
<linearGradient id="paint17_linear_2359_555" x1="36.8379" y1="104.449" x2="121.988" y2="104.449" gradientUnits="userSpaceOnUse">
<stop stop-color="#FF66A9" stop-opacity="0"/>
<stop offset="1" stop-color="#F53689"/>
</linearGradient>
<linearGradient id="paint18_linear_2359_555" x1="36.8366" y1="104.449" x2="121.986" y2="104.449" gradientUnits="userSpaceOnUse">
<stop stop-color="#FF66A9" stop-opacity="0"/>
<stop offset="1" stop-color="#F53689"/>
</linearGradient>
<linearGradient id="paint19_linear_2359_555" x1="36.837" y1="104.449" x2="121.987" y2="104.449" gradientUnits="userSpaceOnUse">
<stop stop-color="#FF66A9" stop-opacity="0"/>
<stop offset="1" stop-color="#F53689"/>
</linearGradient>
<linearGradient id="paint20_linear_2359_555" x1="36.8372" y1="104.449" x2="121.987" y2="104.449" gradientUnits="userSpaceOnUse">
<stop stop-color="#FF66A9" stop-opacity="0"/>
<stop offset="1" stop-color="#F53689"/>
</linearGradient>
<linearGradient id="paint21_linear_2359_555" x1="36.8389" y1="104.449" x2="121.989" y2="104.449" gradientUnits="userSpaceOnUse">
<stop stop-color="#FF66A9" stop-opacity="0"/>
<stop offset="1" stop-color="#F53689"/>
</linearGradient>
<linearGradient id="paint22_linear_2359_555" x1="36.8375" y1="104.449" x2="121.987" y2="104.449" gradientUnits="userSpaceOnUse">
<stop stop-color="#FF66A9" stop-opacity="0"/>
<stop offset="1" stop-color="#F53689"/>
</linearGradient>
<linearGradient id="paint23_linear_2359_555" x1="36.8372" y1="104.449" x2="121.987" y2="104.449" gradientUnits="userSpaceOnUse">
<stop stop-color="#FF66A9" stop-opacity="0"/>
<stop offset="1" stop-color="#F53689"/>
</linearGradient>
<linearGradient id="paint24_linear_2359_555" x1="36.8373" y1="104.449" x2="121.987" y2="104.449" gradientUnits="userSpaceOnUse">
<stop stop-color="#FF66A9" stop-opacity="0"/>
<stop offset="1" stop-color="#F53689"/>
</linearGradient>
<linearGradient id="paint25_linear_2359_555" x1="36.8367" y1="104.449" x2="121.986" y2="104.449" gradientUnits="userSpaceOnUse">
<stop stop-color="#FF66A9" stop-opacity="0"/>
<stop offset="1" stop-color="#F53689"/>
</linearGradient>
<linearGradient id="paint26_linear_2359_555" x1="35.3505" y1="172.945" x2="121.335" y2="172.945" gradientUnits="userSpaceOnUse">
<stop stop-color="#83A6FF" stop-opacity="0"/>
<stop offset="1" stop-color="#5A78FF"/>
</linearGradient>
<linearGradient id="paint27_linear_2359_555" x1="35.3505" y1="174.93" x2="121.336" y2="174.93" gradientUnits="userSpaceOnUse">
<stop stop-color="#83A6FF" stop-opacity="0"/>
<stop offset="1" stop-color="#5A78FF"/>
</linearGradient>
<linearGradient id="paint28_linear_2359_555" x1="35.3499" y1="162.258" x2="121.335" y2="162.258" gradientUnits="userSpaceOnUse">
<stop stop-color="#83A6FF" stop-opacity="0"/>
<stop offset="1" stop-color="#5A78FF"/>
</linearGradient>
<linearGradient id="paint29_linear_2359_555" x1="35.3505" y1="174.975" x2="121.336" y2="174.975" gradientUnits="userSpaceOnUse">
<stop stop-color="#83A6FF" stop-opacity="0"/>
<stop offset="1" stop-color="#5A78FF"/>
</linearGradient>
<linearGradient id="paint30_linear_2359_555" x1="35.351" y1="155.622" x2="121.335" y2="155.622" gradientUnits="userSpaceOnUse">
<stop stop-color="#83A6FF" stop-opacity="0"/>
<stop offset="1" stop-color="#5A78FF"/>
</linearGradient>
<linearGradient id="paint31_linear_2359_555" x1="35.3498" y1="174.975" x2="121.335" y2="174.975" gradientUnits="userSpaceOnUse">
<stop stop-color="#83A6FF" stop-opacity="0"/>
<stop offset="1" stop-color="#5A78FF"/>
</linearGradient>
<linearGradient id="paint32_linear_2359_555" x1="35.3516" y1="174.975" x2="121.336" y2="174.975" gradientUnits="userSpaceOnUse">
<stop stop-color="#83A6FF" stop-opacity="0"/>
<stop offset="1" stop-color="#5A78FF"/>
</linearGradient>
<linearGradient id="paint33_linear_2359_555" x1="35.3505" y1="168.418" x2="121.336" y2="168.418" gradientUnits="userSpaceOnUse">
<stop stop-color="#83A6FF" stop-opacity="0"/>
<stop offset="1" stop-color="#5A78FF"/>
</linearGradient>
<linearGradient id="paint34_linear_2359_555" x1="35.3492" y1="124.972" x2="121.334" y2="124.972" gradientUnits="userSpaceOnUse">
<stop stop-color="#83A6FF" stop-opacity="0"/>
<stop offset="1" stop-color="#5A78FF"/>
</linearGradient>
<linearGradient id="paint35_linear_2359_555" x1="35.3499" y1="122.965" x2="121.335" y2="122.965" gradientUnits="userSpaceOnUse">
<stop stop-color="#83A6FF" stop-opacity="0"/>
<stop offset="1" stop-color="#5A78FF"/>
</linearGradient>
<linearGradient id="paint36_linear_2359_555" x1="35.3519" y1="129.52" x2="121.337" y2="129.52" gradientUnits="userSpaceOnUse">
<stop stop-color="#83A6FF" stop-opacity="0"/>
<stop offset="1" stop-color="#5A78FF"/>
</linearGradient>
<linearGradient id="paint37_linear_2359_555" x1="35.351" y1="148.973" x2="121.335" y2="148.973" gradientUnits="userSpaceOnUse">
<stop stop-color="#83A6FF" stop-opacity="0"/>
<stop offset="1" stop-color="#5A78FF"/>
</linearGradient>
<linearGradient id="paint38_linear_2359_555" x1="35.351" y1="142.327" x2="121.335" y2="142.327" gradientUnits="userSpaceOnUse">
<stop stop-color="#83A6FF" stop-opacity="0"/>
<stop offset="1" stop-color="#5A78FF"/>
</linearGradient>
<linearGradient id="paint39_linear_2359_555" x1="35.3499" y1="135.689" x2="121.335" y2="135.689" gradientUnits="userSpaceOnUse">
<stop stop-color="#83A6FF" stop-opacity="0"/>
<stop offset="1" stop-color="#5A78FF"/>
</linearGradient>
<linearGradient id="paint40_linear_2359_555" x1="35.3497" y1="174.975" x2="121.335" y2="174.975" gradientUnits="userSpaceOnUse">
<stop stop-color="#83A6FF" stop-opacity="0"/>
<stop offset="1" stop-color="#5A78FF"/>
</linearGradient>
<linearGradient id="paint41_linear_2359_555" x1="35.3509" y1="122.911" x2="121.335" y2="122.911" gradientUnits="userSpaceOnUse">
<stop stop-color="#83A6FF" stop-opacity="0"/>
<stop offset="1" stop-color="#5A78FF"/>
</linearGradient>
<linearGradient id="paint42_linear_2359_555" x1="325.935" y1="54.2319" x2="250.725" y2="54.2319" gradientUnits="userSpaceOnUse">
<stop stop-color="#FF66A9" stop-opacity="0"/>
<stop offset="1" stop-color="#F53689"/>
</linearGradient>
<linearGradient id="paint43_linear_2359_555" x1="325.935" y1="60.8783" x2="250.725" y2="60.8783" gradientUnits="userSpaceOnUse">
<stop stop-color="#FF66A9" stop-opacity="0"/>
<stop offset="1" stop-color="#F53689"/>
</linearGradient>
<linearGradient id="paint44_linear_2359_555" x1="325.935" y1="74.1603" x2="250.725" y2="74.1603" gradientUnits="userSpaceOnUse">
<stop stop-color="#FF66A9" stop-opacity="0"/>
<stop offset="1" stop-color="#F53689"/>
</linearGradient>
<linearGradient id="paint45_linear_2359_555" x1="325.935" y1="80.3332" x2="250.725" y2="80.3332" gradientUnits="userSpaceOnUse">
<stop stop-color="#FF66A9" stop-opacity="0"/>
<stop offset="1" stop-color="#F53689"/>
</linearGradient>
<linearGradient id="paint46_linear_2359_555" x1="325.935" y1="86.8818" x2="250.724" y2="86.8818" gradientUnits="userSpaceOnUse">
<stop stop-color="#FF66A9" stop-opacity="0"/>
<stop offset="1" stop-color="#F53689"/>
</linearGradient>
<linearGradient id="paint47_linear_2359_555" x1="325.935" y1="84.8745" x2="250.725" y2="84.8745" gradientUnits="userSpaceOnUse">
<stop stop-color="#FF66A9" stop-opacity="0"/>
<stop offset="1" stop-color="#F53689"/>
</linearGradient>
<linearGradient id="paint48_linear_2359_555" x1="325.934" y1="86.9379" x2="250.724" y2="86.9379" gradientUnits="userSpaceOnUse">
<stop stop-color="#FF66A9" stop-opacity="0"/>
<stop offset="1" stop-color="#F53689"/>
</linearGradient>
<linearGradient id="paint49_linear_2359_555" x1="325.935" y1="67.5232" x2="250.725" y2="67.5232" gradientUnits="userSpaceOnUse">
<stop stop-color="#FF66A9" stop-opacity="0"/>
<stop offset="1" stop-color="#F53689"/>
</linearGradient>
<linearGradient id="paint50_linear_2359_555" x1="325.936" y1="34.8747" x2="250.725" y2="34.8747" gradientUnits="userSpaceOnUse">
<stop stop-color="#FF66A9" stop-opacity="0"/>
<stop offset="1" stop-color="#F53689"/>
</linearGradient>
<linearGradient id="paint51_linear_2359_555" x1="325.936" y1="34.8747" x2="250.726" y2="34.8747" gradientUnits="userSpaceOnUse">
<stop stop-color="#FF66A9" stop-opacity="0"/>
<stop offset="1" stop-color="#F53689"/>
</linearGradient>
<linearGradient id="paint52_linear_2359_555" x1="325.935" y1="34.8747" x2="250.724" y2="34.8747" gradientUnits="userSpaceOnUse">
<stop stop-color="#FF66A9" stop-opacity="0"/>
<stop offset="1" stop-color="#F53689"/>
</linearGradient>
<linearGradient id="paint53_linear_2359_555" x1="325.935" y1="47.5915" x2="250.724" y2="47.5915" gradientUnits="userSpaceOnUse">
<stop stop-color="#FF66A9" stop-opacity="0"/>
<stop offset="1" stop-color="#F53689"/>
</linearGradient>
<linearGradient id="paint54_linear_2359_555" x1="325.936" y1="41.4328" x2="250.726" y2="41.4328" gradientUnits="userSpaceOnUse">
<stop stop-color="#FF66A9" stop-opacity="0"/>
<stop offset="1" stop-color="#F53689"/>
</linearGradient>
<linearGradient id="paint55_linear_2359_555" x1="325.935" y1="36.9018" x2="250.724" y2="36.9018" gradientUnits="userSpaceOnUse">
<stop stop-color="#FF66A9" stop-opacity="0"/>
<stop offset="1" stop-color="#F53689"/>
</linearGradient>
<linearGradient id="paint56_linear_2359_555" x1="325.936" y1="34.9221" x2="250.725" y2="34.9221" gradientUnits="userSpaceOnUse">
<stop stop-color="#FF66A9" stop-opacity="0"/>
<stop offset="1" stop-color="#F53689"/>
</linearGradient>
<linearGradient id="paint57_linear_2359_555" x1="325.936" y1="34.8747" x2="250.724" y2="34.8747" gradientUnits="userSpaceOnUse">
<stop stop-color="#FF66A9" stop-opacity="0"/>
<stop offset="1" stop-color="#F53689"/>
</linearGradient>
<linearGradient id="paint58_linear_2359_555" x1="324.869" y1="104.449" x2="238.362" y2="104.449" gradientUnits="userSpaceOnUse">
<stop stop-color="#83A6FF" stop-opacity="0"/>
<stop offset="1" stop-color="#5A78FF"/>
</linearGradient>
<linearGradient id="paint59_linear_2359_555" x1="324.868" y1="104.449" x2="238.361" y2="104.449" gradientUnits="userSpaceOnUse">
<stop stop-color="#83A6FF" stop-opacity="0"/>
<stop offset="1" stop-color="#5A78FF"/>
</linearGradient>
<linearGradient id="paint60_linear_2359_555" x1="324.867" y1="104.449" x2="238.362" y2="104.449" gradientUnits="userSpaceOnUse">
<stop stop-color="#83A6FF" stop-opacity="0"/>
<stop offset="1" stop-color="#5A78FF"/>
</linearGradient>
<linearGradient id="paint61_linear_2359_555" x1="324.868" y1="104.449" x2="238.361" y2="104.449" gradientUnits="userSpaceOnUse">
<stop stop-color="#83A6FF" stop-opacity="0"/>
<stop offset="1" stop-color="#5A78FF"/>
</linearGradient>
<linearGradient id="paint62_linear_2359_555" x1="324.869" y1="104.449" x2="238.363" y2="104.449" gradientUnits="userSpaceOnUse">
<stop stop-color="#83A6FF" stop-opacity="0"/>
<stop offset="1" stop-color="#5A78FF"/>
</linearGradient>
<linearGradient id="paint63_linear_2359_555" x1="324.868" y1="104.449" x2="238.36" y2="104.449" gradientUnits="userSpaceOnUse">
<stop stop-color="#83A6FF" stop-opacity="0"/>
<stop offset="1" stop-color="#5A78FF"/>
</linearGradient>
<linearGradient id="paint64_linear_2359_555" x1="324.868" y1="104.449" x2="238.362" y2="104.449" gradientUnits="userSpaceOnUse">
<stop stop-color="#83A6FF" stop-opacity="0"/>
<stop offset="1" stop-color="#5A78FF"/>
</linearGradient>
<linearGradient id="paint65_linear_2359_555" x1="324.869" y1="104.449" x2="238.362" y2="104.449" gradientUnits="userSpaceOnUse">
<stop stop-color="#83A6FF" stop-opacity="0"/>
<stop offset="1" stop-color="#5A78FF"/>
</linearGradient>
<linearGradient id="paint66_linear_2359_555" x1="324.868" y1="104.449" x2="238.362" y2="104.449" gradientUnits="userSpaceOnUse">
<stop stop-color="#83A6FF" stop-opacity="0"/>
<stop offset="1" stop-color="#5A78FF"/>
</linearGradient>
<linearGradient id="paint67_linear_2359_555" x1="324.868" y1="104.449" x2="238.362" y2="104.449" gradientUnits="userSpaceOnUse">
<stop stop-color="#83A6FF" stop-opacity="0"/>
<stop offset="1" stop-color="#5A78FF"/>
</linearGradient>
<linearGradient id="paint68_linear_2359_555" x1="324.867" y1="124.97" x2="238.362" y2="124.97" gradientUnits="userSpaceOnUse">
<stop stop-color="#83A6FF" stop-opacity="0"/>
<stop offset="1" stop-color="#5A78FF"/>
</linearGradient>
<linearGradient id="paint69_linear_2359_555" x1="324.87" y1="129.518" x2="238.364" y2="129.518" gradientUnits="userSpaceOnUse">
<stop stop-color="#83A6FF" stop-opacity="0"/>
<stop offset="1" stop-color="#5A78FF"/>
</linearGradient>
<linearGradient id="paint70_linear_2359_555" x1="324.869" y1="135.688" x2="238.362" y2="135.688" gradientUnits="userSpaceOnUse">
<stop stop-color="#83A6FF" stop-opacity="0"/>
<stop offset="1" stop-color="#5A78FF"/>
</linearGradient>
<linearGradient id="paint71_linear_2359_555" x1="324.869" y1="122.911" x2="238.362" y2="122.911" gradientUnits="userSpaceOnUse">
<stop stop-color="#83A6FF" stop-opacity="0"/>
<stop offset="1" stop-color="#5A78FF"/>
</linearGradient>
<linearGradient id="paint72_linear_2359_555" x1="324.867" y1="148.971" x2="238.36" y2="148.971" gradientUnits="userSpaceOnUse">
<stop stop-color="#83A6FF" stop-opacity="0"/>
<stop offset="1" stop-color="#5A78FF"/>
</linearGradient>
<linearGradient id="paint73_linear_2359_555" x1="324.867" y1="142.331" x2="238.36" y2="142.331" gradientUnits="userSpaceOnUse">
<stop stop-color="#83A6FF" stop-opacity="0"/>
<stop offset="1" stop-color="#5A78FF"/>
</linearGradient>
<linearGradient id="paint74_linear_2359_555" x1="324.867" y1="155.618" x2="238.36" y2="155.618" gradientUnits="userSpaceOnUse">
<stop stop-color="#83A6FF" stop-opacity="0"/>
<stop offset="1" stop-color="#5A78FF"/>
</linearGradient>
<linearGradient id="paint75_linear_2359_555" x1="324.868" y1="122.965" x2="238.363" y2="122.965" gradientUnits="userSpaceOnUse">
<stop stop-color="#83A6FF" stop-opacity="0"/>
<stop offset="1" stop-color="#5A78FF"/>
</linearGradient>
<linearGradient id="paint76_linear_2359_555" x1="324.868" y1="168.418" x2="238.361" y2="168.418" gradientUnits="userSpaceOnUse">
<stop stop-color="#83A6FF" stop-opacity="0"/>
<stop offset="1" stop-color="#5A78FF"/>
</linearGradient>
<linearGradient id="paint77_linear_2359_555" x1="324.867" y1="162.26" x2="238.36" y2="162.26" gradientUnits="userSpaceOnUse">
<stop stop-color="#83A6FF" stop-opacity="0"/>
<stop offset="1" stop-color="#5A78FF"/>
</linearGradient>
<linearGradient id="paint78_linear_2359_555" x1="324.869" y1="174.975" x2="238.363" y2="174.975" gradientUnits="userSpaceOnUse">
<stop stop-color="#83A6FF" stop-opacity="0"/>
<stop offset="1" stop-color="#5A78FF"/>
</linearGradient>
<linearGradient id="paint79_linear_2359_555" x1="324.868" y1="174.975" x2="238.364" y2="174.975" gradientUnits="userSpaceOnUse">
<stop stop-color="#83A6FF" stop-opacity="0"/>
<stop offset="1" stop-color="#5A78FF"/>
</linearGradient>
<linearGradient id="paint80_linear_2359_555" x1="324.868" y1="174.975" x2="238.361" y2="174.975" gradientUnits="userSpaceOnUse">
<stop stop-color="#83A6FF" stop-opacity="0"/>
<stop offset="1" stop-color="#5A78FF"/>
</linearGradient>
<linearGradient id="paint81_linear_2359_555" x1="324.869" y1="174.93" x2="238.361" y2="174.93" gradientUnits="userSpaceOnUse">
<stop stop-color="#83A6FF" stop-opacity="0"/>
<stop offset="1" stop-color="#5A78FF"/>
</linearGradient>
<linearGradient id="paint82_linear_2359_555" x1="324.869" y1="172.945" x2="238.362" y2="172.945" gradientUnits="userSpaceOnUse">
<stop stop-color="#83A6FF" stop-opacity="0"/>
<stop offset="1" stop-color="#5A78FF"/>
</linearGradient>
<linearGradient id="paint83_linear_2359_555" x1="324.867" y1="174.975" x2="238.36" y2="174.975" gradientUnits="userSpaceOnUse">
<stop stop-color="#83A6FF" stop-opacity="0"/>
<stop offset="1" stop-color="#5A78FF"/>
</linearGradient>
<linearGradient id="paint84_linear_2359_555" x1="217.591" y1="29.6845" x2="234.701" y2="29.6845" gradientUnits="userSpaceOnUse">
<stop stop-color="#56DC9E"/>
<stop offset="1" stop-color="#3DAB79"/>
</linearGradient>
<linearGradient id="paint85_linear_2359_555" x1="227.45" y1="28.1054" x2="238.169" y2="28.1054" gradientUnits="userSpaceOnUse">
<stop stop-color="#56DC9E"/>
<stop offset="1" stop-color="#3DAB79"/>
</linearGradient>
<linearGradient id="paint86_linear_2359_555" x1="111.731" y1="37.9668" x2="125.749" y2="37.9668" gradientUnits="userSpaceOnUse">
<stop stop-color="#56DC9E"/>
<stop offset="1" stop-color="#3DAB79"/>
</linearGradient>
<linearGradient id="paint87_linear_2359_555" x1="114.643" y1="36.57" x2="117.277" y2="44.7138" gradientUnits="userSpaceOnUse">
<stop stop-color="#0F282F"/>
<stop offset="1" stop-color="#204955"/>
</linearGradient>
<linearGradient id="paint88_linear_2359_555" x1="107.155" y1="52.0318" x2="252.003" y2="52.0318" gradientUnits="userSpaceOnUse">
<stop stop-color="#0F282F"/>
<stop offset="1" stop-color="#6FD195" stop-opacity="0.62"/>
</linearGradient>
<linearGradient id="paint89_linear_2359_555" x1="189.81" y1="112.646" x2="171.9" y2="94.6499" gradientUnits="userSpaceOnUse">
<stop offset="0.0113208" stop-color="#C2D1FF"/>
<stop offset="1" stop-color="white"/>
</linearGradient>
<linearGradient id="paint90_linear_2359_555" x1="229.008" y1="161.064" x2="244.88" y2="161.064" gradientUnits="userSpaceOnUse">
<stop stop-color="#56DC9E"/>
<stop offset="1" stop-color="#3DAB79"/>
</linearGradient>
<linearGradient id="paint91_linear_2359_555" x1="227.905" y1="156.446" x2="241.097" y2="156.446" gradientUnits="userSpaceOnUse">
<stop stop-color="#56DC9E"/>
<stop offset="1" stop-color="#3DAB79"/>
</linearGradient>
</defs>
</svg>
