<svg width="212" height="177" viewBox="0 0 212 177" fill="none" xmlns="http://www.w3.org/2000/svg">
<g clip-path="url(#clip0_2359_706)">
<path d="M55.7981 148.802C55.4955 144.221 56.1007 141.167 53.0776 140.861C50.9624 140.556 49.4524 140.861 48.5445 139.029C47.6382 137.196 46.4293 135.669 47.6382 134.142C50.6598 129.561 49.7535 129.867 44.6167 124.98C41.2925 121.926 39.781 128.34 36.4568 126.813C34.6442 125.897 32.8301 125.897 32.2264 123.759C31.0175 118.567 31.0175 119.178 23.7639 119.483C21.045 119.483 21.045 121.926 21.045 124.37C20.7424 126.507 19.2308 126.813 17.1156 127.729C13.7915 129.561 11.6762 123.453 8.65392 126.813C7.143 128.34 5.93423 129.867 4.7253 131.699C3.81869 134.142 5.93407 134.753 7.143 136.891C7.143 136.891 7.143 136.891 7.143 137.196C7.44515 137.807 7.143 138.418 7.143 139.029C7.143 139.334 6.84069 139.945 6.84069 140.25C6.23638 141.777 6.23638 142.999 4.42315 143.304C-0.714391 144.221 -0.109922 144.526 0.192232 151.856C0.49454 156.437 5.93408 153.077 7.44515 156.437C8.04961 157.658 9.25838 159.491 8.65392 160.712C8.35177 161.934 7.14299 162.85 6.84069 164.072C5.32976 166.82 8.04962 168.347 10.7699 170.79C14.0941 173.844 15.6041 167.431 18.9282 168.958C22.8576 170.485 22.555 169.569 23.4613 174.15C24.0665 177.204 27.6933 176.288 31.6211 175.982C36.1542 175.677 32.8301 170.18 36.1542 168.652C36.7595 168.347 37.6658 168.042 38.2694 167.736C40.0836 166.82 41.2925 168.042 43.1052 168.958C45.8256 170.79 47.3356 168.042 50.3587 164.377C52.1713 162.239 50.3587 160.712 48.8471 158.88C47.6382 157.353 48.5445 155.826 49.1498 153.688C50.3587 150.634 56.1007 153.383 55.7981 148.802ZM34.9453 154.604C31.3201 158.574 25.2755 159.185 21.045 155.52C17.1156 151.856 16.5119 145.748 20.1371 141.472C23.7639 137.502 29.8085 136.891 34.039 140.556C37.9684 144.221 38.5721 150.329 34.9453 154.604Z" fill="#5C6479"/>
<path d="M199.129 30.9682V149.711C199.129 152.207 197.057 154.287 194.569 154.287H32.0887C29.6018 154.287 27.5293 152.207 27.5293 149.711V30.9682C27.5293 28.4728 29.6018 26.3933 32.0887 26.3933H194.569C197.057 26.1853 199.129 28.2648 199.129 30.9682Z" fill="#464D5F"/>
<path d="M39.4393 35.1289V154.288H30.9422C28.4553 154.288 26.3828 152.208 26.3828 149.712V35.1289H39.4393Z" fill="#2C3341"/>
<path d="M76.9487 47.1888H45.0328C44.2038 47.1888 43.582 46.5649 43.582 45.7331C43.582 44.9012 44.2038 44.2773 45.0328 44.2773H76.9487C77.7778 44.2773 78.3995 44.9012 78.3995 45.7331C78.3995 46.5649 77.5705 47.1888 76.9487 47.1888Z" fill="#0F282F"/>
<path d="M33.0126 47.1878H31.7691C30.9401 47.1878 30.3184 46.564 30.3184 45.7322C30.3184 44.9003 31.1474 44.4844 31.7691 44.4844H33.0126C33.8416 44.4844 34.4633 45.1083 34.4633 45.9402C34.4633 46.772 33.8416 47.1878 33.0126 47.1878Z" fill="#0F282F"/>
<path d="M33.0126 53.8412H31.7691C30.9401 53.8412 30.3184 53.2173 30.3184 52.3855C30.3184 51.5536 30.9401 50.9297 31.7691 50.9297H33.0126C33.8416 50.9297 34.4633 51.5536 34.4633 52.3855C34.4633 53.2173 33.8416 53.8412 33.0126 53.8412Z" fill="#0F282F"/>
<path d="M33.0126 60.5011H31.7691C30.9401 60.5011 30.3184 59.8772 30.3184 59.0454C30.3184 58.2136 30.9401 57.5898 31.7691 57.5898H33.0126C33.8416 57.5898 34.4633 58.2136 34.4633 59.0454C34.4633 59.8772 33.8416 60.5011 33.0126 60.5011Z" fill="#0F282F"/>
<path d="M33.0126 67.1535H31.7691C30.9401 67.1535 30.3184 66.5297 30.3184 65.6979C30.3184 64.8661 30.9401 64.2422 31.7691 64.2422H33.0126C33.8416 64.2422 34.4633 64.8661 34.4633 65.6979C34.4633 66.5297 33.8416 67.1535 33.0126 67.1535Z" fill="#0F282F"/>
<path d="M33.0126 73.8097H31.7691C30.9401 73.8097 30.3184 73.1858 30.3184 72.3541C30.3184 71.5223 30.9401 70.8984 31.7691 70.8984H33.0126C33.8416 70.8984 34.4633 71.5223 34.4633 72.3541C34.4633 73.1858 33.8416 73.8097 33.0126 73.8097Z" fill="#0F282F"/>
<path d="M33.0126 80.465H31.7691C30.9401 80.465 30.3184 79.8413 30.3184 79.0094C30.3184 78.1776 31.1474 77.7617 31.7691 77.7617H33.0126C33.8416 77.7617 34.4633 78.3856 34.4633 79.2174C34.4633 80.0492 33.8416 80.465 33.0126 80.465Z" fill="#0F282F"/>
<path d="M33.0126 87.1188H31.7691C30.9401 87.1188 30.3184 86.4948 30.3184 85.6627C30.3184 84.8309 30.9401 84.207 31.7691 84.207H33.0126C33.8416 84.207 34.4633 84.8309 34.4633 85.6627C34.4633 86.4948 33.8416 87.1188 33.0126 87.1188Z" fill="#0F282F"/>
<path d="M33.0126 93.7706H31.7691C30.9401 93.7706 30.3184 93.1466 30.3184 92.315C30.3184 91.4834 30.9401 90.8594 31.7691 90.8594H33.0126C33.8416 90.8594 34.4633 91.4834 34.4633 92.315C34.4633 93.1466 33.8416 93.7706 33.0126 93.7706Z" fill="#0F282F"/>
<path d="M33.0126 100.427H31.7691C30.9401 100.427 30.3184 99.8028 30.3184 98.9712C30.3184 98.1385 30.9401 97.5156 31.7691 97.5156H33.0126C33.8416 97.5156 34.4633 98.1385 34.4633 98.9712C34.4633 99.8028 33.8416 100.427 33.0126 100.427Z" fill="#0F282F"/>
<path d="M33.0126 106.872H31.7691C30.9401 106.872 30.3184 106.248 30.3184 105.417C30.3184 104.585 30.9401 103.961 31.7691 103.961H33.0126C33.8416 103.961 34.4633 104.585 34.4633 105.417C34.4633 106.248 33.8416 106.872 33.0126 106.872Z" fill="#0F282F"/>
<path d="M33.0126 113.53H31.7691C30.9401 113.53 30.3184 112.906 30.3184 112.073C30.3184 111.241 30.9401 110.617 31.7691 110.617H33.0126C33.8416 110.617 34.4633 111.241 34.4633 112.073C34.4633 112.906 33.8416 113.53 33.0126 113.53Z" fill="#0F282F"/>
<path d="M33.0126 120.182H31.7691C30.9401 120.182 30.3184 119.558 30.3184 118.726C30.3184 117.894 30.9401 117.27 31.7691 117.27H33.0126C33.8416 117.27 34.4633 117.894 34.4633 118.726C34.4633 119.558 33.8416 120.182 33.0126 120.182Z" fill="#0F282F"/>
<path d="M33.0126 126.838H31.7691C30.9401 126.838 30.3184 126.214 30.3184 125.383C30.3184 124.55 30.9401 123.926 31.7691 123.926H33.0126C33.8416 123.926 34.4633 124.55 34.4633 125.383C34.4633 126.214 33.8416 126.838 33.0126 126.838Z" fill="#0F282F"/>
<path d="M33.0126 133.493H31.7691C30.9401 133.493 30.3184 132.869 30.3184 132.038C30.3184 131.206 30.9401 130.582 31.7691 130.582H33.0126C33.8416 130.582 34.4633 131.206 34.4633 132.038C34.4633 132.869 33.8416 133.493 33.0126 133.493Z" fill="#0F282F"/>
<path d="M33.0126 140.143H31.7691C30.9401 140.143 30.3184 139.519 30.3184 138.687C30.3184 137.854 30.9401 137.23 31.7691 137.23H33.0126C33.8416 137.23 34.4633 137.854 34.4633 138.687C34.4633 139.519 33.8416 140.143 33.0126 140.143Z" fill="#0F282F"/>
<path d="M33.0126 146.798H31.7691C30.9401 146.798 30.3184 146.175 30.3184 145.342C30.3184 144.511 30.9401 143.887 31.7691 143.887H33.0126C33.8416 143.887 34.4633 144.511 34.4633 145.342C34.4633 146.175 33.8416 146.798 33.0126 146.798Z" fill="#0F282F"/>
<path d="M70.3169 53.8412H45.0328C44.2038 53.8412 43.582 53.2173 43.582 52.3855C43.582 51.5536 44.2038 50.9297 45.0328 50.9297H70.3169C71.1459 50.9297 71.7676 51.5536 71.7676 52.3855C71.5603 53.2173 70.9386 53.8412 70.3169 53.8412Z" fill="#0F282F"/>
<path d="M138.087 53.8412H75.2906C74.4616 53.8412 73.8398 53.2173 73.8398 52.3855C73.8398 51.5536 74.4616 50.9297 75.2906 50.9297H138.087C138.915 50.9297 139.537 51.5536 139.537 52.3855C139.537 53.2173 138.915 53.8412 138.087 53.8412Z" fill="#0F282F"/>
<path d="M165.237 53.8412H147C146.171 53.8412 145.549 53.2173 145.549 52.3855C145.549 51.5536 146.171 50.9297 147 50.9297H165.237C166.066 50.9297 166.688 51.5536 166.688 52.3855C166.688 53.2173 166.066 53.8412 165.237 53.8412Z" fill="white"/>
<path d="M180.365 53.8412H174.148C173.319 53.8412 172.697 53.2173 172.697 52.3855C172.697 51.5536 173.319 50.9297 174.148 50.9297H180.365C181.195 50.9297 181.816 51.5536 181.816 52.3855C181.816 53.2173 181.195 53.8412 180.365 53.8412Z" fill="url(#paint0_linear_2359_706)"/>
<path d="M86.4839 60.5011H54.568C53.739 60.5011 53.1172 59.8772 53.1172 59.0454C53.1172 58.2136 53.739 57.5898 54.568 57.5898H86.4839C87.313 57.5898 87.9347 58.2136 87.9347 59.0454C87.7274 59.8772 87.1057 60.5011 86.4839 60.5011Z" fill="#45C68B"/>
<path d="M77.9869 93.5635H54.568C53.739 93.5635 53.1172 92.9395 53.1172 92.1079C53.1172 91.2763 53.739 90.6523 54.568 90.6523H77.9869C78.8158 90.6523 79.4375 91.2763 79.4375 92.1079C79.4375 92.9395 78.8158 93.5635 77.9869 93.5635Z" fill="#0F282F"/>
<path d="M168.251 93.5635H144.832C144.003 93.5635 143.381 92.9395 143.381 92.1079C143.381 91.2763 144.003 90.6523 144.832 90.6523H168.251C169.079 90.6523 169.701 91.2763 169.701 92.1079C169.701 92.9395 169.079 93.5635 168.251 93.5635Z" fill="#0F282F"/>
<path d="M95.3957 67.1535H65.5522C64.7233 67.1535 64.1016 66.5297 64.1016 65.6979C64.1016 64.8661 64.7233 64.2422 65.5522 64.2422H95.3957C96.2247 64.2422 96.8465 64.8661 96.8465 65.6979C96.8465 66.5297 96.2247 67.1535 95.3957 67.1535Z" fill="#0F282F"/>
<path d="M112.18 67.1535H99.9527C99.1237 67.1535 98.502 66.5297 98.502 65.6979C98.502 64.8661 99.1237 64.2422 99.9527 64.2422H112.18C113.009 64.2422 113.631 64.8661 113.631 65.6979C113.631 66.5297 113.009 67.1535 112.18 67.1535Z" fill="url(#paint1_linear_2359_706)"/>
<path d="M162.543 73.5988H154.875C154.046 73.5988 153.424 72.975 153.424 72.1431C153.424 71.3113 154.046 70.6875 154.875 70.6875H162.543C163.371 70.6875 163.994 71.3113 163.994 72.1431C163.786 72.975 163.371 73.5988 162.543 73.5988Z" fill="url(#paint2_linear_2359_706)"/>
<path d="M188.059 79.759H180.39C179.561 79.759 178.939 79.1352 178.939 78.3033C178.939 77.4715 179.561 76.8477 180.39 76.8477H188.059C188.887 76.8477 189.51 77.4715 189.51 78.3033C189.302 79.1352 188.887 79.759 188.059 79.759Z" fill="url(#paint3_linear_2359_706)"/>
<path d="M180.029 93.5247H172.361C171.532 93.5247 170.91 92.9008 170.91 92.0689C170.91 91.2371 171.532 90.6133 172.361 90.6133H180.029C180.857 90.6133 181.48 91.2371 181.48 92.0689C181.273 92.9008 180.857 93.5247 180.029 93.5247Z" fill="url(#paint4_linear_2359_706)"/>
<path d="M150.207 73.5988H142.539C141.71 73.5988 141.088 72.975 141.088 72.1431C141.088 71.3113 141.71 70.6875 142.539 70.6875H150.207C151.035 70.6875 151.658 71.3113 151.658 72.1431C151.45 72.975 151.035 73.5988 150.207 73.5988Z" fill="#0F282F"/>
<path d="M73.3553 73.5988H65.6873C64.858 73.5988 64.2363 72.975 64.2363 72.1431C64.2363 71.3113 64.858 70.6875 65.6873 70.6875H73.3553C74.1835 70.6875 74.8063 71.3113 74.8063 72.1431C74.5987 72.975 74.1835 73.5988 73.3553 73.5988Z" fill="#0F282F"/>
<path d="M73.3553 79.759H65.6873C64.858 79.759 64.2363 79.1352 64.2363 78.3033C64.2363 77.4715 64.858 76.8477 65.6873 76.8477H73.3553C74.1835 76.8477 74.8063 77.4715 74.8063 78.3033C74.5987 79.1352 74.1835 79.759 73.3553 79.759Z" fill="#0F282F"/>
<path d="M73.3553 100.407H65.6873C64.858 100.407 64.2363 99.7835 64.2363 98.9517C64.2363 98.1199 64.858 97.4961 65.6873 97.4961H73.3553C74.1835 97.4961 74.8063 98.1199 74.8063 98.9517C74.5987 99.7835 74.1835 100.407 73.3553 100.407Z" fill="#0F282F"/>
<path d="M73.3553 107.29H65.6873C64.858 107.29 64.2363 106.666 64.2363 105.835C64.2363 105.003 64.858 104.379 65.6873 104.379H73.3553C74.1835 104.379 74.8063 105.003 74.8063 105.835C74.5987 106.666 74.1835 107.29 73.3553 107.29Z" fill="#0F282F"/>
<path d="M152.5 79.759H144.832C144.003 79.759 143.381 79.1352 143.381 78.3033C143.381 77.4715 144.003 76.8477 144.832 76.8477H152.5C153.328 76.8477 153.951 77.4715 153.951 78.3033C153.743 79.1352 153.328 79.759 152.5 79.759Z" fill="#0F282F"/>
<path d="M61.8827 87.7902H54.2147C53.3854 87.7902 52.7637 87.1663 52.7637 86.3345C52.7637 85.5026 53.3854 84.8789 54.2147 84.8789H61.8827C62.7109 84.8789 63.3337 85.5026 63.3337 86.3345C63.1261 87.1663 62.7109 87.7902 61.8827 87.7902Z" fill="#45C68B"/>
<path d="M77.9413 73.5988H70.2733C69.444 73.5988 68.8223 72.975 68.8223 72.1431C68.8223 71.3113 69.444 70.6875 70.2733 70.6875H77.9413C78.7695 70.6875 79.3923 71.3113 79.3923 72.1431C79.1847 72.975 78.7695 73.5988 77.9413 73.5988Z" fill="#0F282F"/>
<path d="M77.9413 79.759H70.2733C69.444 79.759 68.8223 79.1352 68.8223 78.3033C68.8223 77.4715 69.444 76.8477 70.2733 76.8477H77.9413C78.7695 76.8477 79.3923 77.4715 79.3923 78.3033C79.1847 79.1352 78.7695 79.759 77.9413 79.759Z" fill="#0F282F"/>
<path d="M80.2362 100.407H72.5682C71.7389 100.407 71.1172 99.7835 71.1172 98.9517C71.1172 98.1199 71.7389 97.4961 72.5682 97.4961H80.2362C81.0644 97.4961 81.6873 98.1199 81.6873 98.9517C81.4796 99.7835 81.0644 100.407 80.2362 100.407Z" fill="#0F282F"/>
<path d="M81.3827 107.29H73.7147C72.8854 107.29 72.2637 106.666 72.2637 105.835C72.2637 105.003 72.8854 104.379 73.7147 104.379H81.3827C82.2109 104.379 82.8337 105.003 82.8337 105.835C82.6261 106.666 82.2109 107.29 81.3827 107.29Z" fill="#0F282F"/>
<path d="M85.9707 107.29H78.3027C77.4733 107.29 76.8516 106.666 76.8516 105.835C76.8516 105.003 77.4733 104.379 78.3027 104.379H85.9707C86.7989 104.379 87.4217 105.003 87.4217 105.835C87.2141 106.666 86.7989 107.29 85.9707 107.29Z" fill="#0F282F"/>
<path d="M160.529 79.759H152.861C152.032 79.759 151.41 79.1352 151.41 78.3033C151.41 77.4715 152.032 76.8477 152.861 76.8477H160.529C161.357 76.8477 161.98 77.4715 161.98 78.3033C161.773 79.1352 161.357 79.759 160.529 79.759Z" fill="#0F282F"/>
<path d="M69.9121 87.7902H62.2441C61.4147 87.7902 60.793 87.1663 60.793 86.3345C60.793 85.5026 61.4147 84.8789 62.2441 84.8789H69.9121C70.7403 84.8789 71.3631 85.5026 71.3631 86.3345C71.1555 87.1663 70.7403 87.7902 69.9121 87.7902Z" fill="#45C68B"/>
<path d="M168.559 79.759H160.89C160.061 79.759 159.439 79.1352 159.439 78.3033C159.439 77.4715 160.061 76.8477 160.89 76.8477H168.559C169.387 76.8477 170.01 77.4715 170.01 78.3033C169.802 79.1352 169.387 79.759 168.559 79.759Z" fill="#0F282F"/>
<path d="M175.441 79.759H167.773C166.944 79.759 166.322 79.1352 166.322 78.3033C166.322 77.4715 166.944 76.8477 167.773 76.8477H175.441C176.269 76.8477 176.892 77.4715 176.892 78.3033C176.685 79.1352 176.269 79.759 175.441 79.759Z" fill="#0F282F"/>
<path d="M77.9413 87.7902H70.2733C69.444 87.7902 68.8223 87.1663 68.8223 86.3345C68.8223 85.5026 69.444 84.8789 70.2733 84.8789H77.9413C78.7695 84.8789 79.3923 85.5026 79.3923 86.3345C79.1847 87.1663 78.7695 87.7902 77.9413 87.7902Z" fill="#45C68B"/>
<path d="M191.973 73.5988H168.346C167.518 73.5988 166.896 72.975 166.896 72.1431C166.896 71.3113 167.518 70.6875 168.346 70.6875H191.973C192.801 70.6875 193.423 71.3113 193.423 72.1431C193.423 72.975 192.801 73.5988 191.973 73.5988Z" fill="#0F282F"/>
<path d="M154.529 106.872H137.949C137.12 106.872 136.498 106.248 136.498 105.417C136.498 104.585 137.12 103.961 137.949 103.961H154.529C155.358 103.961 155.98 104.585 155.98 105.417C155.98 106.248 155.358 106.872 154.529 106.872Z" fill="white"/>
<path d="M169.451 106.872H160.955C160.126 106.872 159.504 106.248 159.504 105.417C159.504 104.585 160.126 103.961 160.955 103.961H169.451C170.28 103.961 170.902 104.585 170.902 105.417C170.902 106.248 170.073 106.872 169.451 106.872Z" fill="white"/>
<path d="M165.945 126.79H157.449C156.62 126.79 155.998 126.166 155.998 125.335C155.998 124.503 156.62 123.879 157.449 123.879H165.945C166.775 123.879 167.396 124.503 167.396 125.335C167.396 126.166 166.567 126.79 165.945 126.79Z" fill="white"/>
<path d="M93.3876 126.63H71.4195C70.5905 126.63 69.9688 126.006 69.9688 125.174C69.9688 124.343 70.5905 123.719 71.4195 123.719H93.3876C94.2167 123.719 94.8384 124.343 94.8384 125.174C94.8384 126.006 94.2167 126.63 93.3876 126.63Z" fill="white"/>
<path d="M93.3876 139.407H71.4195C70.5905 139.407 69.9688 138.783 69.9688 137.952C69.9688 137.12 70.5905 136.496 71.4195 136.496H93.3876C94.2167 136.496 94.8384 137.12 94.8384 137.952C94.8384 138.783 94.2167 139.407 93.3876 139.407Z" fill="#0F282F"/>
<path d="M153.034 126.79H131.066C130.237 126.79 129.615 126.166 129.615 125.335C129.615 124.503 130.237 123.879 131.066 123.879H153.034C153.863 123.879 154.485 124.503 154.485 125.335C154.485 126.166 153.863 126.79 153.034 126.79Z" fill="#0F282F"/>
<path d="M146.999 146.389H75.4996C74.6706 146.389 74.0488 145.765 74.0488 144.933C74.0488 144.101 74.6706 143.477 75.4996 143.477H146.999C147.829 143.477 148.45 144.101 148.45 144.933C148.45 145.765 147.621 146.389 146.999 146.389Z" fill="#45C68B"/>
<path d="M93.3876 113.321H71.4195C70.5905 113.321 69.9688 112.697 69.9688 111.866C69.9688 111.034 70.5905 110.41 71.4195 110.41H93.3876C94.2167 110.41 94.8384 111.034 94.8384 111.866C94.8384 112.697 94.2167 113.321 93.3876 113.321Z" fill="#45C68B"/>
<path d="M162.568 113.321H131.066C130.237 113.321 129.615 112.697 129.615 111.866C129.615 111.034 130.237 110.41 131.066 110.41H162.36C163.189 110.41 163.811 111.034 163.811 111.866C163.811 112.697 163.189 113.321 162.568 113.321Z" fill="#0F282F"/>
<path d="M173.735 113.321H168.346C167.518 113.321 166.896 112.697 166.896 111.866C166.896 111.034 167.518 110.41 168.346 110.41H173.735C174.565 110.41 175.186 111.034 175.186 111.866C175.186 112.697 174.565 113.321 173.735 113.321Z" fill="url(#paint5_linear_2359_706)"/>
<path d="M98.3614 119.767H71.4194C70.5904 119.767 69.9688 119.143 69.9688 118.311C69.9688 117.479 70.5904 116.855 71.4194 116.855H98.3614C99.1904 116.855 99.8122 117.479 99.8122 118.311C99.8122 119.143 98.9833 119.767 98.3614 119.767Z" fill="#0F282F"/>
<path d="M94.1597 132.525H62.2437C61.4147 132.525 60.793 131.901 60.793 131.069C60.793 130.237 61.4147 129.613 62.2437 129.613H94.1597C94.9887 129.613 95.6104 130.237 95.6104 131.069C95.6104 131.901 94.9887 132.525 94.1597 132.525Z" fill="#0F282F"/>
<path d="M147.206 139.728H127.103C126.274 139.728 125.652 139.104 125.652 138.272C125.652 137.44 126.274 136.816 127.103 136.816H147.206C148.035 136.816 148.657 137.44 148.657 138.272C148.657 139.104 147.828 139.728 147.206 139.728Z" fill="white"/>
<path d="M160.262 139.728H151.972C151.143 139.728 150.521 139.104 150.521 138.272C150.521 137.44 151.143 136.816 151.972 136.816H160.262C161.092 136.816 161.713 137.44 161.713 138.272C161.713 139.104 161.092 139.728 160.262 139.728Z" fill="url(#paint6_linear_2359_706)"/>
<path d="M198.44 30.4204V35.5592H26.3828V30.4204C26.3828 28.2181 28.4583 26.3828 30.9489 26.3828H193.667C196.366 26.3828 198.44 28.2181 198.44 30.4204Z" fill="url(#paint7_linear_2359_706)"/>
<path d="M31.564 33.2551C32.3652 33.2551 33.0147 32.6033 33.0147 31.7994C33.0147 30.9955 32.3652 30.3438 31.564 30.3438C30.7627 30.3438 30.1133 30.9955 30.1133 31.7994C30.1133 32.6033 30.7627 33.2551 31.564 33.2551Z" fill="white"/>
<path d="M35.7085 33.2551C36.5097 33.2551 37.1593 32.6033 37.1593 31.7994C37.1593 30.9955 36.5097 30.3438 35.7085 30.3438C34.9073 30.3438 34.2578 30.9955 34.2578 31.7994C34.2578 32.6033 34.9073 33.2551 35.7085 33.2551Z" fill="white"/>
<path d="M39.853 33.2551C40.6542 33.2551 41.3038 32.6033 41.3038 31.7994C41.3038 30.9955 40.6542 30.3438 39.853 30.3438C39.0518 30.3438 38.4023 30.9955 38.4023 31.7994C38.4023 32.6033 39.0518 33.2551 39.853 33.2551Z" fill="white"/>
<path d="M112.395 47.0803C111.958 44.4066 111.908 41.6839 112.248 38.9961C112.688 41.6695 112.737 44.3926 112.395 47.0803Z" fill="#204955"/>
<path d="M93.9365 52.2284C92.2232 50.1316 90.8216 47.7983 89.7754 45.3008C91.4904 47.3975 92.8938 49.7308 93.9422 52.2284H93.9365Z" fill="#204955"/>
<path d="M80.5282 65.9212C77.9924 64.9653 75.6091 63.6457 73.4531 62.0039C75.9879 62.962 78.3709 64.2814 80.5282 65.9212Z" fill="#204955"/>
<path d="M75.7618 84.4762C73.0884 84.9162 70.3653 84.9659 67.6777 84.6235C70.3513 84.1863 73.074 84.1367 75.7618 84.4762Z" fill="#204955"/>
<path d="M80.914 102.934C78.8173 104.649 76.484 106.052 73.9863 107.1C76.0814 105.383 78.415 103.979 80.914 102.934Z" fill="#204955"/>
<path d="M145.02 102.254C147.554 103.21 149.937 104.528 152.095 106.166C149.56 105.211 147.176 103.893 145.02 102.254Z" fill="#204955"/>
<path d="M149.795 83.7109C152.466 83.2689 155.187 83.2173 157.873 83.5578C155.202 83.9969 152.481 84.0485 149.795 83.7109Z" fill="#204955"/>
<path d="M144.641 65.2584C146.736 63.5405 149.07 62.135 151.568 61.0859C149.473 62.8039 147.139 64.2093 144.641 65.2584Z" fill="#204955"/>
<path d="M130.955 51.8485C131.911 49.314 133.229 46.931 134.867 44.7734C133.907 47.3063 132.59 49.6889 130.955 51.8485Z" fill="#204955"/>
<g opacity="0.5">
<path d="M144.2 85.9794C142.641 105.493 126.387 111.371 126.387 111.371C125.197 114.336 123.638 121.882 123.638 121.882H101.931C101.931 121.882 100.372 114.336 99.1755 111.371C99.1755 111.371 82.922 105.493 81.3687 85.9794C80.2859 72.4246 89.9348 52.3672 112.662 52.3672H112.895C135.617 52.3672 145.271 72.4246 144.2 85.9794Z" fill="#45C68B"/>
</g>
<g opacity="0.7">
<path d="M141.504 86.08C140.081 103.921 125.217 109.323 125.217 109.323C124.123 112.033 122.694 121.903 122.694 121.903H102.852C102.852 121.903 101.429 112.033 100.335 109.323C100.335 109.323 85.4706 103.943 84.0476 86.08C83.0555 73.6816 91.8824 55.3533 112.665 55.3477H112.881C133.664 55.3533 142.496 73.6816 141.504 86.08Z" fill="#45C68B"/>
</g>
<path d="M101.969 89.3828L100.297 89.6951L106.678 123.856L108.349 123.544L101.969 89.3828Z" fill="#204955"/>
<path d="M123.597 89.3984L117.229 123.561L118.9 123.873L125.269 89.7101L123.597 89.3984Z" fill="#204955"/>
<path d="M112.78 100.921C110.841 100.921 109.061 99.141 107.802 96.845C107.582 97.1297 107.304 97.3646 106.986 97.5346C106.669 97.7046 106.319 97.8057 105.96 97.8314C102.734 97.8314 101.425 91.1929 101.391 90.9151L101.958 90.8074C101.958 90.8698 103.216 97.2645 105.971 97.2645C106.285 97.2236 106.585 97.1159 106.853 96.9487C107.121 96.7814 107.35 96.5585 107.525 96.2951C106.561 94.4124 106.02 92.3424 105.937 90.2291C105.937 88.364 106.64 87.2925 107.865 87.2925C109.288 87.2925 110.104 88.4264 110.104 90.4106C110.046 92.5386 109.385 94.6066 108.199 96.3745C109.367 98.5968 111.034 100.343 112.791 100.343C114.118 100.343 115.456 99.2941 116.556 97.3949C116.646 97.2362 116.737 97.0718 116.822 96.9017C115.51 95.2792 114.813 93.2452 114.855 91.1589C114.855 88.7665 115.756 87.2812 117.208 87.2812C117.49 87.2816 117.766 87.36 118.007 87.5082C118.247 87.6563 118.441 87.8682 118.568 88.1202C119.521 89.7699 118.999 93.71 117.502 96.8167C118.077 97.3748 118.844 97.6896 119.645 97.6954C121.607 97.6954 123.341 93.0013 123.846 91.1929L124.413 91.346C124.334 91.6294 122.463 98.2623 119.668 98.2623C118.779 98.2518 117.924 97.9172 117.264 97.3212C117.202 97.4403 117.134 97.5593 117.066 97.6784C116.181 99.1637 114.753 100.921 112.78 100.921ZM117.196 87.8821C115.875 87.8821 115.41 89.6679 115.41 91.1929C115.398 93.0617 115.979 94.8862 117.071 96.4028C118.409 93.5172 118.903 89.889 118.064 88.4377C117.99 88.2683 117.869 88.1237 117.715 88.0212C117.561 87.9187 117.381 87.8625 117.196 87.8594V87.8821ZM107.853 87.8821C106.669 87.8821 106.493 89.3674 106.493 90.2518C106.573 92.1767 107.049 94.0643 107.893 95.7962C108.899 94.1832 109.463 92.3335 109.526 90.4333C109.526 89.2485 109.237 87.8594 107.853 87.8594V87.8821Z" fill="#204955"/>
<path d="M126.365 121.902H99.1875V136.863H126.365V121.902Z" fill="#C7C7C7"/>
<path d="M123.285 136.863C121.686 139.698 118.619 142.232 112.774 142.232C106.93 142.232 103.868 139.698 102.27 136.863H123.285Z" fill="#C7C7C7"/>
<path d="M123.286 136.864C122.811 137.701 122.217 138.465 121.523 139.132L102.815 137.698C102.607 137.423 102.418 137.135 102.248 136.836L123.286 136.864Z" fill="#A6A6A6"/>
<path d="M127.161 124.753L98.3906 127.418V126.114L127.161 123.449V124.753Z" fill="#A6A6A6"/>
<path d="M127.161 128.706L98.3906 131.365V130.061L127.161 127.402V128.706Z" fill="#A6A6A6"/>
<path d="M127.161 132.658L98.3906 135.317V134.013L127.161 131.348V132.658Z" fill="#A6A6A6"/>
<g opacity="0.5">
<path d="M88.21 81.4137C89.2077 81.5838 90.4776 76.4419 96.0277 70.4893C98.4824 67.8419 107.802 64.5367 107.133 61.4811C106.465 58.4254 98.1479 61.5718 93.9641 66.4132C87.2349 74.2139 87.2972 81.272 88.21 81.4137Z" fill="white"/>
<path d="M137.241 82.483C139.078 82.483 139.078 79.6484 137.241 79.6484C135.404 79.6484 135.404 82.483 137.241 82.483Z" fill="white"/>
<path d="M128.273 103.909C129.277 104.675 134.141 100.185 136.335 94.8389C138.154 90.3943 138.466 84.7705 137.242 84.4474C136.017 84.1242 135.224 91.8172 133.755 94.6518C131.896 98.246 127.19 103.093 128.273 103.909Z" fill="white"/>
</g>
<path d="M161.352 1.65201L166.122 6.71692C166.676 7.31937 166.868 8.2609 166.602 9.07067L164.724 15.0895C164.458 15.8993 163.733 16.5773 162.918 16.6678L156.83 18.1073C156.01 18.3147 155.094 18.0511 154.54 17.4485L149.771 12.3838C149.438 12.0222 148.744 11.9997 148.382 12.3388C148.261 12.4518 148.135 12.6814 148.125 12.915C147.47 17.4535 148.902 21.9427 151.894 25.1962C155.777 29.2971 161.62 30.8893 167.019 29.3104L198.491 63.4168C201.266 66.3127 205.776 66.5757 208.793 63.7505C211.69 61.0384 211.883 56.485 209.218 53.7096L177.414 19.2418C179.02 14.1495 177.748 8.61333 174.087 4.75346C170.984 1.37934 166.534 -0.284753 162.116 0.0399017C161.537 0.0211258 161.165 0.593612 161.146 1.06074C161.136 1.29414 161.246 1.41473 161.352 1.65201ZM204.794 59.6459C203.708 60.663 201.972 60.6067 200.975 59.5222C199.977 58.4376 200.047 56.803 201.133 55.786C202.219 54.7689 203.955 54.8252 204.952 55.9097C205.95 56.9943 205.881 58.6288 204.794 59.6459C204.91 59.6496 204.91 59.6496 204.794 59.6459Z" fill="#0F282F"/>
<path opacity="0.4" d="M173.488 29.4961L196.365 54.6794" stroke="#464D5F" stroke-miterlimit="10"/>
<path opacity="0.4" d="M177.719 25.4609L200.589 50.7603" stroke="#464D5F" stroke-miterlimit="10"/>
</g>
<defs>
<linearGradient id="paint0_linear_2359_706" x1="172.845" y1="52.4249" x2="181.708" y2="52.4249" gradientUnits="userSpaceOnUse">
<stop stop-color="#56DC9E"/>
<stop offset="1" stop-color="#3DAB79"/>
</linearGradient>
<linearGradient id="paint1_linear_2359_706" x1="98.6454" y1="65.6824" x2="113.563" y2="65.6824" gradientUnits="userSpaceOnUse">
<stop stop-color="#83A6FF"/>
<stop offset="1" stop-color="#5A78FF"/>
</linearGradient>
<linearGradient id="paint2_linear_2359_706" x1="153.595" y1="72.1827" x2="163.869" y2="72.1827" gradientUnits="userSpaceOnUse">
<stop stop-color="#56DC9E"/>
<stop offset="1" stop-color="#3DAB79"/>
</linearGradient>
<linearGradient id="paint3_linear_2359_706" x1="179.11" y1="78.3428" x2="189.385" y2="78.3428" gradientUnits="userSpaceOnUse">
<stop stop-color="#56DC9E"/>
<stop offset="1" stop-color="#3DAB79"/>
</linearGradient>
<linearGradient id="paint4_linear_2359_706" x1="171.081" y1="92.1085" x2="181.355" y2="92.1085" gradientUnits="userSpaceOnUse">
<stop stop-color="#56DC9E"/>
<stop offset="1" stop-color="#3DAB79"/>
</linearGradient>
<linearGradient id="paint5_linear_2359_706" x1="167.03" y1="111.905" x2="175.088" y2="111.905" gradientUnits="userSpaceOnUse">
<stop stop-color="#56DC9E"/>
<stop offset="1" stop-color="#3DAB79"/>
</linearGradient>
<linearGradient id="paint6_linear_2359_706" x1="150.702" y1="138.312" x2="161.581" y2="138.312" gradientUnits="userSpaceOnUse">
<stop stop-color="#56DC9E"/>
<stop offset="1" stop-color="#3DAB79"/>
</linearGradient>
<linearGradient id="paint7_linear_2359_706" x1="26.3675" y1="31.02" x2="198.393" y2="31.02" gradientUnits="userSpaceOnUse">
<stop stop-color="#0F282F"/>
<stop offset="1" stop-color="#43B580"/>
</linearGradient>
<clipPath id="clip0_2359_706">
<rect width="212" height="177" fill="white"/>
</clipPath>
</defs>
</svg>
