<svg width="360" height="228" viewBox="0 0 360 228" fill="none" xmlns="http://www.w3.org/2000/svg">
<path d="M97.1293 22.2535H95.456C94.3405 22.2535 93.5039 21.414 93.5039 20.2948C93.5039 19.1754 94.3405 18.3359 95.456 18.3359H97.1293C98.2448 18.3359 99.0813 19.1754 99.0813 20.2948C99.0813 21.414 98.2448 22.2535 97.1293 22.2535Z" fill="#0F282F"/>
<path d="M97.1293 31.2068H95.456C94.3405 31.2068 93.5039 30.3673 93.5039 29.2479C93.5039 28.1286 94.3405 27.2891 95.456 27.2891H97.1293C98.2448 27.2891 99.0813 28.1286 99.0813 29.2479C99.0813 30.3673 98.2448 31.2068 97.1293 31.2068Z" fill="#0F282F"/>
<path d="M97.1293 39.8826H95.456C94.3405 39.8826 93.5039 39.043 93.5039 37.9237C93.5039 36.8044 94.3405 35.9648 95.456 35.9648H97.1293C98.2448 35.9648 99.0813 36.8044 99.0813 37.9237C99.0813 39.3229 98.2448 39.8826 97.1293 39.8826Z" fill="#0F282F"/>
<path d="M97.1293 48.8318H95.456C94.3405 48.8318 93.5039 47.9923 93.5039 46.873C93.5039 45.7536 94.3405 44.9141 95.456 44.9141H97.1293C98.2448 44.9141 99.0813 45.7536 99.0813 46.873C99.0813 47.9923 98.2448 48.8318 97.1293 48.8318Z" fill="#0F282F"/>
<path d="M97.1293 57.7887H95.456C94.3405 57.7887 93.5039 56.9492 93.5039 55.8298C93.5039 54.7107 94.3405 53.8711 95.456 53.8711H97.1293C98.2448 53.8711 99.0813 54.7107 99.0813 55.8298C99.0813 56.9492 98.2448 57.7887 97.1293 57.7887Z" fill="#0F282F"/>
<path d="M97.1293 66.7458H95.456C94.3405 66.7458 93.5039 65.9063 93.5039 64.7869C93.5039 63.6676 94.3405 62.8281 95.456 62.8281H97.1293C98.2448 62.8281 99.0813 63.6676 99.0813 64.7869C99.0813 65.9063 98.2448 66.7458 97.1293 66.7458Z" fill="#0F282F"/>
<path d="M97.1293 75.7028H95.456C94.3405 75.7028 93.5039 74.8633 93.5039 73.7441C93.5039 72.6247 94.3405 71.7852 95.456 71.7852H97.1293C98.2448 71.7852 99.0813 72.6247 99.0813 73.7441C99.0813 74.8633 98.2448 75.7028 97.1293 75.7028Z" fill="#0F282F"/>
<path d="M97.1293 84.6519H95.456C94.3405 84.6519 93.5039 83.8126 93.5039 82.6932C93.5039 81.5739 94.3405 80.7344 95.456 80.7344H97.1293C98.2448 80.7344 99.0813 81.5739 99.0813 82.6932C99.0813 83.8126 98.2448 84.6519 97.1293 84.6519Z" fill="#0F282F"/>
<path d="M97.1293 93.6091H95.456C94.3405 93.6091 93.5039 92.7696 93.5039 91.6503C93.5039 90.5309 94.3405 89.6914 95.456 89.6914H97.1293C98.2448 89.6914 99.0813 90.5309 99.0813 91.6503C99.0813 92.7696 98.2448 93.6091 97.1293 93.6091Z" fill="#0F282F"/>
<path d="M97.1293 102.566H95.456C94.3405 102.566 93.5039 101.726 93.5039 100.607C93.5039 99.4881 94.3405 98.6484 95.456 98.6484H97.1293C98.2448 98.6484 99.0813 99.4881 99.0813 100.607C99.0813 101.726 98.2448 102.566 97.1293 102.566Z" fill="#0F282F"/>
<path d="M97.1293 111.519H95.456C94.3405 111.519 93.5039 110.679 93.5039 109.56C93.5039 108.441 94.3405 107.602 95.456 107.602H97.1293C98.2448 107.602 99.0813 108.441 99.0813 109.56C99.0813 110.679 98.2448 111.519 97.1293 111.519Z" fill="#0F282F"/>
<path d="M97.1293 120.476H95.456C94.3405 120.476 93.5039 119.636 93.5039 118.517C93.5039 117.398 94.3405 116.559 95.456 116.559H97.1293C98.2448 116.559 99.0813 117.398 99.0813 118.517C99.0813 119.636 98.2448 120.476 97.1293 120.476Z" fill="#0F282F"/>
<path d="M97.1293 129.148H95.456C94.3405 129.148 93.5039 128.308 93.5039 127.189C93.5039 126.07 94.3405 125.23 95.456 125.23H97.1293C98.2448 125.23 99.0813 126.07 99.0813 127.189C99.0813 128.308 98.2448 129.148 97.1293 129.148Z" fill="#0F282F"/>
<path d="M169.079 48.5544H126.132C125.016 48.5544 124.18 47.7149 124.18 46.5955C124.18 45.4762 125.016 44.6367 126.132 44.6367H169.079C170.194 44.6367 171.031 45.4762 171.031 46.5955C171.031 47.7149 170.194 48.5544 169.079 48.5544Z" fill="#0F282F"/>
<path d="M157.645 57.5115H126.132C125.016 57.5115 124.18 56.672 124.18 55.5527C124.18 54.4333 125.016 53.5938 126.132 53.5938H157.645C158.76 53.5938 159.597 54.4333 159.597 55.5527C159.597 56.672 158.76 57.5115 157.645 57.5115Z" fill="#0F282F"/>
<path d="M241.028 57.5115H166.567C165.452 57.5115 164.615 56.672 164.615 55.5527C164.615 54.4333 165.452 53.5938 166.567 53.5938H241.028C242.142 53.5938 242.979 54.4333 242.979 55.5527C242.979 56.672 242.142 57.5115 241.028 57.5115Z" fill="#0F282F"/>
<path d="M181.072 21.9725H141.192C140.077 21.9725 139.24 21.133 139.24 20.0136C139.24 18.8943 140.077 18.0547 141.192 18.0547H181.351C182.466 18.0547 183.303 18.8943 183.303 20.0136C183.024 21.133 182.187 21.9725 181.072 21.9725Z" fill="#0F282F"/>
<path d="M203.659 21.9725H187.206C186.091 21.9725 185.254 21.1329 185.254 20.0136C185.254 18.8943 186.091 18.0547 187.206 18.0547H203.659C204.775 18.0547 205.612 18.8943 205.612 20.0136C205.612 21.1329 204.775 21.9725 203.659 21.9725Z" fill="#0F282F"/>
<path d="M251.906 30.9254H141.192C140.077 30.9254 139.24 30.086 139.24 28.9667C139.24 27.8473 140.077 27.0078 141.192 27.0078H251.906C253.022 27.0078 253.859 27.8473 253.859 28.9667C253.859 30.086 252.743 30.9254 251.906 30.9254Z" fill="#0F282F"/>
<path d="M271.426 30.9254H261.107C259.993 30.9254 259.156 30.086 259.156 28.9667C259.156 27.8473 259.993 27.0078 261.107 27.0078H271.426C272.542 27.0078 273.378 27.8473 273.378 28.9667C273.378 30.086 272.542 30.9254 271.426 30.9254Z" fill="#0F282F"/>
<path d="M217.326 39.8825H141.192C140.077 39.8825 139.24 39.043 139.24 37.9237C139.24 36.8043 140.077 35.9648 141.192 35.9648H217.326C218.441 35.9648 219.278 36.8043 219.278 37.9237C218.999 39.043 218.162 39.8825 217.326 39.8825Z" fill="#0F282F"/>
<path d="M183.861 75.4215H154.3C153.184 75.4215 152.348 74.582 152.348 73.4628C152.348 72.3434 153.184 71.5039 154.3 71.5039H183.861C184.976 71.5039 185.813 72.3434 185.813 73.4628C185.813 74.582 184.976 75.4215 183.861 75.4215Z" fill="#0F282F"/>
<path d="M222.066 75.4215H190.552C189.436 75.4215 188.6 74.582 188.6 73.4626C188.6 72.3434 189.436 71.5039 190.552 71.5039H222.066C223.18 71.5039 224.017 72.3434 224.017 73.4626C224.017 74.582 223.18 75.4215 222.066 75.4215Z" fill="#0F282F"/>
<path d="M250.79 75.4215H228.48C227.364 75.4215 226.527 74.582 226.527 73.4626C226.527 72.3434 227.364 71.5039 228.48 71.5039H250.79C251.906 71.5039 252.742 72.3434 252.742 73.4626C252.742 74.582 251.626 75.4215 250.79 75.4215Z" fill="#0F282F"/>
<path d="M270.59 75.4215H259.156C258.04 75.4215 257.203 74.582 257.203 73.4626C257.203 72.3434 258.04 71.5039 259.156 71.5039H270.59C271.706 71.5039 272.542 72.3434 272.542 73.4626C272.542 74.582 271.706 75.4215 270.59 75.4215Z" fill="#0F282F"/>
<path d="M183.861 102.007H154.3C153.184 102.007 152.348 101.168 152.348 100.049C152.348 98.9295 153.184 98.0898 154.3 98.0898H183.861C184.976 98.0898 185.813 98.9295 185.813 100.049C185.813 101.168 184.976 102.007 183.861 102.007Z" fill="#0F282F"/>
<path d="M250.513 128.867H154.3C153.184 128.867 152.348 128.027 152.348 126.908C152.348 125.789 153.184 124.949 154.3 124.949H250.513C251.627 124.949 252.463 125.789 252.463 126.908C252.463 128.027 251.627 128.867 250.513 128.867Z" fill="#0F282F"/>
<path d="M197.246 84.0934H167.405C166.29 84.0934 165.453 83.2539 165.453 82.1345C165.453 81.0153 166.29 80.1758 167.405 80.1758H197.246C198.36 80.1758 199.197 81.0153 199.197 82.1345C199.197 83.2539 198.082 84.0934 197.246 84.0934Z" fill="#0F282F"/>
<path d="M245.49 84.0934H203.38C202.264 84.0934 201.428 83.2539 201.428 82.1347C201.428 81.0154 202.264 80.1758 203.38 80.1758H245.49C246.606 80.1758 247.443 81.0154 247.443 82.1347C247.443 83.2539 246.328 84.0934 245.49 84.0934Z" fill="#0F282F"/>
<path d="M273.1 84.0934H251.626C250.51 84.0934 249.674 83.2539 249.674 82.1347C249.674 81.0154 250.51 80.1758 251.626 80.1758H273.1C274.216 80.1758 275.052 81.0154 275.052 82.1347C275.052 83.2539 274.216 84.0934 273.1 84.0934Z" fill="#0F282F"/>
<path d="M203.936 93.0505H167.683C166.567 93.0505 165.73 92.211 165.73 91.0916C165.73 89.9723 166.567 89.1328 167.683 89.1328H203.936C205.052 89.1328 205.889 89.9723 205.889 91.0916C205.889 92.211 205.052 93.0505 203.936 93.0505Z" fill="#0F282F"/>
<path d="M220.948 93.0505H210.91C209.794 93.0505 208.957 92.211 208.957 91.0916C208.957 89.9723 209.794 89.1328 210.91 89.1328H220.948C222.064 89.1328 222.901 89.9723 222.901 91.0916C222.901 92.211 221.785 93.0505 220.948 93.0505Z" fill="#0F282F"/>
<path d="M183.861 66.4645H141.192C140.077 66.4645 139.24 65.625 139.24 64.5058C139.24 63.3864 140.077 62.5469 141.192 62.5469H184.139C185.255 62.5469 186.092 63.3864 186.092 64.5058C186.092 65.625 184.976 66.4645 183.861 66.4645Z" fill="#0F282F"/>
<path d="M201.987 66.4645H190.832C189.717 66.4645 188.881 65.625 188.881 64.5058C188.881 63.3864 189.717 62.5469 190.832 62.5469H201.987C203.103 62.5469 203.939 63.3864 203.939 64.5058C203.939 65.625 203.103 66.4645 201.987 66.4645Z" fill="#0F282F"/>
<path d="M183.861 110.964H141.192C140.077 110.964 139.24 110.125 139.24 109.005C139.24 107.886 140.077 107.047 141.192 107.047H184.139C185.255 107.047 186.092 107.886 186.092 109.005C185.813 110.125 184.976 110.964 183.861 110.964Z" fill="#0F282F"/>
<path d="M217.605 119.636H141.192C140.077 119.636 139.24 118.796 139.24 117.677C139.24 116.558 140.077 115.719 141.192 115.719H217.883C218.999 115.719 219.835 116.558 219.835 117.677C219.557 118.796 218.721 119.636 217.605 119.636Z" fill="#0F282F"/>
<path d="M250.788 119.636H223.736C222.622 119.636 221.785 118.796 221.785 117.677C221.785 116.558 222.622 115.719 223.736 115.719H250.788C251.903 115.719 252.74 116.558 252.74 117.677C252.74 118.796 251.903 119.636 250.788 119.636Z" fill="#0F282F"/>
<path d="M268.359 119.636H257.204C256.089 119.636 255.252 118.796 255.252 117.677C255.252 116.558 256.089 115.719 257.204 115.719H268.359C269.475 115.719 270.312 116.558 270.312 117.677C270.312 118.796 269.475 119.636 268.359 119.636Z" fill="#0F282F"/>
<path d="M280.909 19.1755V178.959C280.909 182.318 278.121 185.116 274.774 185.116H56.1353C52.7888 185.116 50 182.318 50 178.959V19.1755C50 15.8177 52.7888 13.0193 56.1353 13.0193H274.774C278.121 12.7395 280.909 15.5378 280.909 19.1755Z" fill="#464D5F"/>
<path d="M67.5692 24.7734V185.117H56.1353C52.7888 185.117 50 182.319 50 178.96V24.7734H67.5692Z" fill="#394050"/>
<path d="M280.909 19.1755V27.011H50V19.1755C50 15.8177 52.7888 13.0193 56.1353 13.0193H274.774C278.121 12.7395 280.909 15.5378 280.909 19.1755Z" fill="#2C313D"/>
<path d="M56.9736 22.2535C58.0517 22.2535 58.9258 21.3765 58.9258 20.2948C58.9258 19.213 58.0517 18.3359 56.9736 18.3359C55.8954 18.3359 55.0215 19.213 55.0215 20.2948C55.0215 21.3765 55.8954 22.2535 56.9736 22.2535Z" fill="white"/>
<path d="M62.5498 22.2535C63.6279 22.2535 64.502 21.3765 64.502 20.2948C64.502 19.213 63.6279 18.3359 62.5498 18.3359C61.4717 18.3359 60.5977 19.213 60.5977 20.2948C60.5977 21.3765 61.4717 22.2535 62.5498 22.2535Z" fill="white"/>
<path d="M68.1259 22.2535C69.204 22.2535 70.0781 21.3765 70.0781 20.2948C70.0781 19.213 69.204 18.3359 68.1259 18.3359C67.0477 18.3359 66.1738 19.213 66.1738 20.2948C66.1738 21.3765 67.0477 22.2535 68.1259 22.2535Z" fill="white"/>
<path d="M118.046 41.0036H75.0987C73.9832 41.0036 73.1465 40.1641 73.1465 39.0447C73.1465 37.9254 73.9832 37.0859 75.0987 37.0859H118.046C119.161 37.0859 119.998 37.9254 119.998 39.0447C119.998 40.1641 118.882 41.0036 118.046 41.0036Z" fill="#0F282F"/>
<path d="M58.9241 41.001H57.2508C56.1353 41.001 55.2988 40.1616 55.2988 39.0423C55.2988 37.9229 56.4142 37.3633 57.2508 37.3633H58.9241C60.0396 37.3633 60.8762 38.2028 60.8762 39.3221C60.8762 40.4415 60.0396 41.001 58.9241 41.001Z" fill="#0F282F"/>
<path d="M58.9241 49.9529H57.2508C56.1353 49.9529 55.2988 49.1134 55.2988 47.9941C55.2988 46.8747 56.1353 46.0352 57.2508 46.0352H58.9241C60.0396 46.0352 60.8762 46.8747 60.8762 47.9941C60.8762 49.1134 60.0396 49.9529 58.9241 49.9529Z" fill="#0F282F"/>
<path d="M58.9241 58.9098H57.2508C56.1353 58.9098 55.2988 58.0703 55.2988 56.951C55.2988 55.8316 56.1353 54.9922 57.2508 54.9922H58.9241C60.0396 54.9922 60.8762 55.8316 60.8762 56.951C60.8762 58.0703 60.0396 58.9098 58.9241 58.9098Z" fill="#0F282F"/>
<path d="M58.9241 67.8706H57.2508C56.1353 67.8706 55.2988 67.0313 55.2988 65.9119C55.2988 64.7926 56.1353 63.9531 57.2508 63.9531H58.9241C60.0396 63.9531 60.8762 64.7926 60.8762 65.9119C60.8762 67.0313 60.0396 67.8706 58.9241 67.8706Z" fill="#0F282F"/>
<path d="M58.9241 76.8238H57.2508C56.1353 76.8238 55.2988 75.9843 55.2988 74.8651C55.2988 73.7458 56.1353 72.9062 57.2508 72.9062H58.9241C60.0396 72.9062 60.8762 73.7458 60.8762 74.8651C60.8762 75.9843 60.0396 76.8238 58.9241 76.8238Z" fill="#0F282F"/>
<path d="M58.9241 85.7744H57.2508C56.1353 85.7744 55.2988 84.9351 55.2988 83.8157C55.2988 82.6964 56.4142 82.1367 57.2508 82.1367H58.9241C60.0396 82.1367 60.8762 82.9762 60.8762 84.0956C60.8762 85.2149 60.0396 85.7744 58.9241 85.7744Z" fill="#0F282F"/>
<path d="M58.9241 94.7307H57.2508C56.1353 94.7307 55.2988 93.891 55.2988 92.7714C55.2988 91.652 56.1353 90.8125 57.2508 90.8125H58.9241C60.0396 90.8125 60.8762 91.652 60.8762 92.7714C60.8762 93.891 60.0396 94.7307 58.9241 94.7307Z" fill="#0F282F"/>
<path d="M58.9241 103.687H57.2508C56.1353 103.687 55.2988 102.847 55.2988 101.728C55.2988 100.609 56.1353 99.7695 57.2508 99.7695H58.9241C60.0396 99.7695 60.8762 100.609 60.8762 101.728C60.8762 102.847 60.0396 103.687 58.9241 103.687Z" fill="#0F282F"/>
<path d="M58.9241 112.644H57.2508C56.1353 112.644 55.2988 111.804 55.2988 110.685C55.2988 109.565 56.1353 108.727 57.2508 108.727H58.9241C60.0396 108.727 60.8762 109.565 60.8762 110.685C60.8762 111.804 60.0396 112.644 58.9241 112.644Z" fill="#0F282F"/>
<path d="M58.9241 121.316H57.2508C56.1353 121.316 55.2988 120.476 55.2988 119.357C55.2988 118.238 56.1353 117.398 57.2508 117.398H58.9241C60.0396 117.398 60.8762 118.238 60.8762 119.357C60.8762 120.476 60.0396 121.316 58.9241 121.316Z" fill="#0F282F"/>
<path d="M58.9241 130.271H57.2508C56.1353 130.271 55.2988 129.431 55.2988 128.31C55.2988 127.191 56.1353 126.352 57.2508 126.352H58.9241C60.0396 126.352 60.8762 127.191 60.8762 128.31C60.8762 129.431 60.0396 130.271 58.9241 130.271Z" fill="#0F282F"/>
<path d="M58.9241 139.226H57.2508C56.1353 139.226 55.2988 138.386 55.2988 137.267C55.2988 136.148 56.1353 135.309 57.2508 135.309H58.9241C60.0396 135.309 60.8762 136.148 60.8762 137.267C60.8762 138.386 60.0396 139.226 58.9241 139.226Z" fill="#0F282F"/>
<path d="M58.9241 148.181H57.2508C56.1353 148.181 55.2988 147.341 55.2988 146.222C55.2988 145.102 56.1353 144.262 57.2508 144.262H58.9241C60.0396 144.262 60.8762 145.102 60.8762 146.222C60.8762 147.341 60.0396 148.181 58.9241 148.181Z" fill="#0F282F"/>
<path d="M58.9241 157.136H57.2508C56.1353 157.136 55.2988 156.296 55.2988 155.177C55.2988 154.058 56.1353 153.219 57.2508 153.219H58.9241C60.0396 153.219 60.8762 154.058 60.8762 155.177C60.8762 156.296 60.0396 157.136 58.9241 157.136Z" fill="#0F282F"/>
<path d="M58.9241 166.087H57.2508C56.1353 166.087 55.2988 165.247 55.2988 164.128C55.2988 163.008 56.1353 162.168 57.2508 162.168H58.9241C60.0396 162.168 60.8762 163.008 60.8762 164.128C60.8762 165.247 60.0396 166.087 58.9241 166.087Z" fill="#0F282F"/>
<path d="M58.9241 175.038H57.2508C56.1353 175.038 55.2988 174.2 55.2988 173.08C55.2988 171.961 56.1353 171.121 57.2508 171.121H58.9241C60.0396 171.121 60.8762 171.961 60.8762 173.08C60.8762 174.2 60.0396 175.038 58.9241 175.038Z" fill="#0F282F"/>
<path d="M109.122 49.9529H75.0987C73.9832 49.9529 73.1465 49.1134 73.1465 47.9941C73.1465 46.8747 73.9832 46.0352 75.0987 46.0352H109.122C110.237 46.0352 111.074 46.8747 111.074 47.9941C110.795 49.1134 109.958 49.9529 109.122 49.9529Z" fill="#0F282F"/>
<path d="M200.312 49.9529H115.812C114.696 49.9529 113.859 49.1134 113.859 47.9941C113.859 46.8747 114.696 46.0352 115.812 46.0352H200.312C201.426 46.0352 202.263 46.8747 202.263 47.9941C202.263 49.1134 201.426 49.9529 200.312 49.9529Z" fill="#0F282F"/>
<path d="M236.846 49.9529H212.306C211.19 49.9529 210.354 49.1134 210.354 47.9941C210.354 46.8747 211.19 46.0352 212.306 46.0352H236.846C237.962 46.0352 238.799 46.8747 238.799 47.9941C238.799 49.1134 237.962 49.9529 236.846 49.9529Z" fill="white"/>
<path d="M257.205 49.9529H248.839C247.723 49.9529 246.887 49.1134 246.887 47.9941C246.887 46.8747 247.723 46.0352 248.839 46.0352H257.205C258.321 46.0352 259.158 46.8747 259.158 47.9941C259.158 49.1134 258.321 49.9529 257.205 49.9529Z" fill="url(#paint0_linear_2359_349)"/>
<path d="M130.876 58.9098H87.9288C86.8133 58.9098 85.9766 58.0703 85.9766 56.951C85.9766 55.8316 86.8133 54.9922 87.9288 54.9922H130.876C131.991 54.9922 132.828 55.8316 132.828 56.951C132.549 58.0703 131.712 58.9098 130.876 58.9098Z" fill="#45C68B"/>
<path d="M130.876 94.4489H87.9288C86.8133 94.4489 85.9766 93.6093 85.9766 92.4901C85.9766 91.3708 86.8133 90.5312 87.9288 90.5312H130.876C131.991 90.5312 132.828 91.3708 132.828 92.4901C132.549 93.6093 131.712 94.4489 130.876 94.4489Z" fill="#45C68B"/>
<path d="M119.442 103.402H87.9288C86.8133 103.402 85.9766 102.562 85.9766 101.443C85.9766 100.324 86.8133 99.4844 87.9288 99.4844H119.442C120.557 99.4844 121.394 100.324 121.394 101.443C121.394 102.562 120.557 103.402 119.442 103.402Z" fill="#0F282F"/>
<path d="M202.824 103.402H128.085C126.969 103.402 126.133 102.562 126.133 101.443C126.133 100.324 126.969 99.4844 128.085 99.4844H202.824C203.939 99.4844 204.777 100.324 204.777 101.443C204.777 102.562 203.661 103.402 202.824 103.402Z" fill="#0F282F"/>
<path d="M142.868 67.8706H102.71C101.594 67.8706 100.758 67.0313 100.758 65.9119C100.758 64.7926 101.594 63.9531 102.71 63.9531H142.868C143.984 63.9531 144.82 64.7926 144.82 65.9119C144.82 67.0313 143.984 67.8706 142.868 67.8706Z" fill="#0F282F"/>
<path d="M165.455 67.8706H149.001C147.885 67.8706 147.049 67.0313 147.049 65.9119C147.049 64.7926 147.885 63.9531 149.001 63.9531H165.455C166.57 63.9531 167.407 64.7926 167.407 65.9119C167.407 67.0313 166.57 67.8706 165.455 67.8706Z" fill="url(#paint1_linear_2359_349)"/>
<path d="M213.423 76.5426H102.71C101.594 76.5426 100.758 75.7031 100.758 74.5837C100.758 73.4644 101.594 72.625 102.71 72.625H213.423C214.539 72.625 215.376 73.4644 215.376 74.5837C215.376 75.7031 214.539 76.5426 213.423 76.5426Z" fill="#0F282F"/>
<path d="M233.222 76.5426H222.904C221.788 76.5426 220.951 75.7031 220.951 74.5837C220.951 73.4644 221.788 72.625 222.904 72.625H233.222C234.336 72.625 235.175 73.4644 235.175 74.5837C234.895 75.7031 234.336 76.5426 233.222 76.5426Z" fill="url(#paint2_linear_2359_349)"/>
<path d="M272.822 76.5426H241.029C239.915 76.5426 239.078 75.7031 239.078 74.5837C239.078 73.4644 239.915 72.625 241.029 72.625H272.822C273.937 72.625 274.773 73.4644 274.773 74.5837C274.773 75.7031 273.937 76.5426 272.822 76.5426Z" fill="#0F282F"/>
<path d="M178.843 85.4996H102.71C101.594 85.4996 100.758 84.6601 100.758 83.5409C100.758 82.4215 101.594 81.582 102.71 81.582H178.843C179.959 81.582 180.795 82.4215 180.795 83.5409C180.795 84.6601 179.959 85.4996 178.843 85.4996Z" fill="#0F282F"/>
<path d="M145.654 121.316H116.093C114.977 121.316 114.141 120.476 114.141 119.357C114.141 118.238 114.977 117.398 116.093 117.398H145.654C146.769 117.398 147.606 118.238 147.606 119.357C147.606 120.476 146.769 121.316 145.654 121.316Z" fill="#0F282F"/>
<path d="M183.861 121.316H152.348C151.232 121.316 150.396 120.476 150.396 119.357C150.396 118.238 151.232 117.398 152.348 117.398H183.861C184.976 117.398 185.813 118.238 185.813 119.357C185.813 120.476 184.697 121.316 183.861 121.316Z" fill="#0F282F"/>
<path d="M212.307 121.316H189.997C188.882 121.316 188.045 120.476 188.045 119.357C188.045 118.238 188.882 117.398 189.997 117.398H212.307C213.423 117.398 214.26 118.238 214.26 119.357C214.26 120.476 213.423 121.316 212.307 121.316Z" fill="white"/>
<path d="M232.383 121.316H220.951C219.835 121.316 218.998 120.476 218.998 119.357C218.998 118.238 219.835 117.398 220.951 117.398H232.383C233.499 117.398 234.336 118.238 234.336 119.357C234.336 120.476 233.22 121.316 232.383 121.316Z" fill="white"/>
<path d="M145.654 147.898H116.093C114.977 147.898 114.141 147.058 114.141 145.939C114.141 144.82 114.977 143.98 116.093 143.98H145.654C146.769 143.98 147.606 144.82 147.606 145.939C147.606 147.058 146.769 147.898 145.654 147.898Z" fill="white"/>
<path d="M212.305 174.485H116.093C114.977 174.485 114.141 173.646 114.141 172.527C114.141 171.406 114.977 170.566 116.093 170.566H212.305C213.421 170.566 214.257 171.406 214.257 172.527C214.257 173.646 213.141 174.485 212.305 174.485Z" fill="#45C68B"/>
<path d="M158.761 129.992H129.2C128.085 129.992 127.248 129.152 127.248 128.033C127.248 126.914 128.085 126.074 129.2 126.074H158.761C159.877 126.074 160.713 126.914 160.713 128.033C160.713 129.152 159.877 129.992 158.761 129.992Z" fill="#45C68B"/>
<path d="M207.285 129.992H164.896C163.78 129.992 162.943 129.152 162.943 128.033C162.943 126.914 163.78 126.074 164.896 126.074H207.006C208.122 126.074 208.958 126.914 208.958 128.033C208.958 129.152 208.122 129.992 207.285 129.992Z" fill="#0F282F"/>
<path d="M234.896 129.992H213.423C212.307 129.992 211.471 129.152 211.471 128.033C211.471 126.914 212.307 126.074 213.423 126.074H234.896C236.012 126.074 236.849 126.914 236.849 128.033C236.57 129.152 235.733 129.992 234.896 129.992Z" fill="#0F282F"/>
<path d="M248.28 129.992H241.029C239.915 129.992 239.078 129.152 239.078 128.033C239.078 126.914 239.915 126.074 241.029 126.074H248.28C249.396 126.074 250.233 126.914 250.233 128.033C250.233 129.152 249.396 129.992 248.28 129.992Z" fill="url(#paint3_linear_2359_349)"/>
<path d="M165.733 138.663H129.479C128.364 138.663 127.527 137.824 127.527 136.705C127.527 135.586 128.364 134.746 129.479 134.746H165.733C166.849 134.746 167.686 135.586 167.686 136.705C167.686 137.824 166.57 138.663 165.733 138.663Z" fill="#0F282F"/>
<path d="M182.466 138.663H172.427C171.311 138.663 170.475 137.824 170.475 136.705C170.475 135.586 171.311 134.746 172.427 134.746H182.466C183.582 134.746 184.418 135.586 184.418 136.705C184.418 137.824 183.582 138.663 182.466 138.663Z" fill="#45C68B"/>
<path d="M264.735 138.663H189.439C188.323 138.663 187.486 137.824 187.486 136.705C187.486 135.586 188.323 134.746 189.439 134.746H264.456C265.572 134.746 266.409 135.586 266.409 136.705C266.409 137.824 265.572 138.663 264.735 138.663Z" fill="#0F282F"/>
<path d="M145.657 112.081H102.71C101.594 112.081 100.758 111.242 100.758 110.123C100.758 109.004 101.594 108.164 102.71 108.164H145.657C146.772 108.164 147.609 109.004 147.609 110.123C147.609 111.242 146.772 112.081 145.657 112.081Z" fill="#0F282F"/>
<path d="M163.781 112.081H152.626C151.511 112.081 150.674 111.242 150.674 110.123C150.674 109.004 151.511 108.164 152.626 108.164H163.781C164.897 108.164 165.733 109.004 165.733 110.123C165.733 111.242 164.618 112.081 163.781 112.081Z" fill="url(#paint4_linear_2359_349)"/>
<path d="M145.657 156.574H102.71C101.594 156.574 100.758 155.734 100.758 154.615C100.758 153.496 101.594 152.656 102.71 152.656H145.657C146.772 152.656 147.609 153.496 147.609 154.615C147.609 155.734 146.772 156.574 145.657 156.574Z" fill="#0F282F"/>
<path d="M179.401 165.527H102.71C101.594 165.527 100.758 164.687 100.758 163.568C100.758 162.449 101.594 161.609 102.71 161.609H179.401C180.516 161.609 181.353 162.449 181.353 163.568C181.353 164.687 180.516 165.527 179.401 165.527Z" fill="#0F282F"/>
<path d="M212.585 165.527H185.534C184.419 165.527 183.582 164.687 183.582 163.568C183.582 162.449 184.419 161.609 185.534 161.609H212.585C213.701 161.609 214.538 162.449 214.538 163.568C214.538 164.687 213.422 165.527 212.585 165.527Z" fill="white"/>
<path d="M230.154 165.527H218.999C217.883 165.527 217.047 164.687 217.047 163.568C217.047 162.449 217.883 161.609 218.999 161.609H230.154C231.27 161.609 232.107 162.449 232.107 163.568C232.107 164.687 231.27 165.527 230.154 165.527Z" fill="url(#paint5_linear_2359_349)"/>
<path d="M267.405 146.451C267.148 147.994 266.892 149.537 266.379 151.08C263.303 161.623 255.097 169.594 244.841 172.422C240.995 173.451 236.893 173.708 232.79 173.194C215.868 171.137 204.073 155.708 206.124 138.737C208.175 121.766 223.56 109.681 240.482 111.995C257.405 114.309 269.456 129.48 267.405 146.451Z" fill="#45C68B"/>
<path d="M85.4998 48.1862C84.9825 47.624 84.1206 47.0618 83.2588 47.0618C83.086 46.3122 83.2588 44.4383 84.2934 43.5013C84.6379 43.3139 84.6379 42.7518 84.4652 42.5644C84.1206 42.1896 83.7761 42.1896 83.4306 42.377C82.0514 43.5013 81.7069 45.75 81.8787 47.0618C80.8441 47.2492 80.154 47.9988 79.6367 48.9357C78.4303 48.3736 76.3606 48.1862 74.981 49.3105C74.6361 49.4979 74.6361 50.0601 74.8086 50.2475C74.981 50.6223 75.4983 50.6223 75.6708 50.4349C76.7055 49.4979 78.4303 49.8727 79.1194 50.2475C78.9476 51.1844 79.1194 52.1214 79.6367 52.871C79.8094 53.0584 79.9822 53.0584 80.154 53.0584L80.3267 52.871C81.1896 50.6223 83.086 49.1231 85.1552 48.7483C85.328 48.7483 85.4998 48.5609 85.4998 48.3736V48.1862Z" fill="url(#paint6_linear_2359_349)"/>
<path d="M81.3562 52.037C80.3244 53.8928 80.1531 55.9175 81.0126 57.7735L78.949 58.617L77.229 56.9299C76.8854 56.7611 76.5409 56.7611 76.3692 56.9299C76.1972 57.2673 76.1972 57.6048 76.3692 57.7735L78.4331 59.6294C78.6045 59.7981 78.949 59.7981 79.1204 59.7981L81.7008 58.617C81.7008 58.7857 81.8721 58.7857 81.8721 58.9545C82.7326 59.9668 83.5921 60.8104 84.7962 61.4853L83.0762 63.6786C82.9039 63.8474 82.9039 64.1848 83.0762 64.3535L84.108 66.5469C84.2803 66.8844 84.6239 67.0531 84.9675 66.8844C84.9675 66.8844 84.9675 66.8844 85.1398 66.8844C85.3121 66.7157 85.4844 66.3782 85.3121 66.0408L84.4516 64.3535L86.0003 62.3289C87.548 63.1725 89.267 63.5099 90.987 63.5099C91.3316 63.5099 91.6752 63.1725 91.6752 62.8351C91.6752 62.6664 91.6752 62.6664 91.5029 62.4977L83.0762 51.8682C82.7326 51.5308 82.2167 51.3621 81.7008 51.6995C81.3562 51.8682 81.3562 52.037 81.3562 52.037Z" fill="url(#paint7_linear_2359_349)"/>
<path d="M90.6188 46.9501C90.2961 47.1124 90.1343 47.4371 90.2961 47.7618L91.426 49.8724L90.1343 51.4959C88.519 50.3594 86.5811 49.8724 84.6431 50.3594C84.1586 50.5218 83.8359 51.0089 83.9968 51.4959C83.9968 51.6583 84.1586 51.8206 84.1586 51.8206L92.0722 62.0488C92.234 62.3735 92.7185 62.3735 92.8803 62.2112C93.0412 62.2112 93.0412 62.0488 93.0412 61.8865C93.5257 60.2629 93.5257 58.6394 93.203 57.0159L95.4637 56.0418L96.9171 57.1783C97.2407 57.3406 97.5634 57.3406 97.7252 57.1783C97.887 56.8535 97.887 56.5288 97.7252 56.3665L95.9482 54.9053C95.7873 54.7429 95.4637 54.7429 95.3028 54.7429L92.8803 55.8794C92.5567 54.7429 91.9105 53.6065 91.1033 52.6324C91.1033 52.47 90.9415 52.47 90.9415 52.3077L92.5567 50.1971C92.7185 50.0347 92.7185 49.71 92.5567 49.5477L91.2651 47.1124C91.2651 46.9501 90.9415 46.7877 90.6188 46.9501Z" fill="url(#paint8_linear_2359_349)"/>
<path d="M86.8045 133.932C86.2872 133.37 85.4253 132.808 84.5635 132.808C84.3907 132.058 84.5635 130.184 85.5981 129.247C85.9426 129.06 85.9426 128.498 85.7699 128.31C85.4253 127.936 85.0808 127.936 84.7353 128.123C83.3561 129.247 83.0116 131.496 83.1834 132.808C82.1488 132.995 81.4587 133.745 80.9414 134.682C79.735 134.12 77.6653 133.932 76.2857 135.057C75.9408 135.244 75.9408 135.806 76.1133 135.994C76.2857 136.368 76.803 136.368 76.9755 136.181C78.0102 135.244 79.735 135.619 80.4241 135.994C80.2523 136.93 80.4241 137.867 80.9414 138.617C81.1141 138.804 81.2869 138.804 81.4587 138.804L81.6314 138.617C82.4943 136.368 84.3907 134.869 86.4599 134.494C86.6327 134.494 86.8045 134.307 86.8045 134.12V133.932Z" fill="url(#paint9_linear_2359_349)"/>
<path d="M82.6609 137.783C81.6291 139.639 81.4578 141.664 82.3173 143.52L80.2537 144.363L78.5337 142.676C78.1901 142.507 77.8456 142.507 77.6739 142.676C77.5019 143.013 77.5019 143.351 77.6739 143.52L79.7378 145.376C79.9092 145.544 80.2537 145.544 80.4251 145.544L83.0055 144.363C83.0055 144.532 83.1768 144.532 83.1768 144.701C84.0373 145.713 84.8968 146.557 86.1009 147.231L84.3809 149.425C84.2086 149.594 84.2086 149.931 84.3809 150.1L85.4127 152.293C85.585 152.631 85.9286 152.799 86.2722 152.631C86.2722 152.631 86.2722 152.631 86.4445 152.631C86.6168 152.462 86.7891 152.124 86.6168 151.787L85.7563 150.1L87.305 148.075C88.8527 148.919 90.5717 149.256 92.2917 149.256C92.6363 149.256 92.9799 148.919 92.9799 148.581C92.9799 148.413 92.9799 148.413 92.8076 148.244L84.3809 137.614C84.0373 137.277 83.5214 137.108 83.0055 137.446C82.6609 137.614 82.6609 137.783 82.6609 137.783Z" fill="url(#paint10_linear_2359_349)"/>
<path d="M91.9235 132.696C91.6008 132.858 91.439 133.183 91.6008 133.508L92.7307 135.618L91.439 137.242C89.8237 136.105 87.8858 135.618 85.9478 136.105C85.4633 136.268 85.1406 136.755 85.3015 137.242C85.3015 137.404 85.4633 137.567 85.4633 137.567L93.3769 147.795C93.5387 148.12 94.0232 148.12 94.185 147.957C94.3459 147.957 94.3459 147.795 94.3459 147.633C94.8304 146.009 94.8304 144.385 94.5077 142.762L96.7684 141.788L98.2218 142.924C98.5454 143.087 98.8681 143.087 99.0299 142.924C99.1917 142.6 99.1917 142.275 99.0299 142.113L97.2529 140.651C97.092 140.489 96.7684 140.489 96.6075 140.489L94.185 141.625C93.8614 140.489 93.2152 139.353 92.408 138.378C92.408 138.216 92.2462 138.216 92.2462 138.054L93.8614 135.943C94.0232 135.781 94.0232 135.456 93.8614 135.294L92.5698 132.858C92.5698 132.696 92.2462 132.534 91.9235 132.696Z" fill="url(#paint11_linear_2359_349)"/>
<path d="M241.805 53.9323C241.287 53.3701 240.425 52.8079 239.564 52.8079C239.391 52.0583 239.564 50.1844 240.598 49.2474C240.943 49.06 240.943 48.4979 240.77 48.3105C240.425 47.9357 240.081 47.9357 239.735 48.1231C238.356 49.2474 238.012 51.4961 238.183 52.8079C237.149 52.9953 236.459 53.7449 235.941 54.6818C234.735 54.1197 232.665 53.9323 231.286 55.0566C230.941 55.244 230.941 55.8062 231.113 55.9936C231.286 56.3684 231.803 56.3684 231.976 56.181C233.01 55.244 234.735 55.6188 235.424 55.9936C235.252 56.9305 235.424 57.8675 235.941 58.6171C236.114 58.8045 236.287 58.8045 236.459 58.8045L236.631 58.6171C237.494 56.3684 239.391 54.8692 241.46 54.4944C241.633 54.4944 241.805 54.307 241.805 54.1197V53.9323Z" fill="url(#paint12_linear_2359_349)"/>
<path d="M237.661 57.7831C236.629 59.6389 236.458 61.6636 237.317 63.5196L235.254 64.3631L233.534 62.676C233.19 62.5072 232.846 62.5072 232.674 62.676C232.502 63.0134 232.502 63.3509 232.674 63.5196L234.738 65.3755C234.909 65.5442 235.254 65.5442 235.425 65.5442L238.006 64.3631C238.006 64.5318 238.177 64.5318 238.177 64.7006C239.037 65.7129 239.897 66.5565 241.101 67.2314L239.381 69.4247C239.209 69.5935 239.209 69.9309 239.381 70.0996L240.413 72.293C240.585 72.6305 240.929 72.7992 241.272 72.6305C241.272 72.6305 241.272 72.6305 241.445 72.6305C241.617 72.4618 241.789 72.1243 241.617 71.7869L240.756 70.0996L242.305 68.075C243.853 68.9186 245.572 69.256 247.292 69.256C247.636 69.256 247.98 68.9186 247.98 68.5812C247.98 68.4125 247.98 68.4125 247.808 68.2438L239.381 57.6143C239.037 57.2769 238.521 57.1082 238.006 57.4456C237.661 57.6143 237.661 57.7831 237.661 57.7831Z" fill="url(#paint13_linear_2359_349)"/>
<path d="M246.924 52.6962C246.601 52.8585 246.439 53.1832 246.601 53.5079L247.731 55.6185L246.439 57.242C244.824 56.1055 242.886 55.6185 240.948 56.1055C240.463 56.2679 240.141 56.755 240.302 57.242C240.302 57.4044 240.463 57.5667 240.463 57.5667L248.377 67.7949C248.539 68.1196 249.023 68.1196 249.185 67.9573C249.346 67.9573 249.346 67.7949 249.346 67.6326C249.83 66.009 249.83 64.3855 249.508 62.762L251.768 61.7879L253.222 62.9244C253.545 63.0867 253.868 63.0867 254.03 62.9244C254.192 62.5996 254.192 62.2749 254.03 62.1126L252.253 60.6514C252.092 60.489 251.768 60.489 251.608 60.489L249.185 61.6255C248.861 60.489 248.215 59.3526 247.408 58.3785C247.408 58.2161 247.246 58.2161 247.246 58.0538L248.861 55.9432C249.023 55.7808 249.023 55.4561 248.861 55.2938L247.57 52.8585C247.57 52.6962 247.246 52.5338 246.924 52.6962Z" fill="url(#paint14_linear_2359_349)"/>
<path d="M295.129 192.35L286.937 200.53L263.188 177.085L271.377 168.906L295.129 192.35Z" fill="#0F282F"/>
<path d="M205.313 111.11C187.568 128.829 187.568 157.453 205.313 175.174C223.058 192.894 251.723 192.894 269.468 175.174C287.214 157.453 287.214 128.829 269.468 111.11C251.723 93.3904 223.058 93.3904 205.313 111.11ZM262.097 167.813C248.447 181.444 226.334 181.444 212.411 167.813C198.761 154.183 198.761 132.101 212.411 118.198C226.061 104.567 248.174 104.567 262.097 118.198C275.747 132.101 275.747 154.183 262.097 167.813Z" fill="url(#paint15_linear_2359_349)"/>
<path d="M307.959 213.341C304.411 216.885 298.405 216.885 294.583 213.341L270.558 189.623C269.194 188.26 269.194 185.806 270.558 184.17L278.475 176.264C279.841 174.901 282.297 174.901 283.663 176.264L307.959 199.982C311.782 203.799 311.782 209.795 307.959 213.341Z" fill="url(#paint16_linear_2359_349)"/>
<mask id="mask0_2359_349" style="mask-type:luminance" maskUnits="userSpaceOnUse" x="218" y="125" width="36" height="37">
<path d="M253.743 125.602H218.242V161.102H253.743V125.602Z" fill="white"/>
</mask>
<g mask="url(#mask0_2359_349)">
<path fill-rule="evenodd" clip-rule="evenodd" d="M234.954 128.849C235.54 128.629 236.178 128.601 236.777 128.766L237.031 128.849L247.385 132.731C248.463 133.136 249.201 134.124 249.295 135.257L249.305 135.501V143.434C249.305 148.328 246.621 152.814 242.34 155.136L241.946 155.341L236.985 157.822C236.429 158.099 235.787 158.13 235.212 157.914L235 157.822L230.039 155.341C225.661 153.152 222.849 148.746 222.687 143.878L222.68 143.434V135.501C222.68 134.35 223.346 133.312 224.374 132.827L224.599 132.731L234.954 128.849ZM241.07 138.365L234.269 145.167L231.654 142.552C231.076 141.974 230.14 141.974 229.562 142.552C228.984 143.129 228.984 144.066 229.562 144.644L233.118 148.2C233.754 148.835 234.784 148.835 235.419 148.2L243.162 140.457C243.74 139.879 243.74 138.943 243.162 138.365C242.585 137.788 241.648 137.788 241.07 138.365Z" fill="url(#paint17_linear_2359_349)"/>
</g>
<defs>
<linearGradient id="paint0_linear_2359_349" x1="247.085" y1="48.0472" x2="259.013" y2="48.0472" gradientUnits="userSpaceOnUse">
<stop stop-color="#56DC9E"/>
<stop offset="1" stop-color="#3DAB79"/>
</linearGradient>
<linearGradient id="paint1_linear_2359_349" x1="147.378" y1="65.965" x2="167.166" y2="65.965" gradientUnits="userSpaceOnUse">
<stop stop-color="#56DC9E"/>
<stop offset="1" stop-color="#3DAB79"/>
</linearGradient>
<linearGradient id="paint2_linear_2359_349" x1="221.181" y1="74.637" x2="235.007" y2="74.637" gradientUnits="userSpaceOnUse">
<stop stop-color="#56DC9E"/>
<stop offset="1" stop-color="#3DAB79"/>
</linearGradient>
<linearGradient id="paint3_linear_2359_349" x1="239.257" y1="128.085" x2="250.1" y2="128.085" gradientUnits="userSpaceOnUse">
<stop stop-color="#83A6FF"/>
<stop offset="1" stop-color="#5A78FF"/>
</linearGradient>
<linearGradient id="paint4_linear_2359_349" x1="150.917" y1="110.176" x2="165.555" y2="110.176" gradientUnits="userSpaceOnUse">
<stop stop-color="#56DC9E"/>
<stop offset="1" stop-color="#3DAB79"/>
</linearGradient>
<linearGradient id="paint5_linear_2359_349" x1="217.258" y1="163.596" x2="231.982" y2="163.596" gradientUnits="userSpaceOnUse">
<stop stop-color="#83A6FF"/>
<stop offset="1" stop-color="#5A78FF"/>
</linearGradient>
<linearGradient id="paint6_linear_2359_349" x1="93.037" y1="60.9692" x2="78.4574" y2="47.5535" gradientUnits="userSpaceOnUse">
<stop offset="0.0113208" stop-color="#0F282F"/>
<stop offset="1" stop-color="#43B580"/>
</linearGradient>
<linearGradient id="paint7_linear_2359_349" x1="88.0486" y1="64.0173" x2="74.8793" y2="50.5942" gradientUnits="userSpaceOnUse">
<stop offset="0.0113208" stop-color="#0F282F"/>
<stop offset="1" stop-color="#43B580"/>
</linearGradient>
<linearGradient id="paint8_linear_2359_349" x1="94.5796" y1="57.5666" x2="81.9056" y2="44.9586" gradientUnits="userSpaceOnUse">
<stop offset="0.0113208" stop-color="#43B580"/>
<stop offset="1" stop-color="#0F282F"/>
</linearGradient>
<linearGradient id="paint9_linear_2359_349" x1="94.3417" y1="146.715" x2="79.7621" y2="133.3" gradientUnits="userSpaceOnUse">
<stop offset="0.0113208" stop-color="#0F282F"/>
<stop offset="1" stop-color="#43B580"/>
</linearGradient>
<linearGradient id="paint10_linear_2359_349" x1="89.3533" y1="149.763" x2="76.184" y2="136.34" gradientUnits="userSpaceOnUse">
<stop offset="0.0113208" stop-color="#0F282F"/>
<stop offset="1" stop-color="#43B580"/>
</linearGradient>
<linearGradient id="paint11_linear_2359_349" x1="95.8843" y1="143.313" x2="83.2103" y2="130.705" gradientUnits="userSpaceOnUse">
<stop offset="0.0113208" stop-color="#43B580"/>
<stop offset="1" stop-color="#0F282F"/>
</linearGradient>
<linearGradient id="paint12_linear_2359_349" x1="249.342" y1="66.7153" x2="234.762" y2="53.2996" gradientUnits="userSpaceOnUse">
<stop offset="0.0113208" stop-color="#0F282F"/>
<stop offset="1" stop-color="#43B580"/>
</linearGradient>
<linearGradient id="paint13_linear_2359_349" x1="244.353" y1="69.7634" x2="231.184" y2="56.3403" gradientUnits="userSpaceOnUse">
<stop offset="0.0113208" stop-color="#0F282F"/>
<stop offset="1" stop-color="#43B580"/>
</linearGradient>
<linearGradient id="paint14_linear_2359_349" x1="250.884" y1="63.3127" x2="238.21" y2="50.7047" gradientUnits="userSpaceOnUse">
<stop offset="0.0113208" stop-color="#43B580"/>
<stop offset="1" stop-color="#0F282F"/>
</linearGradient>
<linearGradient id="paint15_linear_2359_349" x1="192" y1="108" x2="283" y2="162.5" gradientUnits="userSpaceOnUse">
<stop stop-color="#56DC9E"/>
<stop offset="1" stop-color="#0F282F"/>
</linearGradient>
<linearGradient id="paint16_linear_2359_349" x1="269.523" y1="195.677" x2="310.808" y2="195.677" gradientUnits="userSpaceOnUse">
<stop stop-color="#43B580"/>
<stop offset="1" stop-color="#0F282F"/>
</linearGradient>
<linearGradient id="paint17_linear_2359_349" x1="235.992" y1="128.66" x2="235.992" y2="158.056" gradientUnits="userSpaceOnUse">
<stop stop-color="#204955"/>
<stop offset="1" stop-color="#0BA05E"/>
</linearGradient>
</defs>
</svg>
